<svg width="102" height="1350" viewBox="0 0 102 1350" fill="none" xmlns="http://www.w3.org/2000/svg">
<g filter="url(#filter0_i_294_852)">
<path d="M101.348 49.5651C101.348 50.5539 100.547 51.3448 99.5676 51.3446C98.5896 51.3445 97.788 50.5428 97.7882 49.5644C97.793 24.209 77.167 3.57504 51.8117 3.57016C26.4564 3.56527 5.82242 24.1913 5.81754 49.5467C5.81735 50.5355 4.95849 51.491 3.98009 51.4908C3.00168 51.4906 2.25762 50.5244 2.25781 49.546C2.26307 22.2233 24.5002 -0.00526097 51.8228 9.33999e-07C79.1454 0.00526281 101.374 22.2424 101.369 49.5651H101.348Z" fill="#A8A3A3"/>
</g>
<g opacity="0.4">
<path d="M50.5529 1349.71C37.8544 1349.71 25.1663 1344.88 15.4966 1335.21C-3.83221 1315.88 -3.83221 1284.44 15.4966 1265.11C24.8644 1255.74 37.3131 1250.59 50.5529 1250.59C63.7927 1250.59 76.2414 1255.74 85.6092 1265.11C104.938 1284.44 104.938 1315.88 85.6092 1335.21C75.95 1344.87 63.2514 1349.71 50.5529 1349.71ZM18.0988 1332.61C35.9912 1350.5 65.1042 1350.5 82.9966 1332.61C100.889 1314.72 100.889 1285.6 82.9966 1267.71C74.3262 1259.04 62.8039 1254.27 50.5425 1254.27C38.2811 1254.27 26.7588 1259.05 18.0884 1267.71C0.195922 1285.6 0.195922 1314.72 18.0884 1332.61H18.0988Z" fill="#EBF29D"/>
<path d="M49.8972 1318.7C50.0742 1319.13 50.4905 1319.38 50.9277 1319.38C51.0734 1319.38 51.2192 1319.35 51.3649 1319.3C54.8622 1317.83 58.0472 1315.56 60.5661 1312.73C60.972 1312.27 60.9304 1311.56 60.4724 1311.16C60.0145 1310.75 59.3067 1310.79 58.9007 1311.25C56.6004 1313.84 53.6964 1315.91 50.501 1317.25C49.9389 1317.49 49.6683 1318.14 49.9077 1318.7H49.8972Z" fill="#EBF29D"/>
<path d="M69.443 1283.02L50.9573 1275.63C50.6866 1275.53 50.3952 1275.53 50.1246 1275.63L31.6388 1283.02C31.2121 1283.19 30.9414 1283.6 30.9414 1284.05V1297.29C30.9622 1309.51 38.6855 1320.56 50.1558 1324.76C50.2807 1324.8 50.4056 1324.83 50.5409 1324.83C50.6762 1324.83 50.8011 1324.8 50.926 1324.76C62.3963 1320.55 70.1195 1309.51 70.1404 1297.29V1284.05C70.1404 1283.6 69.8698 1283.19 69.443 1283.02ZM67.9129 1297.29C67.8921 1308.41 60.9183 1318.54 50.5513 1322.52C40.1843 1318.54 33.2001 1308.41 33.1793 1297.29V1284.81L50.5513 1277.87L67.9129 1284.81V1297.29Z" fill="#EBF29D"/>
<path d="M42.8288 1284.76C42.5581 1284.65 42.2563 1284.65 41.9753 1284.76L37.5724 1286.52C37.1457 1286.69 36.875 1287.09 36.875 1287.55V1292.25C36.875 1292.86 37.3746 1293.36 37.9887 1293.36C38.6028 1293.36 39.1025 1292.86 39.1025 1292.25V1288.31L42.7975 1286.83C43.0785 1286.72 43.2867 1286.51 43.4117 1286.23C43.5261 1285.96 43.5261 1285.66 43.4117 1285.38C43.2972 1285.09 43.089 1284.89 42.8184 1284.76H42.8288Z" fill="#EBF29D"/>
<path d="M78.6962 1272.01C71.1812 1264.49 61.1785 1260.35 50.5409 1260.35C39.9033 1260.35 29.911 1264.5 22.3855 1272.01C6.86628 1287.53 6.86628 1312.79 22.3855 1328.32C30.1504 1336.09 40.3404 1339.96 50.5409 1339.96C60.7414 1339.96 70.9314 1336.08 78.6962 1328.32C94.2155 1312.8 94.2155 1287.54 78.6962 1272.01ZM73.1901 1297.29C73.2213 1311.42 64.197 1323.77 50.7387 1328.05C50.6138 1328.09 50.4784 1328.09 50.3431 1328.05C36.8848 1323.77 27.8605 1311.42 27.8917 1297.29V1281.67C27.8917 1281.41 28.0478 1281.17 28.2976 1281.07L50.3015 1272.27C50.3744 1272.24 50.4576 1272.23 50.5409 1272.23C50.6242 1272.23 50.7074 1272.24 50.7803 1272.27L72.7841 1281.08C73.034 1281.17 73.1901 1281.41 73.1901 1281.68V1297.3V1297.29Z" fill="#EBF29D"/>
<path d="M50.6975 1223.1C23.3748 1223.1 1.15234 1200.87 1.15234 1173.56C1.15234 1146.24 23.3852 1124.01 50.6975 1124.01C78.0098 1124.01 100.243 1146.24 100.243 1173.56C100.243 1200.87 78.0098 1223.1 50.6975 1223.1ZM50.6975 1127.31C25.1963 1127.31 4.45193 1148.05 4.45193 1173.56C4.45193 1199.06 25.1963 1219.8 50.6975 1219.8C76.1986 1219.8 96.9431 1199.06 96.9431 1173.56C96.9431 1148.05 76.1986 1127.31 50.6975 1127.31Z" fill="white"/>
<path d="M66.768 1142.61C66.5182 1142.61 66.2684 1142.56 66.0394 1142.44C61.241 1140.07 56.0783 1138.86 50.6971 1138.86C45.3158 1138.86 40.1531 1140.07 35.3547 1142.44C34.7198 1142.76 33.96 1142.63 33.4604 1142.13L24.9461 1133.62C24.5818 1133.25 24.4152 1132.75 24.4777 1132.24C24.5401 1131.73 24.8316 1131.29 25.2688 1131.03C32.9399 1126.43 41.7352 1124 50.7075 1124C59.6797 1124 68.475 1126.44 76.1462 1131.03C76.5833 1131.29 76.8747 1131.73 76.9372 1132.24C76.9996 1132.75 76.8227 1133.25 76.4688 1133.62L67.9545 1142.13C67.6319 1142.44 67.2156 1142.61 66.7784 1142.61H66.768ZM50.6971 1135.56C56.1824 1135.56 61.47 1136.71 66.4245 1138.97L72.5864 1132.81C65.8832 1129.19 58.3578 1127.3 50.6971 1127.3C43.0363 1127.3 35.5108 1129.19 28.8077 1132.81L34.9696 1138.97C39.9241 1136.71 45.2117 1135.56 50.6971 1135.56Z" fill="white"/>
<path d="M50.6953 1223.1C41.723 1223.1 32.9277 1220.67 25.2566 1216.07C24.8194 1215.81 24.5279 1215.37 24.4655 1214.86C24.403 1214.35 24.58 1213.85 24.9339 1213.48L33.4481 1204.97C33.9478 1204.47 34.718 1204.34 35.3425 1204.66C40.1409 1207.03 45.3036 1208.24 50.6848 1208.24C56.0661 1208.24 61.2288 1207.03 66.0272 1204.66C66.6621 1204.34 67.4219 1204.47 67.9215 1204.97L76.4358 1213.48C76.8001 1213.85 76.9667 1214.35 76.9042 1214.86C76.8417 1215.37 76.5503 1215.81 76.1131 1216.07C68.442 1220.68 59.6467 1223.1 50.6744 1223.1H50.6953ZM28.8059 1214.29C35.509 1217.91 43.0345 1219.8 50.6953 1219.8C58.356 1219.8 65.8814 1217.91 72.5846 1214.29L66.4227 1208.13C61.4682 1210.39 56.1806 1211.54 50.6953 1211.54C45.2099 1211.54 39.9223 1210.39 34.9678 1208.13L28.8059 1214.29Z" fill="white"/>
<path d="M91.8031 1199.79C91.366 1199.79 90.9496 1199.62 90.6374 1199.31L82.1231 1190.79C81.6235 1190.29 81.4986 1189.52 81.8109 1188.9C84.184 1184.1 85.3914 1178.94 85.3914 1173.56C85.3914 1168.17 84.184 1163.01 81.8109 1158.21C81.4986 1157.58 81.6235 1156.81 82.1231 1156.32L90.6374 1147.8C91.0017 1147.44 91.5013 1147.27 92.0113 1147.34C92.5213 1147.4 92.9689 1147.69 93.2291 1148.13C97.8297 1155.8 100.255 1164.59 100.255 1173.57C100.255 1182.54 97.8297 1191.33 93.2291 1199C92.9689 1199.44 92.5213 1199.73 92.0113 1199.8C91.9385 1199.8 91.876 1199.8 91.8031 1199.8V1199.79ZM85.2769 1189.27L91.4389 1195.43C95.0507 1188.73 96.945 1181.21 96.945 1173.55C96.945 1165.88 95.0507 1158.36 91.4389 1151.66L85.2769 1157.82C87.5356 1162.77 88.6805 1168.06 88.6805 1173.55C88.6805 1179.03 87.5356 1184.32 85.2769 1189.27Z" fill="white"/>
<path d="M9.5938 1199.78C9.52094 1199.78 9.45848 1199.78 9.39603 1199.77C8.88601 1199.71 8.43839 1199.42 8.17817 1198.98C3.57756 1191.31 1.15234 1182.52 1.15234 1173.54C1.15234 1164.57 3.57756 1155.78 8.17817 1148.11C8.43839 1147.67 8.88601 1147.38 9.39603 1147.32C9.90605 1147.25 10.4057 1147.43 10.77 1147.78L19.2842 1156.3C19.7838 1156.8 19.9087 1157.57 19.5965 1158.19C17.2233 1162.99 16.0159 1168.15 16.0159 1173.53C16.0159 1178.92 17.2233 1184.08 19.5965 1188.88C19.9087 1189.51 19.7838 1190.28 19.2842 1190.77L10.77 1199.29C10.4577 1199.6 10.0413 1199.77 9.60415 1199.77L9.5938 1199.78ZM9.95807 1151.66C6.34628 1158.36 4.45193 1165.88 4.45193 1173.54C4.45193 1181.21 6.34628 1188.73 9.95807 1195.43L16.12 1189.27C13.8613 1184.32 12.7164 1179.03 12.7164 1173.54C12.7164 1168.06 13.8613 1162.77 16.12 1157.82L9.95807 1151.66Z" fill="white"/>
<path d="M50.6986 1135.56C29.7564 1135.56 12.707 1152.6 12.707 1173.56C12.707 1194.51 29.746 1211.55 50.6986 1211.55C71.6511 1211.55 88.6901 1194.51 88.6901 1173.56C88.6901 1152.6 71.6511 1135.56 50.6986 1135.56ZM72.0779 1161.08C73.8786 1164.16 74.9715 1167.52 75.3254 1171.09C75.3358 1171.23 75.2733 1171.37 75.1484 1171.44C72.4318 1173.11 69.9961 1175.15 67.8936 1177.53C67.7999 1177.65 67.6438 1177.69 67.5085 1177.64L62.8142 1176.11C62.6789 1176.06 62.5852 1175.95 62.5644 1175.8C62.0335 1171.92 60.8262 1168.21 58.9734 1164.75C58.911 1164.63 58.9214 1164.48 59.0046 1164.37L61.9086 1160.37C61.9815 1160.27 62.096 1160.21 62.2105 1160.21C62.2417 1160.21 62.2626 1160.21 62.2938 1160.21C65.3956 1160.9 68.5806 1161.13 71.7448 1160.87C71.8905 1160.86 72.0258 1160.93 72.0987 1161.06L72.0779 1161.08ZM60.0039 1176.46C60.0143 1176.56 59.983 1176.67 59.9206 1176.74C57.4537 1179.58 54.3104 1181.86 50.8443 1183.32C50.7506 1183.36 50.6569 1183.36 50.5632 1183.32C47.0972 1181.85 43.9537 1179.57 41.4869 1176.74C41.4244 1176.67 41.3932 1176.56 41.4036 1176.46C41.8824 1172.69 43.0586 1169.09 44.8801 1165.76C44.9321 1165.67 45.0154 1165.6 45.1195 1165.58C46.9515 1165.2 48.825 1165 50.709 1165C52.5929 1165 54.4665 1165.2 56.2984 1165.58C56.4025 1165.6 56.4857 1165.67 56.5378 1165.76C58.3593 1169.09 59.5251 1172.69 60.0143 1176.46H60.0039ZM59.4418 1150.63C59.4418 1150.63 59.5667 1150.52 59.6916 1150.52C59.7333 1150.52 59.7853 1150.52 59.8373 1150.55C63.6677 1152.07 67.0921 1154.57 69.7568 1157.77C69.8921 1157.92 69.84 1158.09 69.8088 1158.15C69.788 1158.2 69.6943 1158.37 69.4757 1158.37C67.1129 1158.4 64.7606 1158.13 62.4811 1157.59C62.3875 1157.57 62.3042 1157.51 62.2521 1157.42C61.0343 1155.41 60.0559 1153.25 59.3481 1151C59.2857 1150.8 59.4001 1150.67 59.4522 1150.63H59.4418ZM45.4422 1149.38C48.8875 1148.64 52.5201 1148.64 55.9653 1149.38C56.1006 1149.41 56.2151 1149.51 56.2463 1149.65C56.9853 1152.74 58.1823 1155.69 59.7957 1158.43C59.8685 1158.56 59.8581 1158.71 59.7748 1158.84L56.8917 1162.81C56.8084 1162.93 56.6627 1162.99 56.5274 1162.96C52.7178 1162.19 48.6897 1162.19 44.8801 1162.96C44.7448 1162.99 44.5991 1162.93 44.5158 1162.81L41.6326 1158.84C41.5493 1158.72 41.5389 1158.56 41.6118 1158.43C43.2251 1155.69 44.4221 1152.74 45.1611 1149.65C45.1924 1149.51 45.3069 1149.41 45.4422 1149.38ZM31.6508 1157.77C34.3154 1154.56 37.7398 1152.06 41.5702 1150.55C41.6222 1150.53 41.6743 1150.52 41.7159 1150.52C41.8512 1150.52 41.9345 1150.59 41.9657 1150.63C42.0177 1150.68 42.1322 1150.8 42.0697 1151C41.362 1153.26 40.3836 1155.41 39.1658 1157.42C39.1137 1157.51 39.0305 1157.57 38.9368 1157.59C36.6573 1158.13 34.3049 1158.4 31.9422 1158.37C31.7236 1158.37 31.6299 1158.2 31.6091 1158.15C31.5779 1158.09 31.5258 1157.92 31.6611 1157.77H31.6508ZM29.3296 1161.08C29.392 1160.96 29.5169 1160.89 29.6523 1160.89C29.6523 1160.89 29.6731 1160.89 29.6835 1160.89C32.8581 1161.14 36.0432 1160.92 39.1346 1160.23C39.2803 1160.2 39.426 1160.25 39.5093 1160.38L42.4133 1164.38C42.4965 1164.49 42.507 1164.65 42.4445 1164.76C40.5918 1168.22 39.3844 1171.93 38.8535 1175.81C38.8327 1175.95 38.739 1176.06 38.6037 1176.12L33.9094 1177.65C33.7741 1177.69 33.618 1177.65 33.5243 1177.54C31.4218 1175.16 28.9861 1173.12 26.2695 1171.45C26.155 1171.38 26.0821 1171.25 26.0925 1171.1C26.4464 1167.53 27.5393 1164.16 29.34 1161.09L29.3296 1161.08ZM30.4642 1186.72C30.4017 1186.92 30.2248 1186.96 30.1519 1186.97C30.0791 1186.97 29.9125 1186.97 29.798 1186.81C27.581 1183.32 26.2695 1179.28 26.0092 1175.14C25.9988 1174.93 26.1341 1174.83 26.1966 1174.79C26.259 1174.76 26.4256 1174.69 26.5921 1174.82C28.5177 1176.18 30.2664 1177.78 31.7964 1179.56C31.8589 1179.63 31.8901 1179.73 31.8797 1179.83C31.6924 1182.17 31.2136 1184.5 30.4537 1186.73L30.4642 1186.72ZM40.7479 1196.23C37.5004 1194.8 34.638 1192.71 32.244 1190.02C32.1503 1189.92 32.1191 1189.76 32.1712 1189.64C33.389 1186.7 34.1592 1183.61 34.461 1180.45C34.4714 1180.3 34.5756 1180.18 34.7109 1180.13L39.3531 1178.62C39.3531 1178.62 39.426 1178.6 39.4676 1178.6C39.5717 1178.6 39.6654 1178.65 39.7382 1178.73C42.3404 1181.64 45.5983 1184.02 49.1684 1185.59C49.3038 1185.65 49.3871 1185.78 49.3871 1185.92V1190.8C49.3871 1190.95 49.3038 1191.08 49.1684 1191.14C46.254 1192.4 43.5478 1194.09 41.1226 1196.16C41.0185 1196.26 40.8624 1196.28 40.7375 1196.22L40.7479 1196.23ZM57.1207 1197.26C57.1103 1197.33 57.0582 1197.5 56.85 1197.55C52.8323 1198.57 48.5856 1198.57 44.5678 1197.55C44.3701 1197.5 44.3076 1197.33 44.2972 1197.26C44.2868 1197.18 44.266 1197.02 44.4429 1196.88C46.3373 1195.48 48.3982 1194.3 50.5737 1193.39C50.6673 1193.35 50.761 1193.35 50.8546 1193.39C53.0196 1194.3 55.0806 1195.48 56.9853 1196.88C57.1519 1197.01 57.1415 1197.18 57.1311 1197.26H57.1207ZM69.1843 1190.03C66.7903 1192.72 63.9279 1194.8 60.6804 1196.23C60.5451 1196.29 60.3994 1196.26 60.2953 1196.17C57.8701 1194.1 55.1743 1192.41 52.2494 1191.15C52.1141 1191.08 52.0308 1190.96 52.0308 1190.81V1185.93C52.0308 1185.79 52.1141 1185.65 52.2494 1185.6C55.8196 1184.03 59.0879 1181.65 61.6796 1178.74C61.7525 1178.66 61.8462 1178.61 61.9503 1178.61C61.9919 1178.61 62.0231 1178.61 62.0648 1178.64L66.707 1180.14C66.8423 1180.19 66.9464 1180.31 66.9568 1180.46C67.2587 1183.62 68.0289 1186.7 69.2467 1189.65C69.2988 1189.77 69.278 1189.93 69.1739 1190.03H69.1843ZM71.6199 1186.82C71.5054 1186.99 71.3285 1186.99 71.266 1186.98C71.1932 1186.98 71.0266 1186.93 70.9537 1186.73C70.2043 1184.5 69.7255 1182.17 69.5277 1179.83C69.5277 1179.74 69.5486 1179.63 69.611 1179.56C71.1411 1177.78 72.8897 1176.19 74.8153 1174.82C74.8882 1174.76 74.9611 1174.74 75.0235 1174.74C75.1068 1174.74 75.1692 1174.77 75.2109 1174.79C75.2733 1174.83 75.419 1174.93 75.3982 1175.14C75.138 1179.28 73.8265 1183.32 71.6095 1186.81L71.6199 1186.82Z" fill="white"/>
<path d="M50.5529 1099.64C37.8544 1099.64 25.1663 1094.81 15.4966 1085.14C-3.83221 1065.82 -3.83221 1034.37 15.4966 1015.04C24.8644 1005.67 37.3131 1000.52 50.5529 1000.52C63.7927 1000.52 76.2414 1005.67 85.6092 1015.04C104.938 1034.37 104.938 1065.82 85.6092 1085.14C75.95 1094.8 63.2514 1099.64 50.5529 1099.64ZM18.0988 1082.54C35.9912 1100.43 65.1042 1100.43 82.9966 1082.54C100.889 1064.65 100.889 1035.54 82.9966 1017.64C74.3262 1008.97 62.8039 1004.21 50.5425 1004.21C38.2811 1004.21 26.7588 1008.98 18.0884 1017.64C0.195922 1035.54 0.195922 1064.65 18.0884 1082.54H18.0988Z" fill="#EBF29D"/>
<path d="M49.8972 1068.65C50.0742 1069.07 50.4905 1069.32 50.9277 1069.32C51.0734 1069.32 51.2192 1069.29 51.3649 1069.24C54.8622 1067.77 58.0472 1065.5 60.5661 1062.67C60.972 1062.22 60.9304 1061.51 60.4724 1061.1C60.0145 1060.7 59.3067 1060.74 58.9007 1061.2C56.6004 1063.79 53.6964 1065.86 50.501 1067.19C49.9389 1067.43 49.6683 1068.09 49.9077 1068.65H49.8972Z" fill="#EBF29D"/>
<path d="M69.443 1032.96L50.9573 1025.57C50.6866 1025.46 50.3952 1025.46 50.1246 1025.57L31.6388 1032.96C31.2121 1033.12 30.9414 1033.53 30.9414 1033.99V1047.23C30.9622 1059.45 38.6855 1070.49 50.1558 1074.7C50.2807 1074.74 50.4056 1074.76 50.5409 1074.76C50.6762 1074.76 50.8011 1074.74 50.926 1074.7C62.3963 1070.48 70.1195 1059.45 70.1404 1047.23V1033.99C70.1404 1033.53 69.8698 1033.12 69.443 1032.96ZM67.9129 1047.23C67.8921 1058.34 60.9183 1068.47 50.5513 1072.46C40.1843 1068.47 33.2001 1058.34 33.1793 1047.23V1034.75L50.5513 1027.8L67.9129 1034.75V1047.23Z" fill="#EBF29D"/>
<path d="M42.8288 1034.69C42.5581 1034.58 42.2563 1034.58 41.9753 1034.69L37.5724 1036.45C37.1457 1036.62 36.875 1037.03 36.875 1037.48V1042.18C36.875 1042.79 37.3746 1043.29 37.9887 1043.29C38.6028 1043.29 39.1025 1042.79 39.1025 1042.18V1038.24L42.7975 1036.77C43.0785 1036.65 43.2867 1036.44 43.4117 1036.16C43.5261 1035.89 43.5261 1035.59 43.4117 1035.31C43.2972 1035.03 43.089 1034.82 42.8184 1034.69H42.8288Z" fill="#EBF29D"/>
<path d="M78.6962 1021.94C71.1812 1014.42 61.1785 1010.29 50.5409 1010.29C39.9033 1010.29 29.911 1014.43 22.3855 1021.94C6.86628 1037.46 6.86628 1062.72 22.3855 1078.25C30.1504 1086.02 40.3404 1089.89 50.5409 1089.89C60.7414 1089.89 70.9314 1086.01 78.6962 1078.25C94.2155 1062.74 94.2155 1037.47 78.6962 1021.94ZM73.1901 1047.23C73.2213 1061.35 64.197 1073.71 50.7387 1077.98C50.6138 1078.03 50.4784 1078.03 50.3431 1077.98C36.8848 1073.71 27.8605 1061.35 27.8917 1047.23V1031.6C27.8917 1031.34 28.0478 1031.1 28.2976 1031L50.3015 1022.2C50.3744 1022.17 50.4576 1022.16 50.5409 1022.16C50.6242 1022.16 50.7074 1022.17 50.7803 1022.2L72.7841 1031.01C73.034 1031.1 73.1901 1031.34 73.1901 1031.61V1047.24V1047.23Z" fill="#EBF29D"/>
<path d="M50.967 977.332C23.6444 977.332 1.42188 955.1 1.42188 927.787C1.42188 900.475 23.6548 878.242 50.967 878.242C78.2793 878.242 100.512 900.475 100.512 927.787C100.512 955.1 78.2793 977.332 50.967 977.332ZM50.967 881.542C25.4659 881.542 4.7214 902.286 4.7214 927.787C4.7214 953.288 25.4659 974.033 50.967 974.033C76.4682 974.033 97.2126 953.288 97.2126 927.787C97.2126 902.286 76.4682 881.542 50.967 881.542Z" fill="#11F8A5"/>
<path d="M83.2875 892.44L67.9492 907.778L70.9669 910.796L86.3051 895.458L83.2875 892.44Z" fill="#11F8A5"/>
<path d="M30.4945 945.232L15.1562 960.57L18.1738 963.588L33.5121 948.25L30.4945 945.232Z" fill="#11F8A5"/>
<path d="M71.4317 945.247L68.4141 948.265L83.7523 963.603L86.7699 960.585L71.4317 945.247Z" fill="#11F8A5"/>
<path d="M18.1699 891.979L15.1523 894.996L30.4833 910.327L33.5009 907.309L18.1699 891.979Z" fill="#11F8A5"/>
<path d="M63.0511 929.119C64.0503 928.12 64.0503 926.507 63.0511 925.518L60.9277 923.405C59.9285 922.406 58.3152 922.406 57.3264 923.405L56.1814 924.55L54.8595 923.228C53.8603 922.229 52.2469 922.229 51.2581 923.228L50.1132 924.384L48.7913 923.051C47.792 922.052 46.1787 922.052 45.1899 923.051L38.164 930.077C38.112 930.129 38.112 930.212 38.164 930.275C39.1008 931.212 40.6309 931.212 41.5781 930.275L46.1058 925.747C46.595 925.258 47.3861 925.258 47.8753 925.747L48.2084 926.08C48.2708 926.143 48.2708 926.236 48.2084 926.299L44.4301 930.077C44.378 930.129 44.378 930.212 44.4301 930.275C45.3668 931.212 46.8969 931.212 47.8441 930.275L52.1845 925.934C52.6737 925.445 53.4648 925.445 53.954 925.934L54.2871 926.267C54.3391 926.32 54.3391 926.403 54.2871 926.465L50.644 930.108C50.592 930.16 50.592 930.244 50.644 930.306C51.5808 931.243 53.1109 931.243 54.058 930.306L58.2527 926.111C58.742 925.622 59.533 925.622 60.0222 926.111L60.7404 926.83C61.0214 927.111 61.0214 927.579 60.7404 927.86L60.6259 927.974C60.3449 928.255 59.8765 928.255 59.5954 927.974L58.6691 927.048C58.617 926.996 58.5337 926.996 58.4713 927.048L56.8684 928.651C56.8163 928.703 56.8163 928.786 56.8684 928.849L58.3152 930.296C59.3144 931.295 60.9277 931.295 61.9165 930.296L63.0615 929.151L63.0511 929.119Z" fill="#11F8A5"/>
<path d="M50.9681 889.796C29.9843 889.796 12.9766 906.804 12.9766 927.787C12.9766 948.771 29.9843 965.779 50.9681 965.779C71.9519 965.779 88.9596 948.771 88.9596 927.787C88.9596 906.804 71.9519 889.796 50.9681 889.796ZM52.519 901.526C58.6184 901.88 64.1558 904.316 68.4442 908.125L62.9588 913.611C60.0964 911.186 56.4846 909.614 52.519 909.281V901.526ZM49.4276 901.526V909.281C45.4619 909.604 41.8501 911.186 38.9877 913.611L33.5024 908.125C37.7907 904.316 43.3281 901.88 49.4276 901.526ZM31.3166 910.311L36.8019 915.797C34.3767 918.659 32.805 922.271 32.4719 926.237H24.7175C25.0714 920.137 27.507 914.6 31.3166 910.311ZM24.7175 929.328H32.4719C32.7946 933.294 34.3767 936.905 36.8019 939.768L31.3166 945.253C27.507 940.965 25.0714 935.427 24.7175 929.328ZM49.4276 954.038C43.3281 953.684 37.7907 951.248 33.5024 947.439L38.9877 941.954C41.8501 944.379 45.4619 945.951 49.4276 946.284V954.038ZM35.0012 927.777C35.0012 918.961 42.152 911.81 50.9681 911.81C59.7842 911.81 66.9349 918.961 66.9349 927.777C66.9349 936.593 59.7842 943.744 50.9681 943.744C42.152 943.744 35.0012 936.593 35.0012 927.777ZM52.519 954.038V946.284C56.4846 945.961 60.0964 944.379 62.9588 941.954L68.4442 947.439C64.1558 951.248 58.6184 953.684 52.519 954.038ZM70.6299 945.253L65.1446 939.768C67.5698 936.905 69.1415 933.294 69.4746 929.328H77.229C76.8752 935.427 74.4395 940.965 70.6299 945.253ZM69.4746 926.237C69.1519 922.271 67.5698 918.659 65.1446 915.797L70.6299 910.311C74.4395 914.6 76.8752 920.137 77.229 926.237H69.4746Z" fill="#11F8A5"/>
<path d="M16.0626 832.971C-3.42712 813.482 -3.42712 781.773 16.0626 762.283C35.5523 742.794 67.261 742.794 86.7507 762.283C106.24 781.773 106.24 813.482 86.7507 832.971C67.261 852.461 35.5523 852.461 16.0626 832.971ZM84.3951 764.639C66.2041 746.448 36.6093 746.448 18.423 764.639C0.231935 782.83 0.231935 812.425 18.423 830.611C36.614 848.802 66.2088 848.802 84.3951 830.611C102.586 812.42 102.586 782.825 84.3951 764.639Z" fill="white"/>
<path d="M84.9346 787.025C84.7592 786.85 84.617 786.627 84.5365 786.381C82.8065 781.262 79.9816 776.726 76.1424 772.887C72.308 769.052 67.7673 766.227 62.6484 764.493C61.9706 764.26 61.5156 763.63 61.5156 762.914V750.766C61.5156 750.254 61.7526 749.771 62.1555 749.453C62.5631 749.136 63.0892 749.027 63.5821 749.15C72.3317 751.34 80.3418 755.88 86.7404 762.284C93.139 768.687 97.6797 776.693 99.8695 785.442C99.9927 785.94 99.8789 786.466 99.5661 786.873C99.2485 787.281 98.7651 787.513 98.2532 787.513H86.1053C85.6503 787.513 85.2332 787.329 84.9251 787.02L84.9346 787.025ZM78.498 770.531C82.413 774.446 85.3659 779.034 87.2902 784.181H96.0777C93.869 776.825 89.8544 770.104 84.3895 764.639C78.9246 759.175 72.2037 755.16 64.8524 752.956V761.744C69.9997 763.663 74.5878 766.616 78.5028 770.536L78.498 770.531Z" fill="white"/>
<path d="M16.0614 832.972C9.66281 826.573 5.1174 818.563 2.92765 809.814C2.80442 809.316 2.91818 808.79 3.231 808.387C3.54856 807.979 4.032 807.747 4.54389 807.747H16.6918C17.4075 807.747 18.0426 808.202 18.2701 808.88C20.0001 813.999 22.825 818.535 26.6641 822.374C30.4986 826.208 35.0393 829.033 40.1582 830.768C40.836 830.995 41.2909 831.631 41.2909 832.346V844.494C41.2909 845.006 41.0539 845.489 40.6511 845.807C40.2434 846.125 39.7173 846.234 39.2197 846.11C30.4701 843.921 22.4648 839.38 16.0614 832.981V832.972ZM6.72892 811.074C8.93763 818.43 12.9522 825.151 18.4171 830.616C23.8819 836.081 30.6029 840.096 37.9589 842.304V833.517C32.8116 831.597 28.2235 828.644 24.3085 824.729C20.3935 820.814 17.4407 816.226 15.5163 811.079H6.72892V811.074Z" fill="white"/>
<path d="M62.0116 845.665C61.6988 845.352 61.5234 844.93 61.5234 844.484V832.336C61.5234 831.621 61.9785 830.986 62.6562 830.758C67.7751 829.028 72.311 826.203 76.1502 822.364C79.9894 818.525 82.8095 813.989 84.5442 808.87C84.7717 808.192 85.4069 807.737 86.1226 807.737H98.2705C98.7824 807.737 99.2658 807.974 99.5834 808.377C99.901 808.78 100.01 809.311 99.8867 809.804C97.6923 818.553 93.1516 826.559 86.7529 832.962C80.3543 839.365 72.3442 843.906 63.5947 846.096C63.097 846.219 62.5709 846.105 62.168 845.792C62.1159 845.745 62.0638 845.702 62.0164 845.655L62.0116 845.665ZM64.8555 833.512V842.299C72.2115 840.091 78.9324 836.076 84.3973 830.611C89.8622 825.146 93.872 818.425 96.0855 811.069H87.298C85.3784 816.217 82.4256 820.8 78.5058 824.72C74.5908 828.635 70.0028 831.592 64.8555 833.512Z" fill="white"/>
<path d="M3.36444 787.025C3.31705 786.978 3.26967 786.926 3.23175 786.874C2.91419 786.471 2.80517 785.94 2.9284 785.442C5.11815 776.693 9.65881 768.683 16.0622 762.284C22.4655 755.885 30.4709 751.34 39.2204 749.15C39.7181 749.027 40.2442 749.141 40.6471 749.454C41.0499 749.771 41.287 750.255 41.287 750.767V762.914C41.287 763.63 40.832 764.265 40.1542 764.493C35.0353 766.223 30.4993 769.048 26.6601 772.887C22.8257 776.721 20.0009 781.262 18.2661 786.381C18.0386 787.059 17.4035 787.514 16.6878 787.514H4.53991C4.09438 787.514 3.66778 787.338 3.3597 787.03L3.36444 787.025ZM37.9549 752.956C30.5989 755.165 23.8779 759.18 18.4131 764.644C12.9482 770.109 8.93837 776.83 6.72492 784.186H15.5123C17.4319 779.039 20.3848 774.456 24.3045 770.536C28.2195 766.621 32.8076 763.668 37.9549 761.744V752.956Z" fill="white"/>
<path d="M78.502 770.531C63.5624 755.591 39.2476 755.586 24.308 770.531C9.3637 785.475 9.36844 809.785 24.308 824.725C39.2476 839.664 63.5576 839.669 78.502 824.725C93.4463 809.78 93.4416 785.47 78.502 770.531Z" fill="white"/>
<path d="M65.225 811.304L37.6973 811.487C36.5377 811.495 35.6039 812.441 35.6116 813.601L35.6181 814.582C35.6258 815.741 36.5721 816.675 37.7317 816.667L65.2593 816.485C66.419 816.477 67.3528 815.531 67.3451 814.371L67.3386 813.39C67.3309 812.231 66.3846 811.297 65.225 811.304Z" fill="#191D0A"/>
<path d="M41.4476 794.689C41.149 794.689 40.8457 794.623 40.5708 794.49L38.4237 793.452C37.49 792.997 37.0634 791.893 37.452 790.93L38.4379 788.475C38.7413 787.726 39.457 787.238 40.2627 787.233C40.6087 787.233 40.95 787.319 41.2533 787.494L43.8128 788.954C44.2915 789.224 44.6375 789.693 44.7607 790.234C44.8839 790.774 44.7749 791.343 44.4621 791.798L43.0592 793.831C42.6942 794.362 42.0875 794.684 41.4429 794.684L41.4476 794.689Z" fill="#191D0A"/>
<path d="M61.2625 794.556C60.6179 794.556 60.0065 794.248 59.6368 793.722L58.248 791.764C57.9257 791.314 57.812 790.745 57.9258 790.205C58.0395 789.664 58.3808 789.19 58.8595 788.911L61.4995 787.361C61.7981 787.186 62.1394 787.091 62.4854 787.086C63.2911 787.081 64.0163 787.56 64.3291 788.304L65.3245 790.688C65.7226 791.646 65.3103 792.759 64.386 793.224L62.1394 794.347C61.8692 794.48 61.5658 794.556 61.2672 794.556H61.2625Z" fill="#191D0A"/>
<path d="M39.2851 809.647C38.0764 809.657 36.9911 808.898 36.5787 807.761L31.986 795.12C31.6921 795.262 31.3792 795.371 31.0617 795.452C30.6872 795.546 30.308 795.594 29.9241 795.594C29.7014 795.594 29.4833 795.584 29.27 795.556C26.8765 795.253 25.0612 793.2 25.047 790.783C25.028 788.11 27.1893 785.92 29.8625 785.901C32.5357 785.882 34.7255 788.043 34.7397 790.717C34.7397 791.333 34.6354 791.925 34.4174 792.48C34.2989 792.783 34.152 793.072 33.9814 793.347L42.7166 797.575L49.3997 787.892C49.12 787.773 48.8498 787.626 48.5939 787.451C48.1104 787.124 47.6886 786.716 47.3473 786.238C46.7691 785.422 46.4563 784.46 46.4515 783.465C46.4326 780.792 48.5939 778.602 51.2671 778.583C51.3856 778.583 51.5088 778.583 51.6273 778.592C54.0209 778.754 55.9547 780.673 56.1301 783.067C56.2106 784.2 55.9121 785.285 55.2674 786.209C54.9262 786.693 54.509 787.105 54.0303 787.432C53.7791 787.607 53.509 787.754 53.2293 787.873L60.0308 797.457L68.6239 793.158C68.4628 792.85 68.3349 792.527 68.2401 792.191C68.1263 791.783 68.0647 791.357 68.0647 790.925C68.0647 790.731 68.0741 790.537 68.0931 790.347C68.368 787.911 70.425 786.062 72.8755 786.048C75.5487 786.029 77.7384 788.19 77.7526 790.864C77.7716 793.414 75.7904 795.556 73.2452 795.731L72.9418 795.741C72.4489 795.741 71.9655 795.674 71.4962 795.532C71.1929 795.437 70.899 795.319 70.6241 795.167L66.311 807.562C65.9176 808.704 64.8369 809.472 63.6283 809.481L39.2851 809.642V809.647Z" fill="#191D0A"/>
<path d="M50.5529 726.492C37.8544 726.492 25.1663 721.662 15.4966 711.992C-3.83221 692.664 -3.83221 661.219 15.4966 641.89C24.8644 632.522 37.3131 627.37 50.5529 627.37C63.7927 627.37 76.2414 632.522 85.6092 641.89C104.938 661.219 104.938 692.664 85.6092 711.992C75.95 721.652 63.2514 726.492 50.5529 726.492ZM18.0988 709.39C35.9912 727.283 65.1042 727.283 82.9966 709.39C100.889 691.498 100.889 662.385 82.9966 644.492C74.3262 635.822 62.8039 631.055 50.5425 631.055C38.2811 631.055 26.7588 635.832 18.0884 644.492C0.195922 662.385 0.195922 691.498 18.0884 709.39H18.0988Z" fill="#EBF29D"/>
<path d="M49.8972 695.485C50.0742 695.911 50.4905 696.161 50.9277 696.161C51.0734 696.161 51.2192 696.13 51.3649 696.078C54.8622 694.61 58.0472 692.341 60.5661 689.51C60.972 689.052 60.9304 688.344 60.4724 687.938C60.0145 687.532 59.3067 687.574 58.9007 688.032C56.6004 690.624 53.6964 692.695 50.501 694.027C49.9389 694.267 49.6683 694.923 49.9077 695.485H49.8972Z" fill="#EBF29D"/>
<path d="M69.443 659.804L50.9573 652.414C50.6866 652.31 50.3952 652.31 50.1246 652.414L31.6388 659.804C31.2121 659.971 30.9414 660.377 30.9414 660.835V674.074C30.9622 686.294 38.6855 697.338 50.1558 701.543C50.2807 701.584 50.4056 701.605 50.5409 701.605C50.6762 701.605 50.8011 701.584 50.926 701.543C62.3963 697.327 70.1195 686.294 70.1404 674.074V660.835C70.1404 660.377 69.8698 659.971 69.443 659.804ZM67.9129 674.074C67.8921 685.191 60.9183 695.318 50.5513 699.305C40.1843 695.318 33.2001 685.191 33.1793 674.074V661.594L50.5513 654.652L67.9129 661.594V674.074Z" fill="#EBF29D"/>
<path d="M42.8288 661.542C42.5581 661.427 42.2563 661.427 41.9753 661.542L37.5724 663.301C37.1457 663.468 36.875 663.874 36.875 664.331V669.026C36.875 669.64 37.3746 670.139 37.9887 670.139C38.6028 670.139 39.1025 669.64 39.1025 669.026V665.091L42.7975 663.613C43.0785 663.499 43.2867 663.291 43.4117 663.01C43.5261 662.739 43.5261 662.437 43.4117 662.156C43.2972 661.875 43.089 661.667 42.8184 661.542H42.8288Z" fill="#EBF29D"/>
<path d="M78.6962 648.791C71.1812 641.266 61.1785 637.134 50.5409 637.134C39.9033 637.134 29.911 641.276 22.3855 648.791C6.86628 664.311 6.86628 689.573 22.3855 705.102C30.1504 712.867 40.3404 716.739 50.5409 716.739C60.7414 716.739 70.9314 712.857 78.6962 705.102C94.2155 689.583 94.2155 664.321 78.6962 648.791ZM73.1901 674.074C73.2213 688.199 64.197 700.554 50.7387 704.832C50.6138 704.873 50.4784 704.873 50.3431 704.832C36.8848 700.554 27.8605 688.199 27.8917 674.074V658.451C27.8917 658.19 28.0478 657.951 28.2976 657.847L50.3015 649.052C50.3744 649.02 50.4576 649.01 50.5409 649.01C50.6242 649.01 50.7074 649.02 50.7803 649.052L72.7841 657.857C73.034 657.951 73.1901 658.19 73.1901 658.461V674.084V674.074Z" fill="#EBF29D"/>
<path d="M49.5451 602.592C22.2225 602.592 0 580.359 0 553.047C0 525.735 22.2329 503.502 49.5451 503.502C76.8574 503.502 99.0902 525.735 99.0902 553.047C99.0902 580.359 76.8574 602.592 49.5451 602.592ZM49.5451 506.801C24.044 506.801 3.29958 527.546 3.29958 553.047C3.29958 578.548 24.044 599.293 49.5451 599.293C75.0463 599.293 95.7907 578.548 95.7907 553.047C95.7907 527.546 75.0463 506.801 49.5451 506.801Z" fill="white"/>
<path d="M65.6156 522.102C65.3658 522.102 65.116 522.05 64.887 521.935C60.0886 519.562 54.926 518.355 49.5447 518.355C44.1634 518.355 39.0008 519.562 34.2024 521.935C33.5675 522.248 32.8076 522.123 32.308 521.623L23.7938 513.109C23.4295 512.744 23.2629 512.245 23.3254 511.735C23.3878 511.225 23.6793 510.777 24.1164 510.517C31.7876 505.916 40.5829 503.491 49.5551 503.491C58.5274 503.491 67.3227 505.927 74.9938 510.517C75.431 510.777 75.7224 511.225 75.7848 511.735C75.8473 512.245 75.6704 512.744 75.3165 513.109L66.8022 521.623C66.4795 521.935 66.0632 522.102 65.6261 522.102H65.6156ZM49.5447 515.055C55.0301 515.055 60.3176 516.2 65.2721 518.459L71.434 512.297C64.7309 508.685 57.2055 506.791 49.5447 506.791C41.884 506.791 34.3585 508.685 27.6553 512.297L33.8173 518.459C38.7718 516.2 44.0594 515.055 49.5447 515.055Z" fill="white"/>
<path d="M49.5429 602.592C40.5707 602.592 31.7754 600.156 24.1042 595.566C23.667 595.306 23.3756 594.858 23.3131 594.348C23.2507 593.838 23.4276 593.339 23.7815 592.974L32.2958 584.46C32.7954 583.96 33.5657 583.836 34.1902 584.148C38.9886 586.521 44.1512 587.728 49.5325 587.728C54.9138 587.728 60.0764 586.521 64.8748 584.148C65.5097 583.836 66.2696 583.96 66.7692 584.46L75.2835 592.974C75.6478 593.339 75.8143 593.838 75.7519 594.348C75.6894 594.858 75.398 595.306 74.9608 595.566C67.2896 600.167 58.4943 602.592 49.5221 602.592H49.5429ZM27.6535 593.786C34.3567 597.398 41.8822 599.292 49.5429 599.292C57.2037 599.292 64.7291 597.398 71.4322 593.786L65.2704 587.624C60.3158 589.883 55.0283 591.028 49.5429 591.028C44.0576 591.028 38.77 589.883 33.8155 587.624L27.6535 593.786Z" fill="white"/>
<path d="M90.6508 579.276C90.2136 579.276 89.7973 579.11 89.485 578.798L80.9708 570.283C80.4712 569.784 80.3463 569.013 80.6585 568.389C83.0317 563.591 84.239 558.428 84.239 553.047C84.239 547.665 83.0317 542.503 80.6585 537.704C80.3463 537.069 80.4712 536.299 80.9708 535.81L89.485 527.296C89.8493 526.931 90.349 526.765 90.859 526.827C91.369 526.89 91.8166 527.181 92.0768 527.618C96.6774 535.29 99.1026 544.085 99.1026 553.057C99.1026 562.029 96.6774 570.825 92.0768 578.496C91.8166 578.933 91.369 579.224 90.859 579.287C90.7861 579.287 90.7237 579.287 90.6508 579.287V579.276ZM84.1246 568.764L90.2865 574.926C93.8983 568.222 95.7927 560.697 95.7927 553.036C95.7927 545.375 93.8983 537.85 90.2865 531.147L84.1246 537.309C86.3832 542.263 87.5282 547.551 87.5282 553.036C87.5282 558.522 86.3832 563.809 84.1246 568.764Z" fill="white"/>
<path d="M8.44145 579.276C8.36859 579.276 8.30614 579.276 8.24369 579.266C7.73366 579.203 7.28605 578.912 7.02583 578.475C2.42521 570.804 0 562.008 0 553.036C0 544.064 2.42521 535.269 7.02583 527.597C7.28605 527.16 7.73366 526.869 8.24369 526.806C8.75371 526.744 9.25333 526.921 9.61763 527.275L18.1319 535.789C18.6315 536.289 18.7564 537.059 18.4441 537.683C16.071 542.482 14.8636 547.644 14.8636 553.026C14.8636 558.407 16.071 563.57 18.4441 568.368C18.7564 569.003 18.6315 569.773 18.1319 570.262L9.61763 578.777C9.30537 579.089 8.88897 579.266 8.45181 579.266L8.44145 579.276ZM8.80573 531.147C5.19393 537.85 3.29958 545.375 3.29958 553.036C3.29958 560.697 5.19393 568.222 8.80573 574.925L14.9676 568.764C12.709 563.809 11.564 558.521 11.564 553.036C11.564 547.551 12.709 542.263 14.9676 537.309L8.80573 531.147Z" fill="white"/>
<path d="M49.5462 515.056C28.604 515.056 11.5547 532.095 11.5547 553.047C11.5547 574 28.5936 591.039 49.5462 591.039C70.4988 591.039 87.5377 574 87.5377 553.047C87.5377 532.095 70.4988 515.056 49.5462 515.056ZM70.9255 540.567C72.7262 543.648 73.8191 547.01 74.173 550.58C74.1834 550.726 74.121 550.861 73.9961 550.934C71.2794 552.6 68.8438 554.64 66.7412 557.023C66.6475 557.138 66.4914 557.179 66.3561 557.127L61.6619 555.597C61.5266 555.556 61.4328 555.441 61.412 555.295C60.8812 551.413 59.6738 547.697 57.8211 544.242C57.7586 544.117 57.769 543.971 57.8523 543.856L60.7563 539.859C60.8291 539.766 60.9437 539.703 61.0582 539.703C61.0894 539.703 61.1102 539.703 61.1414 539.703C64.2432 540.39 67.4282 540.619 70.5924 540.359C70.7382 540.349 70.8735 540.421 70.9464 540.546L70.9255 540.567ZM58.8515 555.951C58.8619 556.055 58.8307 556.159 58.7682 556.232C56.3014 559.074 53.158 561.353 49.6919 562.81C49.5983 562.852 49.5046 562.852 49.4109 562.81C45.9448 561.343 42.8014 559.063 40.3345 556.232C40.2721 556.159 40.2409 556.055 40.2513 555.951C40.7301 552.183 41.9062 548.582 43.7277 545.251C43.7798 545.157 43.8631 545.095 43.9672 545.074C45.7991 544.689 47.6727 544.491 49.5566 544.491C51.4406 544.491 53.3141 544.689 55.1461 545.074C55.2501 545.095 55.3334 545.157 55.3854 545.251C57.2069 548.582 58.3727 552.183 58.8619 555.951H58.8515ZM58.2894 530.117C58.2894 530.117 58.4144 530.013 58.5393 530.013C58.5809 530.013 58.6329 530.013 58.685 530.044C62.5153 531.564 65.9398 534.062 68.6044 537.257C68.7397 537.413 68.6877 537.58 68.6564 537.642C68.6356 537.694 68.5419 537.861 68.3234 537.861C65.9606 537.892 63.6083 537.622 61.3288 537.08C61.2351 537.06 61.1518 536.997 61.0998 536.914C59.882 534.905 58.9036 532.74 58.1958 530.492C58.1333 530.294 58.2478 530.159 58.2998 530.117H58.2894ZM44.2899 528.868C47.7351 528.129 51.3677 528.129 54.813 528.868C54.9483 528.899 55.0627 529.003 55.094 529.139C55.833 532.23 57.03 535.186 58.6433 537.923C58.7162 538.048 58.7058 538.205 58.6225 538.329L55.7394 542.305C55.6561 542.42 55.5103 542.482 55.375 542.451C51.5655 541.681 47.5373 541.681 43.7277 542.451C43.5924 542.482 43.4467 542.42 43.3635 542.305L40.4803 538.329C40.397 538.215 40.3866 538.048 40.4594 537.923C42.0728 535.186 43.2698 532.23 44.0088 529.139C44.04 529.003 44.1545 528.899 44.2899 528.868ZM30.4984 537.257C33.163 534.051 36.5874 531.553 40.4178 530.044C40.4699 530.023 40.5219 530.013 40.5635 530.013C40.6989 530.013 40.7821 530.086 40.8133 530.117C40.8654 530.169 40.9799 530.294 40.9174 530.492C40.2096 532.75 39.2312 534.905 38.0134 536.914C37.9614 536.997 37.8781 537.06 37.7845 537.08C35.505 537.622 33.1526 537.892 30.7898 537.861C30.5712 537.861 30.4776 537.694 30.4567 537.642C30.4255 537.58 30.3735 537.413 30.5088 537.257H30.4984ZM28.1772 540.567C28.2397 540.453 28.3646 540.38 28.4999 540.38C28.4999 540.38 28.5208 540.38 28.5312 540.38C31.7058 540.63 34.8909 540.411 37.9822 539.724C38.1279 539.693 38.2737 539.745 38.3569 539.87L41.2609 543.867C41.3442 543.981 41.3546 544.137 41.2922 544.252C39.4394 547.708 38.232 551.423 37.7012 555.306C37.6804 555.441 37.5867 555.556 37.4514 555.608L32.7571 557.138C32.6218 557.179 32.4656 557.138 32.372 557.034C30.2694 554.65 27.8338 552.61 25.1171 550.945C25.0026 550.872 24.9298 550.736 24.9402 550.591C25.2941 547.021 26.387 543.648 28.1877 540.578L28.1772 540.567ZM29.3118 566.214C29.2494 566.412 29.0724 566.454 28.9996 566.464C28.9267 566.464 28.7601 566.464 28.6456 566.297C26.4286 562.811 25.1171 558.772 24.8569 554.629C24.8465 554.421 24.9818 554.317 25.0442 554.286C25.1067 554.255 25.2732 554.182 25.4398 554.307C27.3654 555.67 29.114 557.273 30.6441 559.053C30.7065 559.126 30.7378 559.22 30.7274 559.324C30.54 561.666 30.0612 563.987 29.3014 566.225L29.3118 566.214ZM39.5956 575.717C36.3481 574.291 33.4856 572.199 31.0917 569.514C30.998 569.41 30.9668 569.253 31.0188 569.129C32.2367 566.193 33.0068 563.102 33.3087 559.938C33.3191 559.792 33.4232 559.667 33.5586 559.625L38.2008 558.116C38.2008 558.116 38.2736 558.095 38.3152 558.095C38.4193 558.095 38.513 558.137 38.5859 558.22C41.188 561.135 44.4459 563.508 48.0161 565.08C48.1514 565.142 48.2347 565.267 48.2347 565.413V570.294C48.2347 570.44 48.1514 570.575 48.0161 570.627C45.1017 571.887 42.3955 573.583 39.9702 575.655C39.8662 575.748 39.71 575.769 39.5851 575.707L39.5956 575.717ZM55.9683 576.748C55.9579 576.821 55.9059 576.987 55.6977 577.039C51.6799 578.059 47.4332 578.059 43.4155 577.039C43.2177 576.987 43.1553 576.821 43.1449 576.748C43.1345 576.675 43.1137 576.508 43.2906 576.373C45.185 574.968 47.2459 573.792 49.4213 572.886C49.515 572.844 49.6086 572.844 49.7023 572.886C51.8673 573.792 53.9282 574.968 55.833 576.373C55.9995 576.498 55.9891 576.675 55.9787 576.748H55.9683ZM68.032 569.524C65.638 572.209 62.7755 574.291 59.528 575.717C59.3927 575.78 59.247 575.748 59.1429 575.665C56.7177 573.594 54.0219 571.897 51.0971 570.638C50.9618 570.575 50.8785 570.45 50.8785 570.305V565.423C50.8785 565.277 50.9618 565.142 51.0971 565.09C54.6672 563.518 57.9356 561.145 60.5273 558.231C60.6002 558.147 60.6939 558.106 60.7979 558.106C60.8396 558.106 60.8708 558.106 60.9124 558.127L65.5547 559.636C65.69 559.678 65.7941 559.802 65.8045 559.948C66.1063 563.112 66.8766 566.193 68.0944 569.139C68.1464 569.264 68.1256 569.42 68.0215 569.524H68.032ZM70.4675 566.308C70.353 566.485 70.1761 566.485 70.1137 566.474C70.0408 566.474 69.8742 566.422 69.8014 566.225C69.0519 563.987 68.5732 561.666 68.3754 559.324C68.3754 559.23 68.3962 559.126 68.4587 559.053C69.9887 557.273 71.7374 555.681 73.663 554.307C73.7359 554.255 73.8087 554.234 73.8712 554.234C73.9544 554.234 74.0169 554.265 74.0585 554.286C74.121 554.317 74.2667 554.421 74.2459 554.629C73.9857 558.772 72.6742 562.811 70.4571 566.297L70.4675 566.308Z" fill="white"/>
<path d="M50.5529 476.424C37.8544 476.424 25.1663 471.595 15.4966 461.925C-3.83221 442.596 -3.83221 411.152 15.4966 391.823C24.8644 382.455 37.3131 377.303 50.5529 377.303C63.7927 377.303 76.2414 382.455 85.6092 391.823C104.938 411.152 104.938 442.596 85.6092 461.925C75.95 471.584 63.2514 476.424 50.5529 476.424ZM18.0988 459.323C35.9912 477.215 65.1042 477.215 82.9966 459.323C100.889 441.43 100.889 412.317 82.9966 394.425C74.3262 385.755 62.8039 380.987 50.5425 380.987C38.2811 380.987 26.7588 385.765 18.0884 394.425C0.195922 412.317 0.195922 441.43 18.0884 459.323H18.0988Z" fill="#EBF29D"/>
<path d="M49.8972 445.428C50.0742 445.855 50.4905 446.104 50.9277 446.104C51.0734 446.104 51.2192 446.073 51.3649 446.021C54.8622 444.554 58.0472 442.285 60.5661 439.453C60.972 438.995 60.9304 438.288 60.4724 437.882C60.0145 437.476 59.3067 437.517 58.9007 437.975C56.6004 440.567 53.6964 442.638 50.501 443.971C49.9389 444.21 49.6683 444.866 49.9077 445.428H49.8972Z" fill="#EBF29D"/>
<path d="M69.443 409.737L50.9573 402.347C50.6866 402.243 50.3952 402.243 50.1246 402.347L31.6388 409.737C31.2121 409.903 30.9414 410.309 30.9414 410.767V424.007C30.9622 436.227 38.6855 447.27 50.1558 451.475C50.2807 451.517 50.4056 451.538 50.5409 451.538C50.6762 451.538 50.8011 451.517 50.926 451.475C62.3963 447.26 70.1195 436.227 70.1404 424.007V410.767C70.1404 410.309 69.8698 409.903 69.443 409.737ZM67.9129 424.007C67.8921 435.123 60.9183 445.251 50.5513 449.238C40.1843 445.251 33.2001 435.123 33.1793 424.007V411.527L50.5513 404.585L67.9129 411.527V424.007Z" fill="#EBF29D"/>
<path d="M42.8288 411.475C42.5581 411.36 42.2563 411.36 41.9753 411.475L37.5724 413.234C37.1457 413.4 36.875 413.806 36.875 414.264V418.958C36.875 419.572 37.3746 420.072 37.9887 420.072C38.6028 420.072 39.1025 419.572 39.1025 418.958V415.024L42.7975 413.546C43.0785 413.431 43.2867 413.223 43.4117 412.942C43.5261 412.672 43.5261 412.37 43.4117 412.089C43.2972 411.808 43.089 411.599 42.8184 411.475H42.8288Z" fill="#EBF29D"/>
<path d="M78.6962 398.724C71.1812 391.199 61.1785 387.066 50.5409 387.066C39.9033 387.066 29.911 391.209 22.3855 398.724C6.86628 414.243 6.86628 439.505 22.3855 455.035C30.1504 462.8 40.3404 466.672 50.5409 466.672C60.7414 466.672 70.9314 462.789 78.6962 455.035C94.2155 439.516 94.2155 414.254 78.6962 398.724ZM73.1901 424.007C73.2213 438.131 64.197 450.486 50.7387 454.764C50.6138 454.806 50.4784 454.806 50.3431 454.764C36.8848 450.486 27.8605 438.131 27.8917 424.007V408.383C27.8917 408.123 28.0478 407.884 28.2976 407.78L50.3015 398.984C50.3744 398.953 50.4576 398.943 50.5409 398.943C50.6242 398.943 50.7074 398.953 50.7803 398.984L72.7841 407.79C73.034 407.884 73.1901 408.123 73.1901 408.394V424.017V424.007Z" fill="#EBF29D"/>
<path d="M50.967 354.112C23.6444 354.112 1.42188 331.879 1.42188 304.567C1.42188 277.254 23.6548 255.021 50.967 255.021C78.2793 255.021 100.512 277.254 100.512 304.567C100.512 331.879 78.2793 354.112 50.967 354.112ZM50.967 258.321C25.4659 258.321 4.7214 279.065 4.7214 304.567C4.7214 330.068 25.4659 350.812 50.967 350.812C76.4682 350.812 97.2126 330.068 97.2126 304.567C97.2126 279.065 76.4682 258.321 50.967 258.321Z" fill="#11F8A5"/>
<path d="M83.2875 269.219L67.9492 284.558L70.9669 287.575L86.3051 272.237L83.2875 269.219Z" fill="#11F8A5"/>
<path d="M30.4945 322.011L15.1562 337.35L18.1738 340.367L33.5121 325.029L30.4945 322.011Z" fill="#11F8A5"/>
<path d="M71.4317 322.026L68.4141 325.044L83.7523 340.382L86.7699 337.365L71.4317 322.026Z" fill="#11F8A5"/>
<path d="M18.1699 268.758L15.1523 271.775L30.4833 287.106L33.5009 284.089L18.1699 268.758Z" fill="#11F8A5"/>
<path d="M63.0511 305.899C64.0503 304.899 64.0503 303.286 63.0511 302.297L60.9277 300.184C59.9285 299.185 58.3152 299.185 57.3264 300.184L56.1814 301.329L54.8595 300.007C53.8603 299.008 52.2469 299.008 51.2581 300.007L50.1132 301.163L48.7913 299.83C47.792 298.831 46.1787 298.831 45.1899 299.83L38.164 306.856C38.112 306.908 38.112 306.992 38.164 307.054C39.1008 307.991 40.6309 307.991 41.5781 307.054L46.1058 302.526C46.595 302.037 47.3861 302.037 47.8753 302.526L48.2084 302.859C48.2708 302.922 48.2708 303.016 48.2084 303.078L44.4301 306.856C44.378 306.908 44.378 306.992 44.4301 307.054C45.3668 307.991 46.8969 307.991 47.8441 307.054L52.1845 302.714C52.6737 302.224 53.4648 302.224 53.954 302.714L54.2871 303.047C54.3391 303.099 54.3391 303.182 54.2871 303.245L50.644 306.888C50.592 306.94 50.592 307.023 50.644 307.085C51.5808 308.022 53.1109 308.022 54.058 307.085L58.2527 302.891C58.742 302.401 59.533 302.401 60.0222 302.891L60.7404 303.609C61.0214 303.89 61.0214 304.358 60.7404 304.639L60.6259 304.754C60.3449 305.035 59.8765 305.035 59.5954 304.754L58.6691 303.827C58.617 303.775 58.5337 303.775 58.4713 303.827L56.8684 305.43C56.8163 305.482 56.8163 305.566 56.8684 305.628L58.3152 307.075C59.3144 308.074 60.9277 308.074 61.9165 307.075L63.0615 305.93L63.0511 305.899Z" fill="#11F8A5"/>
<path d="M50.9681 266.575C29.9843 266.575 12.9766 283.583 12.9766 304.567C12.9766 325.551 29.9843 342.558 50.9681 342.558C71.9519 342.558 88.9596 325.551 88.9596 304.567C88.9596 283.583 71.9519 266.575 50.9681 266.575ZM52.519 278.306C58.6184 278.66 64.1558 281.095 68.4442 284.905L62.9588 290.39C60.0964 287.965 56.4846 286.393 52.519 286.06V278.306ZM49.4276 278.306V286.06C45.4619 286.383 41.8501 287.965 38.9877 290.39L33.5024 284.905C37.7907 281.095 43.3281 278.66 49.4276 278.306ZM31.3166 287.091L36.8019 292.576C34.3767 295.438 32.805 299.05 32.4719 303.016H24.7175C25.0714 296.916 27.507 291.379 31.3166 287.091ZM24.7175 306.107H32.4719C32.7946 310.073 34.3767 313.685 36.8019 316.547L31.3166 322.032C27.507 317.744 25.0714 312.207 24.7175 306.107ZM49.4276 330.817C43.3281 330.463 37.7907 328.028 33.5024 324.218L38.9877 318.733C41.8501 321.158 45.4619 322.73 49.4276 323.063V330.817ZM35.0012 304.556C35.0012 295.74 42.152 288.589 50.9681 288.589C59.7842 288.589 66.9349 295.74 66.9349 304.556C66.9349 313.372 59.7842 320.523 50.9681 320.523C42.152 320.523 35.0012 313.372 35.0012 304.556ZM52.519 330.817V323.063C56.4846 322.74 60.0964 321.158 62.9588 318.733L68.4442 324.218C64.1558 328.028 58.6184 330.463 52.519 330.817ZM70.6299 322.032L65.1446 316.547C67.5698 313.685 69.1415 310.073 69.4746 306.107H77.229C76.8752 312.207 74.4395 317.744 70.6299 322.032ZM69.4746 303.016C69.1519 299.05 67.5698 295.438 65.1446 292.576L70.6299 287.091C74.4395 291.379 76.8752 296.916 77.229 303.016H69.4746Z" fill="#11F8A5"/>
<path d="M16.0587 209.751C-3.43102 190.261 -3.43102 158.552 16.0587 139.063C35.5484 119.573 67.2571 119.573 86.7468 139.063C106.237 158.552 106.237 190.261 86.7468 209.751C67.2571 229.241 35.5484 229.241 16.0587 209.751ZM84.3912 141.418C66.2002 123.227 36.6054 123.227 18.4191 141.418C0.228029 159.609 0.228029 189.204 18.4191 207.39C36.6101 225.581 66.2049 225.581 84.3912 207.39C102.582 189.199 102.582 159.605 84.3912 141.418Z" fill="white"/>
<path d="M84.9346 163.804C84.7592 163.629 84.617 163.406 84.5365 163.16C82.8065 158.041 79.9816 153.505 76.1424 149.666C72.308 145.831 67.7673 143.007 62.6484 141.272C61.9706 141.04 61.5156 140.409 61.5156 139.694V127.546C61.5156 127.034 61.7526 126.55 62.1555 126.233C62.5631 125.915 63.0892 125.806 63.5821 125.929C72.3317 128.119 80.3418 132.66 86.7404 139.063C93.139 145.466 97.6797 153.472 99.8695 162.221C99.9927 162.719 99.8789 163.245 99.5661 163.653C99.2485 164.06 98.7651 164.293 98.2532 164.293H86.1053C85.6503 164.293 85.2332 164.108 84.9251 163.8L84.9346 163.804ZM78.498 147.31C82.413 151.225 85.3659 155.813 87.2902 160.961H96.0777C93.869 153.605 89.8544 146.884 84.3895 141.419C78.9246 135.954 72.2037 131.939 64.8524 129.735V138.523C69.9997 140.442 74.5878 143.395 78.5028 147.315L78.498 147.31Z" fill="white"/>
<path d="M16.0575 209.751C9.6589 203.353 5.1135 195.342 2.92375 186.593C2.80051 186.095 2.91428 185.569 3.2271 185.166C3.54466 184.759 4.02809 184.526 4.53998 184.526H16.6879C17.4036 184.526 18.0387 184.981 18.2662 185.659C19.9962 190.778 22.8211 195.314 26.6602 199.153C30.4947 202.988 35.0354 205.812 40.1543 207.547C40.832 207.775 41.287 208.41 41.287 209.126V221.273C41.287 221.785 41.05 222.269 40.6472 222.586C40.2395 222.904 39.7134 223.013 39.2158 222.89C30.4662 220.7 22.4609 216.159 16.0575 209.761V209.751ZM6.72501 187.854C8.93372 195.21 12.9482 201.931 18.4131 207.396C23.878 212.86 30.599 216.875 37.955 219.084V210.296C32.8077 208.377 28.2196 205.424 24.3046 201.509C20.3896 197.594 17.4368 193.006 15.5124 187.858H6.72501V187.854Z" fill="white"/>
<path d="M62.0038 222.444C61.691 222.131 61.5156 221.709 61.5156 221.264V209.116C61.5156 208.4 61.9706 207.765 62.6484 207.537C67.7673 205.807 72.3032 202.983 76.1424 199.143C79.9816 195.304 82.8017 190.768 84.5364 185.649C84.7639 184.972 85.3991 184.517 86.1148 184.517H98.2627C98.7746 184.517 99.258 184.754 99.5756 185.156C99.8931 185.559 100.002 186.09 99.8789 186.583C97.6844 195.333 93.1438 203.338 86.7451 209.741C80.3465 216.145 72.3364 220.685 63.5869 222.875C63.0892 222.998 62.5631 222.885 62.1602 222.572C62.1081 222.524 62.056 222.482 62.0086 222.434L62.0038 222.444ZM64.8477 210.291V219.079C72.2037 216.87 78.9246 212.855 84.3895 207.39C89.8544 201.926 93.8642 195.205 96.0777 187.849H87.2902C85.3706 192.996 82.4178 197.579 78.498 201.499C74.583 205.414 69.995 208.372 64.8477 210.291Z" fill="white"/>
<path d="M3.36054 163.805C3.31314 163.757 3.26576 163.705 3.22784 163.653C2.91028 163.25 2.80126 162.719 2.92449 162.222C5.11424 153.472 9.6549 145.462 16.0583 139.063C22.4616 132.665 30.467 128.119 39.2165 125.93C39.7142 125.806 40.2403 125.92 40.6432 126.233C41.046 126.551 41.2831 127.034 41.2831 127.546V139.694C41.2831 140.409 40.828 141.045 40.1503 141.272C35.0314 143.002 30.4954 145.827 26.6562 149.666C22.8218 153.501 19.997 158.041 18.2622 163.16C18.0347 163.838 17.3996 164.293 16.6839 164.293H4.53601C4.09047 164.293 3.66388 164.118 3.35579 163.809L3.36054 163.805ZM37.951 129.736C30.595 131.944 23.874 135.959 18.4091 141.424C12.9442 146.889 8.93446 153.61 6.72101 160.966H15.5084C17.428 155.818 20.3809 151.235 24.3006 147.315C28.2156 143.4 32.8037 140.447 37.951 138.523V129.736Z" fill="white"/>
<path d="M78.502 147.31C63.5624 132.37 39.2476 132.366 24.308 147.31C9.3637 162.254 9.36844 186.564 24.308 201.504C39.2476 216.444 63.5576 216.448 78.502 201.504C93.4463 186.56 93.4416 162.25 78.502 147.31Z" fill="white"/>
<path d="M65.2211 188.084L37.6934 188.266C36.5338 188.274 35.6 189.22 35.6077 190.38L35.6142 191.361C35.6219 192.521 36.5682 193.454 37.7278 193.447L65.2554 193.264C66.415 193.256 67.3489 192.31 67.3412 191.151L67.3347 190.169C67.327 189.01 66.3807 188.076 65.2211 188.084Z" fill="#191D0A"/>
<path d="M41.4437 171.468C41.1451 171.468 40.8418 171.402 40.5669 171.269L38.4198 170.231C37.4861 169.776 37.0595 168.672 37.4481 167.71L38.434 165.254C38.7374 164.506 39.4531 164.017 40.2588 164.013C40.6048 164.013 40.9461 164.098 41.2494 164.273L43.8089 165.733C44.2876 166.003 44.6336 166.473 44.7568 167.013C44.88 167.553 44.771 168.122 44.4582 168.577L43.0553 170.61C42.6903 171.141 42.0836 171.464 41.439 171.464L41.4437 171.468Z" fill="#191D0A"/>
<path d="M61.2625 171.335C60.6179 171.335 60.0065 171.027 59.6368 170.501L58.248 168.543C57.9257 168.093 57.812 167.524 57.9258 166.984C58.0395 166.444 58.3808 165.97 58.8595 165.69L61.4995 164.14C61.7981 163.965 62.1394 163.87 62.4854 163.865C63.2911 163.861 64.0163 164.339 64.3291 165.083L65.3245 167.467C65.7226 168.425 65.3103 169.539 64.386 170.003L62.1394 171.127C61.8692 171.259 61.5658 171.335 61.2672 171.335H61.2625Z" fill="#191D0A"/>
<path d="M39.2812 186.426C38.0725 186.436 36.9872 185.678 36.5748 184.54L31.982 171.899C31.6882 172.041 31.3753 172.15 31.0578 172.231C30.6833 172.326 30.3041 172.373 29.9202 172.373C29.6975 172.373 29.4794 172.364 29.2661 172.335C26.8726 172.032 25.0573 169.98 25.0431 167.562C25.0241 164.889 27.1854 162.699 29.8586 162.68C32.5318 162.661 34.7216 164.823 34.7358 167.496C34.7358 168.112 34.6315 168.705 34.4135 169.259C34.295 169.563 34.1481 169.852 33.9775 170.127L42.7127 174.354L49.3958 164.671C49.1161 164.553 48.8459 164.406 48.59 164.23C48.1065 163.903 47.6847 163.496 47.3434 163.017C46.7652 162.202 46.4524 161.24 46.4476 160.244C46.4287 157.571 48.59 155.381 51.2632 155.362C51.3817 155.362 51.5049 155.362 51.6234 155.372C54.017 155.533 55.9508 157.453 56.1261 159.846C56.2067 160.979 55.9081 162.064 55.2635 162.989C54.9223 163.472 54.5051 163.884 54.0264 164.211C53.7752 164.387 53.5051 164.534 53.2254 164.652L60.0269 174.236L68.62 169.937C68.4589 169.629 68.3309 169.307 68.2362 168.97C68.1224 168.562 68.0608 168.136 68.0608 167.705C68.0608 167.51 68.0702 167.316 68.0892 167.126C68.3641 164.69 70.4211 162.842 72.8716 162.827C75.5448 162.808 77.7345 164.97 77.7487 167.643C77.7677 170.193 75.7865 172.335 73.2413 172.511L72.9379 172.52C72.445 172.52 71.9616 172.454 71.4923 172.312C71.189 172.217 70.8951 172.098 70.6202 171.947L66.3071 184.341C65.9137 185.483 64.833 186.251 63.6244 186.261L39.2812 186.422V186.426Z" fill="#191D0A"/>
<path d="M100.982 53.5308V173.126C100.982 174.115 100.18 174.906 99.2017 174.906C98.2233 174.906 97.4219 174.105 97.4219 173.126V53.5308C97.4219 52.542 98.2233 51.751 99.2017 51.751C100.18 51.751 100.982 52.5524 100.982 53.5308Z" fill="white"/>
<path d="M5.43864 53.2711V172.866C5.43864 173.855 4.63722 174.646 3.65881 174.646C2.68039 174.646 1.87891 173.845 1.87891 172.866V53.2711C1.87891 52.2823 2.68039 51.4912 3.65881 51.4912C4.63722 51.4912 5.43864 52.2927 5.43864 53.2711Z" fill="white"/>
</g>
<defs>
<filter id="filter0_i_294_852" x="2.25781" y="0" width="99.1094" height="55.4912" filterUnits="userSpaceOnUse" color-interpolation-filters="sRGB">
<feFlood flood-opacity="0" result="BackgroundImageFix"/>
<feBlend mode="normal" in="SourceGraphic" in2="BackgroundImageFix" result="shape"/>
<feColorMatrix in="SourceAlpha" type="matrix" values="0 0 0 0 0 0 0 0 0 0 0 0 0 0 0 0 0 0 127 0" result="hardAlpha"/>
<feOffset dy="4"/>
<feGaussianBlur stdDeviation="2"/>
<feComposite in2="hardAlpha" operator="arithmetic" k2="-1" k3="1"/>
<feColorMatrix type="matrix" values="0 0 0 0 0 0 0 0 0 0 0 0 0 0 0 0 0 0 0.25 0"/>
<feBlend mode="normal" in2="shape" result="effect1_innerShadow_294_852"/>
</filter>
</defs>
</svg>
