<svg width="666" height="50" viewBox="0 0 666 50" fill="none" xmlns="http://www.w3.org/2000/svg">
<path d="M23.1024 0.00940339C23.5633 0.00940339 23.9319 0.405418 23.9319 0.889432C23.9318 1.37295 23.5581 1.76926 23.1021 1.76916C11.2839 1.76678 1.66634 11.9642 1.66406 24.4998C1.66178 37.0353 11.2756 47.2367 23.0938 47.2391C23.5547 47.2392 24.0001 47.6638 24 48.1475C23.9999 48.6313 23.5496 48.9991 23.0935 48.999C10.3583 48.9964 -0.00245215 38.0025 4.3534e-07 24.4943C0.00245301 10.9861 10.3672 -0.00344897 23.1024 -0.000976992V0.00940339Z" fill="#A8A3A3" fill-opacity="0.58"/>
<g opacity="0.4">
<path d="M641.225 49.6159C634.948 49.6159 628.676 47.2287 623.896 42.4489C614.342 32.8944 614.342 17.351 623.896 7.79657C628.527 3.16597 634.68 0.619141 641.225 0.619141C647.77 0.619141 653.923 3.16597 658.554 7.79657C668.108 17.351 668.108 32.8944 658.554 42.4489C653.779 47.2235 647.502 49.6159 641.225 49.6159ZM625.183 41.1626C634.027 50.007 648.418 50.007 657.262 41.1626C666.107 32.3181 666.107 17.9273 657.262 9.08284C652.976 4.79697 647.281 2.44053 641.22 2.44053C635.159 2.44053 629.463 4.80212 625.177 9.08284C616.333 17.9273 616.333 32.3181 625.177 41.1626H625.183Z" fill="#EBF29D"/>
<path d="M640.901 34.2891C640.989 34.5 641.195 34.6235 641.411 34.6235C641.483 34.6235 641.555 34.608 641.627 34.5823C643.356 33.8569 644.93 32.7352 646.175 31.3357C646.376 31.1093 646.355 30.7595 646.129 30.5589C645.902 30.3582 645.552 30.3788 645.352 30.6052C644.215 31.8863 642.779 32.9102 641.2 33.5687C640.922 33.6871 640.788 34.0112 640.906 34.2891H640.901Z" fill="#EBF29D"/>
<path d="M650.563 16.6516L641.425 12.9985C641.292 12.9471 641.147 12.9471 641.014 12.9985L631.876 16.6516C631.665 16.7339 631.531 16.9346 631.531 17.161V23.7055C631.542 29.7459 635.359 35.2048 641.029 37.2834C641.091 37.304 641.153 37.3143 641.219 37.3143C641.286 37.3143 641.348 37.304 641.41 37.2834C647.08 35.1997 650.897 29.7459 650.908 23.7055V17.161C650.908 16.9346 650.774 16.7339 650.563 16.6516ZM649.807 23.7055C649.796 29.2005 646.349 34.2067 641.225 36.1772C636.1 34.2067 632.648 29.2005 632.637 23.7055V17.5365L641.225 14.1048L649.807 17.5365V23.7055Z" fill="#EBF29D"/>
<path d="M637.404 17.5112C637.27 17.4546 637.121 17.4546 636.982 17.5112L634.806 18.3808C634.595 18.4631 634.461 18.6637 634.461 18.8901V21.2106C634.461 21.5141 634.708 21.7611 635.011 21.7611C635.315 21.7611 635.562 21.5141 635.562 21.2106V19.2657L637.389 18.5351C637.527 18.4785 637.63 18.3756 637.692 18.2367C637.749 18.1029 637.749 17.9537 637.692 17.8148C637.635 17.6759 637.533 17.5729 637.399 17.5112H637.404Z" fill="#EBF29D"/>
<path d="M655.135 11.2078C651.421 7.48792 646.476 5.44531 641.218 5.44531C635.96 5.44531 631.02 7.49307 627.3 11.2078C619.629 18.8792 619.629 31.3664 627.3 39.0429C631.139 42.8811 636.176 44.795 641.218 44.795C646.26 44.795 651.297 42.876 655.135 39.0429C662.807 31.3715 662.807 18.8843 655.135 11.2078ZM652.414 23.7053C652.429 30.6872 647.968 36.7944 641.316 38.9091C641.254 38.9297 641.187 38.9297 641.12 38.9091C634.468 36.7944 630.007 30.6872 630.022 23.7053V15.9825C630.022 15.8538 630.099 15.7355 630.223 15.6841L641.1 11.3365C641.136 11.321 641.177 11.3159 641.218 11.3159C641.259 11.3159 641.3 11.321 641.336 11.3365L652.213 15.6892C652.336 15.7355 652.414 15.8538 652.414 15.9876V23.7104V23.7053Z" fill="#EBF29D"/>
<path d="M578.643 49.5361C565.137 49.5361 554.152 38.5461 554.152 25.0454C554.152 11.5446 565.142 0.554688 578.643 0.554688C592.144 0.554688 603.134 11.5446 603.134 25.0454C603.134 38.5461 592.144 49.5361 578.643 49.5361ZM578.643 2.18568C566.038 2.18568 555.783 12.4399 555.783 25.0454C555.783 37.6509 566.038 47.905 578.643 47.905C591.249 47.905 601.503 37.6509 601.503 25.0454C601.503 12.4399 591.249 2.18568 578.643 2.18568Z" fill="white"/>
<path d="M586.587 9.74925C586.463 9.74925 586.34 9.72354 586.227 9.66694C583.855 8.49386 581.303 7.89702 578.643 7.89702C575.983 7.89702 573.431 8.49386 571.059 9.66694C570.745 9.82129 570.369 9.75953 570.122 9.51256L565.914 5.30387C565.734 5.12379 565.651 4.87683 565.682 4.62472C565.713 4.37261 565.857 4.15138 566.073 4.02275C569.865 1.74861 574.213 0.549805 578.648 0.549805C583.083 0.549805 587.43 1.75376 591.222 4.02275C591.439 4.15138 591.583 4.37261 591.613 4.62472C591.644 4.87683 591.557 5.12379 591.382 5.30387L587.173 9.51256C587.014 9.66692 586.808 9.74925 586.592 9.74925H586.587ZM578.643 6.266C581.354 6.266 583.968 6.83198 586.417 7.94846L589.463 4.90257C586.149 3.11722 582.429 2.18079 578.643 2.18079C574.856 2.18079 571.136 3.11722 567.822 4.90257L570.868 7.94846C573.317 6.83198 575.931 6.266 578.643 6.266Z" fill="white"/>
<path d="M578.644 49.5363C574.209 49.5363 569.861 48.3323 566.069 46.0633C565.853 45.9347 565.709 45.7134 565.678 45.4613C565.647 45.2092 565.735 44.9623 565.91 44.7822L570.118 40.5735C570.365 40.3265 570.746 40.2648 571.055 40.4191C573.427 41.5922 575.978 42.189 578.638 42.189C581.299 42.189 583.85 41.5922 586.222 40.4191C586.536 40.2648 586.912 40.3265 587.159 40.5735L591.367 44.7822C591.548 44.9623 591.63 45.2092 591.599 45.4613C591.568 45.7134 591.424 45.9347 591.208 46.0633C587.416 48.3374 583.068 49.5363 578.633 49.5363H578.644ZM567.823 45.1835C571.137 46.9688 574.857 47.9052 578.644 47.9052C582.43 47.9052 586.15 46.9688 589.464 45.1835L586.418 42.1376C583.969 43.2541 581.355 43.82 578.644 43.82C575.932 43.82 573.318 43.2541 570.869 42.1376L567.823 45.1835Z" fill="white"/>
<path d="M598.961 38.0116C598.745 38.0116 598.539 37.9293 598.385 37.7749L594.176 33.5663C593.929 33.3193 593.867 32.9386 594.022 32.6298C595.195 30.258 595.792 27.706 595.792 25.046C595.792 22.386 595.195 19.834 594.022 17.4621C593.867 17.1482 593.929 16.7675 594.176 16.5257L598.385 12.317C598.565 12.1369 598.812 12.0546 599.064 12.0855C599.316 12.1163 599.537 12.2604 599.666 12.4765C601.94 16.2684 603.139 20.616 603.139 25.0511C603.139 29.4862 601.94 33.8338 599.666 37.6257C599.537 37.8418 599.316 37.9859 599.064 38.0168C599.028 38.0168 598.997 38.0168 598.961 38.0168V38.0116ZM595.735 32.8151L598.781 35.861C600.566 32.5475 601.503 28.8276 601.503 25.0408C601.503 21.254 600.566 17.5341 598.781 14.2207L595.735 17.2666C596.851 19.7156 597.417 22.3294 597.417 25.0408C597.417 27.7523 596.851 30.366 595.735 32.8151Z" fill="white"/>
<path d="M558.325 38.0109C558.289 38.0109 558.258 38.0109 558.227 38.0058C557.975 37.9749 557.754 37.8308 557.625 37.6147C555.351 33.8228 554.152 29.4752 554.152 25.0401C554.152 20.605 555.351 16.2574 557.625 12.4655C557.754 12.2494 557.975 12.1053 558.227 12.0745C558.479 12.0436 558.726 12.131 558.906 12.306L563.115 16.5147C563.362 16.7617 563.424 17.1424 563.269 17.4511C562.096 19.823 561.5 22.375 561.5 25.035C561.5 27.695 562.096 30.247 563.269 32.6189C563.424 32.9327 563.362 33.3135 563.115 33.5553L558.906 37.764C558.752 37.9183 558.546 38.0058 558.33 38.0058L558.325 38.0109ZM558.505 14.22C556.72 17.5334 555.783 21.2533 555.783 25.0401C555.783 28.8269 556.72 32.5468 558.505 35.8603L561.551 32.8144C560.435 30.3653 559.869 27.7516 559.869 25.0401C559.869 22.3286 560.435 19.7149 561.551 17.2659L558.505 14.22Z" fill="white"/>
<path d="M578.643 6.26562C568.291 6.26562 559.863 14.6882 559.863 25.0452C559.863 35.4023 568.286 43.8249 578.643 43.8249C589 43.8249 597.423 35.4023 597.423 25.0452C597.423 14.6882 589 6.26562 578.643 6.26562ZM589.211 18.8763C590.101 20.3992 590.641 22.0611 590.816 23.8259C590.821 23.8979 590.79 23.9648 590.729 24.0008C589.386 24.824 588.182 25.8325 587.143 27.0107C587.096 27.0673 587.019 27.0879 586.952 27.0622L584.632 26.3058C584.565 26.2852 584.519 26.2286 584.508 26.1566C584.246 24.2375 583.649 22.4007 582.733 20.6925C582.702 20.6308 582.708 20.5587 582.749 20.5021L584.184 18.5264C584.22 18.4801 584.277 18.4492 584.333 18.4492C584.349 18.4492 584.359 18.4492 584.375 18.4492C585.908 18.7888 587.482 18.902 589.046 18.7734C589.118 18.7682 589.185 18.8042 589.221 18.866L589.211 18.8763ZM583.243 26.4808C583.248 26.5322 583.232 26.5836 583.201 26.6196C581.982 28.0243 580.428 29.151 578.715 29.8714C578.669 29.8919 578.622 29.8919 578.576 29.8714C576.863 29.1459 575.309 28.0191 574.089 26.6196C574.059 26.5836 574.043 26.5322 574.048 26.4808C574.285 24.6182 574.866 22.838 575.767 21.1916C575.793 21.1453 575.834 21.1144 575.885 21.1041C576.791 20.9137 577.717 20.816 578.648 20.816C579.579 20.816 580.505 20.9137 581.411 21.1041C581.462 21.1144 581.504 21.1453 581.529 21.1916C582.43 22.838 583.006 24.6182 583.248 26.4808H583.243ZM582.965 13.7106C582.965 13.7106 583.027 13.6591 583.088 13.6591C583.109 13.6591 583.135 13.6591 583.16 13.6746C585.054 14.4258 586.746 15.6606 588.064 17.2401C588.13 17.3173 588.105 17.3996 588.089 17.4305C588.079 17.4562 588.033 17.5386 587.925 17.5386C586.757 17.554 585.594 17.4202 584.467 17.1527C584.421 17.1424 584.38 17.1115 584.354 17.0703C583.752 16.0773 583.268 15.0072 582.918 13.8958C582.888 13.7981 582.944 13.7312 582.97 13.7106H582.965ZM576.045 13.0932C577.748 12.7279 579.543 12.7279 581.246 13.0932C581.313 13.1086 581.37 13.1601 581.385 13.227C581.751 14.7551 582.342 16.2163 583.14 17.5694C583.176 17.6312 583.171 17.7084 583.129 17.7701L581.704 19.7355C581.663 19.7921 581.591 19.823 581.524 19.8075C579.641 19.4268 577.65 19.4268 575.767 19.8075C575.7 19.823 575.628 19.7921 575.587 19.7355L574.162 17.7701C574.12 17.7135 574.115 17.6312 574.151 17.5694C574.949 16.2163 575.54 14.7551 575.906 13.227C575.921 13.1601 575.978 13.1086 576.045 13.0932ZM569.227 17.2401C570.545 15.6554 572.237 14.4206 574.131 13.6746C574.156 13.6643 574.182 13.6591 574.203 13.6591C574.27 13.6591 574.311 13.6952 574.326 13.7106C574.352 13.7363 574.408 13.7981 574.378 13.8958C574.028 15.0123 573.544 16.0773 572.942 17.0703C572.916 17.1115 572.875 17.1424 572.829 17.1527C571.702 17.4202 570.539 17.554 569.371 17.5386C569.263 17.5386 569.217 17.4562 569.207 17.4305C569.191 17.3996 569.166 17.3173 569.232 17.2401H569.227ZM568.08 18.8763C568.111 18.8197 568.173 18.7837 568.239 18.7837C568.239 18.7837 568.25 18.7837 568.255 18.7837C569.824 18.9071 571.399 18.7991 572.927 18.4595C572.999 18.4441 573.071 18.4698 573.112 18.5316L574.547 20.5073C574.589 20.5639 574.594 20.6411 574.563 20.6977C573.647 22.4058 573.05 24.2426 572.788 26.1618C572.777 26.2286 572.731 26.2852 572.664 26.311L570.344 27.0673C570.277 27.0878 570.2 27.0673 570.153 27.0158C569.114 25.8376 567.91 24.8292 566.567 24.006C566.511 23.9699 566.475 23.903 566.48 23.831C566.655 22.0662 567.195 20.3992 568.085 18.8814L568.08 18.8763ZM568.641 31.5538C568.61 31.6516 568.522 31.6721 568.486 31.6773C568.45 31.6773 568.368 31.6773 568.312 31.595C567.216 29.8714 566.567 27.8751 566.439 25.8273C566.434 25.7244 566.5 25.673 566.531 25.6575C566.562 25.6421 566.645 25.6061 566.727 25.6678C567.679 26.3418 568.543 27.1342 569.299 28.014C569.33 28.05 569.346 28.0963 569.341 28.1478C569.248 29.3054 569.011 30.4528 568.636 31.559L568.641 31.5538ZM573.724 36.2513C572.119 35.5464 570.704 34.5122 569.521 33.1848C569.474 33.1334 569.459 33.0562 569.485 32.9944C570.087 31.5435 570.467 30.0154 570.617 28.4513C570.622 28.3793 570.673 28.3175 570.74 28.297L573.035 27.5509C573.035 27.5509 573.071 27.5406 573.091 27.5406C573.143 27.5406 573.189 27.5612 573.225 27.6024C574.511 29.043 576.122 30.2161 577.887 30.993C577.953 31.0239 577.995 31.0856 577.995 31.1576V33.5707C577.995 33.6427 577.953 33.7096 577.887 33.7353C576.446 34.3579 575.108 35.1966 573.909 36.2204C573.858 36.2667 573.781 36.277 573.719 36.2461L573.724 36.2513ZM581.817 36.7607C581.812 36.7967 581.787 36.879 581.684 36.9047C579.698 37.409 577.598 37.409 575.612 36.9047C575.515 36.879 575.484 36.7967 575.479 36.7607C575.474 36.7246 575.463 36.6423 575.551 36.5754C576.487 35.8809 577.506 35.2994 578.581 34.8518C578.627 34.8312 578.674 34.8312 578.72 34.8518C579.79 35.2994 580.809 35.8809 581.751 36.5754C581.833 36.6372 581.828 36.7246 581.823 36.7607H581.817ZM587.781 33.19C586.597 34.5174 585.182 35.5464 583.577 36.2513C583.51 36.2822 583.438 36.2667 583.387 36.2256C582.188 35.2017 580.855 34.363 579.41 33.7405C579.343 33.7096 579.301 33.6479 579.301 33.5758V31.1628C579.301 31.0908 579.343 31.0239 579.41 30.9981C581.174 30.2212 582.79 29.0482 584.071 27.6075C584.107 27.5664 584.153 27.5458 584.205 27.5458C584.225 27.5458 584.241 27.5458 584.261 27.5561L586.556 28.3021C586.623 28.3227 586.674 28.3844 586.68 28.4565C586.829 30.0206 587.21 31.5435 587.811 32.9996C587.837 33.0613 587.827 33.1385 587.775 33.19H587.781ZM588.985 31.6001C588.928 31.6876 588.841 31.6876 588.81 31.6824C588.774 31.6824 588.691 31.6567 588.655 31.559C588.285 30.4528 588.048 29.3054 587.95 28.1478C587.95 28.1015 587.961 28.05 587.992 28.014C588.748 27.1342 589.612 26.347 590.564 25.6678C590.6 25.6421 590.636 25.6318 590.667 25.6318C590.708 25.6318 590.739 25.6472 590.76 25.6575C590.79 25.673 590.863 25.7244 590.852 25.8273C590.724 27.8751 590.075 29.8714 588.979 31.595L588.985 31.6001Z" fill="white"/>
<path d="M517.616 49.6159C511.339 49.6159 505.067 47.2286 500.287 42.4488C490.732 32.8944 490.732 17.351 500.287 7.79657C504.918 3.16597 511.071 0.619141 517.616 0.619141C524.16 0.619141 530.314 3.16597 534.944 7.79657C544.499 17.351 544.499 32.8944 534.944 42.4488C530.17 47.2235 523.893 49.6159 517.616 49.6159ZM501.573 41.1625C510.418 50.007 524.808 50.007 533.653 41.1625C542.497 32.3181 542.497 17.9273 533.653 9.08284C529.367 4.79697 523.671 2.44053 517.61 2.44053C511.55 2.44053 505.854 4.80212 501.568 9.08284C492.724 17.9273 492.724 32.3181 501.568 41.1625H501.573Z" fill="#EBF29D"/>
<path d="M517.292 34.2939C517.379 34.5049 517.585 34.6284 517.801 34.6284C517.873 34.6284 517.945 34.6129 518.017 34.5872C519.746 33.8618 521.321 32.7401 522.566 31.3407C522.766 31.1143 522.746 30.7644 522.519 30.5637C522.293 30.3631 521.943 30.3837 521.742 30.6101C520.605 31.8912 519.17 32.915 517.59 33.5736C517.313 33.692 517.179 34.0161 517.297 34.2939H517.292Z" fill="#EBF29D"/>
<path d="M526.954 16.6516L517.816 12.9985C517.682 12.9471 517.538 12.9471 517.404 12.9985L508.267 16.6516C508.056 16.7339 507.922 16.9346 507.922 17.161V23.7055C507.932 29.7459 511.75 35.2048 517.42 37.2834C517.481 37.304 517.543 37.3143 517.61 37.3143C517.677 37.3143 517.739 37.304 517.8 37.2834C523.47 35.1997 527.288 29.7459 527.298 23.7055V17.161C527.298 16.9346 527.165 16.7339 526.954 16.6516ZM526.197 23.7055C526.187 29.2005 522.74 34.2067 517.615 36.1772C512.491 34.2067 509.038 29.2005 509.028 23.7055V17.5365L517.615 14.1048L526.197 17.5365V23.7055Z" fill="#EBF29D"/>
<path d="M513.795 17.5112C513.661 17.4546 513.512 17.4546 513.373 17.5112L511.196 18.3807C510.985 18.463 510.852 18.6637 510.852 18.8901V21.2105C510.852 21.5141 511.099 21.7611 511.402 21.7611C511.706 21.7611 511.953 21.5141 511.953 21.2105V19.2657L513.779 18.5351C513.918 18.4785 514.021 18.3756 514.083 18.2366C514.139 18.1029 514.139 17.9537 514.083 17.8147C514.026 17.6758 513.923 17.5729 513.789 17.5112H513.795Z" fill="#EBF29D"/>
<path d="M531.526 11.2078C527.811 7.48792 522.867 5.44531 517.609 5.44531C512.35 5.44531 507.411 7.49307 503.691 11.2078C496.02 18.8792 496.02 31.3663 503.691 39.0428C507.529 42.8811 512.566 44.795 517.609 44.795C522.651 44.795 527.688 42.8759 531.526 39.0428C539.197 31.3715 539.197 18.8843 531.526 11.2078ZM528.804 23.7053C528.82 30.6872 524.359 36.7944 517.706 38.909C517.645 38.9296 517.578 38.9296 517.511 38.909C510.858 36.7944 506.397 30.6872 506.413 23.7053V15.9825C506.413 15.8538 506.49 15.7355 506.613 15.6841L517.49 11.3365C517.526 11.321 517.567 11.3159 517.609 11.3159C517.65 11.3159 517.691 11.321 517.727 11.3365L528.604 15.6892C528.727 15.7355 528.804 15.8538 528.804 15.9876V23.7104V23.7053Z" fill="#EBF29D"/>
<path d="M457.163 49.4033C443.657 49.4033 432.672 38.4133 432.672 24.9125C432.672 11.4118 443.662 0.421875 457.163 0.421875C470.663 0.421875 481.653 11.4118 481.653 24.9125C481.653 38.4133 470.663 49.4033 457.163 49.4033ZM457.163 2.05286C444.557 2.05286 434.303 12.307 434.303 24.9125C434.303 37.518 444.557 47.7722 457.163 47.7722C469.768 47.7722 480.022 37.518 480.022 24.9125C480.022 12.307 469.768 2.05286 457.163 2.05286Z" fill="#11F8A5"/>
<path d="M473.14 7.44057L465.559 15.0225L467.05 16.5141L474.632 8.93222L473.14 7.44057Z" fill="#11F8A5"/>
<path d="M447.043 33.5363L439.461 41.1182L440.953 42.6098L448.534 35.0279L447.043 33.5363Z" fill="#11F8A5"/>
<path d="M467.281 33.5435L465.789 35.0352L473.371 42.617L474.863 41.1254L467.281 33.5435Z" fill="#11F8A5"/>
<path d="M440.953 7.2115L439.461 8.70312L447.039 16.2814L448.531 14.7897L440.953 7.2115Z" fill="#11F8A5"/>
<path d="M463.134 25.5712C463.628 25.0773 463.628 24.2798 463.134 23.791L462.084 22.7466C461.59 22.2526 460.793 22.2526 460.304 22.7466L459.738 23.3125L459.085 22.6591C458.591 22.1651 457.793 22.1651 457.304 22.6591L456.738 23.2302L456.085 22.5716C455.591 22.0777 454.794 22.0777 454.305 22.5716L450.832 26.0446C450.806 26.0703 450.806 26.1115 450.832 26.1423C451.295 26.6054 452.051 26.6054 452.519 26.1423L454.758 23.9042C454.999 23.6624 455.39 23.6624 455.632 23.9042L455.797 24.0688C455.828 24.0997 455.828 24.146 455.797 24.1769L453.929 26.0446C453.903 26.0703 453.903 26.1115 453.929 26.1423C454.392 26.6054 455.149 26.6054 455.617 26.1423L457.762 23.9968C458.004 23.755 458.395 23.755 458.637 23.9968L458.802 24.1615C458.827 24.1872 458.827 24.2284 458.802 24.2592L457.001 26.06C456.975 26.0857 456.975 26.1269 457.001 26.1578C457.464 26.6208 458.22 26.6208 458.688 26.1578L460.762 24.0843C461.004 23.8425 461.395 23.8425 461.637 24.0843L461.992 24.4393C462.13 24.5782 462.13 24.8097 461.992 24.9487L461.935 25.0052C461.796 25.1442 461.564 25.1442 461.426 25.0052L460.968 24.5474C460.942 24.5216 460.901 24.5216 460.87 24.5474L460.078 25.3397C460.052 25.3654 460.052 25.4066 460.078 25.4374L460.793 26.1526C461.287 26.6466 462.084 26.6466 462.573 26.1526L463.139 25.5866L463.134 25.5712Z" fill="#11F8A5"/>
<path d="M457.162 6.13281C446.79 6.13281 438.383 14.5399 438.383 24.9124C438.383 35.285 446.79 43.6921 457.162 43.6921C467.535 43.6921 475.942 35.285 475.942 24.9124C475.942 14.5399 467.535 6.13281 457.162 6.13281ZM457.929 11.9314C460.944 12.1063 463.681 13.3102 465.801 15.1933L463.09 17.9048C461.675 16.706 459.889 15.9291 457.929 15.7645V11.9314ZM456.401 11.9314V15.7645C454.441 15.924 452.655 16.706 451.24 17.9048L448.529 15.1933C450.649 13.3102 453.386 12.1063 456.401 11.9314ZM447.448 16.2738L450.16 18.9853C448.961 20.4002 448.184 22.1855 448.02 24.1458H444.186C444.361 21.1308 445.565 18.3936 447.448 16.2738ZM444.186 25.6739H448.02C448.179 27.6342 448.961 29.4195 450.16 30.8345L447.448 33.5459C445.565 31.4261 444.361 28.689 444.186 25.6739ZM456.401 37.8884C453.386 37.7135 450.649 36.5095 448.529 34.6264L451.24 31.9149C452.655 33.1137 454.441 33.8906 456.401 34.0553V37.8884ZM449.27 24.9073C449.27 20.5494 452.805 17.0147 457.162 17.0147C461.52 17.0147 465.055 20.5494 465.055 24.9073C465.055 29.2652 461.52 32.7999 457.162 32.7999C452.805 32.7999 449.27 29.2652 449.27 24.9073ZM457.929 37.8884V34.0553C459.889 33.8958 461.675 33.1137 463.09 31.9149L465.801 34.6264C463.681 36.5095 460.944 37.7135 457.929 37.8884ZM466.882 33.5459L464.17 30.8345C465.369 29.4195 466.146 27.6342 466.31 25.6739H470.144C469.969 28.689 468.765 31.4261 466.882 33.5459ZM466.31 24.1458C466.151 22.1855 465.369 20.4002 464.17 18.9853L466.882 16.2738C468.765 18.3936 469.969 21.1308 470.144 24.1458H466.31Z" fill="#11F8A5"/>
<path d="M375.35 42.1664C365.717 32.5325 365.717 16.8585 375.35 7.22451C384.984 -2.40947 400.658 -2.40947 410.292 7.22451C419.926 16.8585 419.926 32.5325 410.292 42.1664C400.658 51.8004 384.984 51.8004 375.35 42.1664ZM409.128 8.38893C400.136 -0.6031 385.507 -0.6031 376.517 8.38893C367.525 17.381 367.525 32.01 376.517 40.9997C385.509 49.9917 400.138 49.9917 409.128 40.9997C418.12 32.0077 418.12 17.3786 409.128 8.38893Z" fill="white"/>
<path d="M409.393 19.4545C409.306 19.3679 409.236 19.2577 409.196 19.1359C408.341 16.6056 406.944 14.3634 405.047 12.4657C403.151 10.5703 400.907 9.17392 398.376 8.31642C398.041 8.20162 397.816 7.89002 397.816 7.53624V1.5314C397.816 1.27837 397.934 1.03939 398.133 0.882415C398.334 0.725441 398.594 0.671558 398.838 0.732474C403.163 1.81489 407.122 4.05938 410.285 7.22463C413.448 10.3899 415.693 14.347 416.775 18.672C416.836 18.918 416.78 19.1781 416.625 19.3796C416.468 19.5811 416.229 19.6959 415.976 19.6959H409.971C409.746 19.6959 409.54 19.6045 409.388 19.4522L409.393 19.4545ZM406.211 11.3013C408.146 13.2365 409.606 15.5044 410.557 18.0488H414.901C413.809 14.4126 411.825 11.0904 409.123 8.38905C406.422 5.68769 403.1 3.70326 399.466 2.61382V6.95755C402.01 7.90642 404.278 9.36604 406.213 11.3036L406.211 11.3013Z" fill="white"/>
<path d="M375.348 42.1662C372.185 39.0033 369.939 35.0438 368.856 30.7188C368.795 30.4728 368.851 30.2127 369.006 30.0136C369.163 29.8121 369.402 29.6973 369.655 29.6973H375.66C376.014 29.6973 376.328 29.9222 376.44 30.2572C377.295 32.7875 378.692 35.0297 380.589 36.9274C382.485 38.8229 384.729 40.2192 387.26 41.0767C387.595 41.1892 387.82 41.5031 387.82 41.8569V47.8617C387.82 48.1148 387.702 48.3537 387.503 48.5107C387.302 48.6677 387.042 48.7216 386.796 48.6607C382.471 47.5782 378.514 45.3338 375.348 42.1708V42.1662ZM370.735 31.342C371.827 34.9782 373.811 38.3004 376.513 41.0017C379.214 43.7031 382.536 45.6875 386.172 46.7793V42.4356C383.628 41.4867 381.36 40.0271 379.425 38.0919C377.49 36.1566 376.03 33.8887 375.079 31.3443H370.735V31.342Z" fill="white"/>
<path d="M398.062 48.4412C397.907 48.2866 397.82 48.078 397.82 47.8578V41.853C397.82 41.4992 398.045 41.1853 398.38 41.0728C400.911 40.2176 403.153 38.8213 405.05 36.9235C406.948 35.0258 408.342 32.7836 409.2 30.2533C409.312 29.9183 409.626 29.6934 409.98 29.6934H415.985C416.238 29.6934 416.477 29.8105 416.634 30.0096C416.791 30.2088 416.845 30.4712 416.784 30.7149C415.699 35.0398 413.454 38.997 410.292 42.1622C407.129 45.3275 403.169 47.572 398.844 48.6544C398.598 48.7153 398.338 48.6591 398.139 48.5045C398.113 48.481 398.087 48.4599 398.064 48.4365L398.062 48.4412ZM399.467 42.434V46.7777C403.104 45.686 406.426 43.7015 409.127 41.0002C411.828 38.2988 413.811 34.9766 414.905 31.3404H410.561C409.612 33.8848 408.152 36.1504 406.215 38.0879C404.28 40.0232 402.012 41.4851 399.467 42.434Z" fill="white"/>
<path d="M369.072 19.4552C369.049 19.4317 369.025 19.406 369.006 19.3802C368.849 19.181 368.796 18.9186 368.856 18.6726C369.939 14.3476 372.183 10.3881 375.349 7.22524C378.514 4.06233 382.471 1.8155 386.796 0.733082C387.042 0.672167 387.302 0.728393 387.501 0.883024C387.7 1.04 387.818 1.27898 387.818 1.53201V7.53685C387.818 7.89063 387.593 8.20457 387.258 8.31703C384.727 9.17219 382.485 10.5686 380.587 12.4663C378.692 14.3617 377.296 16.6062 376.438 19.1365C376.326 19.4716 376.012 19.6965 375.658 19.6965H369.653C369.433 19.6965 369.222 19.6098 369.07 19.4575L369.072 19.4552ZM386.17 2.61443C382.534 3.70622 379.212 5.69065 376.511 8.39201C373.809 11.0934 371.827 14.4156 370.733 18.0518H375.077C376.026 15.5074 377.485 13.2418 379.423 11.3042C381.358 9.36899 383.626 7.90937 386.17 6.95816V2.61443Z" fill="white"/>
<path d="M406.215 11.3012C398.83 3.9164 386.811 3.91405 379.426 11.3012C372.039 18.6883 372.041 30.7051 379.426 38.0899C386.811 45.4747 398.828 45.477 406.215 38.0899C413.602 30.7027 413.6 18.686 406.215 11.3012Z" fill="white"/>
<path d="M399.653 31.4556L386.046 31.5459C385.472 31.5497 385.011 32.0174 385.015 32.5906L385.018 33.0756C385.022 33.6488 385.489 34.1104 386.063 34.1066L399.67 34.0163C400.243 34.0125 400.705 33.5448 400.701 32.9716L400.698 32.4866C400.694 31.9134 400.226 31.4518 399.653 31.4556Z" fill="#191D0A"/>
<path d="M387.901 23.242C387.754 23.242 387.604 23.2092 387.468 23.1436L386.407 22.6305C385.945 22.4056 385.734 21.8597 385.926 21.3841L386.414 20.1705C386.564 19.8003 386.917 19.559 387.316 19.5566C387.487 19.5566 387.655 19.5988 387.805 19.6855L389.071 20.4071C389.307 20.5407 389.478 20.7726 389.539 21.0397C389.6 21.3068 389.546 21.5879 389.392 21.8128L388.698 22.8179C388.518 23.0803 388.218 23.2397 387.899 23.2397L387.901 23.242Z" fill="#191D0A"/>
<path d="M397.694 23.1768C397.375 23.1768 397.073 23.0245 396.89 22.7644L396.204 21.7968C396.045 21.5743 395.988 21.2931 396.045 21.026C396.101 20.7589 396.27 20.5246 396.506 20.3864L397.811 19.6203C397.959 19.5336 398.128 19.4867 398.299 19.4844C398.697 19.482 399.055 19.7187 399.21 20.0865L399.702 21.265C399.899 21.7383 399.695 22.2888 399.238 22.5184L398.128 23.0737C397.994 23.1393 397.844 23.1768 397.696 23.1768H397.694Z" fill="#191D0A"/>
<path d="M386.831 30.6366C386.234 30.6413 385.697 30.2664 385.493 29.7041L383.223 23.4556C383.078 23.5259 382.923 23.5798 382.766 23.6196C382.581 23.6665 382.394 23.6899 382.204 23.6899C382.094 23.6899 381.986 23.6852 381.881 23.6712C380.697 23.5212 379.8 22.5067 379.793 21.3119C379.784 19.9905 380.852 18.9081 382.173 18.8987C383.495 18.8893 384.577 19.9577 384.584 21.2791C384.584 21.5836 384.533 21.8765 384.425 22.1506C384.366 22.3006 384.294 22.4435 384.209 22.5794L388.527 24.6692L391.831 19.8827C391.693 19.8241 391.559 19.7515 391.433 19.6648C391.194 19.5031 390.985 19.3017 390.816 19.065C390.53 18.662 390.376 18.1864 390.374 17.6944C390.364 16.373 391.433 15.2906 392.754 15.2813C392.812 15.2813 392.873 15.2812 392.932 15.2859C394.115 15.3656 395.071 16.3145 395.158 17.4976C395.198 18.0576 395.05 18.5941 394.731 19.051C394.563 19.2899 394.356 19.4938 394.12 19.6554C393.996 19.7421 393.862 19.8148 393.724 19.8733L397.086 24.6107L401.334 22.4857C401.254 22.3334 401.191 22.174 401.144 22.0077C401.088 21.8062 401.057 21.5953 401.057 21.3821C401.057 21.2861 401.062 21.19 401.071 21.0963C401.207 19.8921 402.224 18.9783 403.435 18.9713C404.757 18.9619 405.839 20.0303 405.846 21.3517C405.855 22.6122 404.876 23.6712 403.618 23.7578L403.468 23.7625C403.224 23.7625 402.985 23.7297 402.753 23.6594C402.603 23.6126 402.458 23.554 402.322 23.479L400.19 29.6057C399.996 30.1703 399.462 30.5499 398.864 30.5546L386.831 30.6342V30.6366Z" fill="#191D0A"/>
<path d="M333.163 49.6159C326.885 49.6159 320.614 47.2287 315.834 42.4489C306.279 32.8944 306.279 17.351 315.834 7.79657C320.464 3.16597 326.618 0.619141 333.163 0.619141C339.707 0.619141 345.861 3.16597 350.491 7.79657C360.046 17.351 360.046 32.8944 350.491 42.4489C345.717 47.2235 339.44 49.6159 333.163 49.6159ZM317.12 41.1626C325.965 50.007 340.355 50.007 349.2 41.1626C358.044 32.3181 358.044 17.9273 349.2 9.08284C344.914 4.79697 339.218 2.44053 333.157 2.44053C327.096 2.44053 321.401 4.80212 317.115 9.08284C308.271 17.9273 308.271 32.3181 317.115 41.1626H317.12Z" fill="#EBF29D"/>
<path d="M332.839 34.2891C332.926 34.5 333.132 34.6235 333.348 34.6235C333.42 34.6235 333.492 34.608 333.564 34.5823C335.293 33.8569 336.867 32.7352 338.113 31.3357C338.313 31.1093 338.293 30.7595 338.066 30.5589C337.84 30.3582 337.49 30.3788 337.289 30.6052C336.152 31.8863 334.717 32.9102 333.137 33.5687C332.859 33.6871 332.726 34.0112 332.844 34.2891H332.839Z" fill="#EBF29D"/>
<path d="M342.501 16.6516L333.363 12.9985C333.229 12.9471 333.085 12.9471 332.951 12.9985L323.813 16.6516C323.603 16.7339 323.469 16.9346 323.469 17.161V23.7055C323.479 29.7459 327.297 35.2048 332.967 37.2834C333.028 37.304 333.09 37.3143 333.157 37.3143C333.224 37.3143 333.286 37.304 333.347 37.2834C339.017 35.1997 342.835 29.7459 342.845 23.7055V17.161C342.845 16.9346 342.711 16.7339 342.501 16.6516ZM341.744 23.7055C341.734 29.2005 338.287 34.2067 333.162 36.1772C328.038 34.2067 324.585 29.2005 324.575 23.7055V17.5365L333.162 14.1048L341.744 17.5365V23.7055Z" fill="#EBF29D"/>
<path d="M329.341 17.5112C329.208 17.4546 329.058 17.4546 328.92 17.5112L326.743 18.3808C326.532 18.4631 326.398 18.6637 326.398 18.8901V21.2106C326.398 21.5141 326.645 21.7611 326.949 21.7611C327.253 21.7611 327.499 21.5141 327.499 21.2106V19.2657L329.326 18.5351C329.465 18.4785 329.568 18.3756 329.63 18.2367C329.686 18.1029 329.686 17.9537 329.63 17.8148C329.573 17.6759 329.47 17.5729 329.336 17.5112H329.341Z" fill="#EBF29D"/>
<path d="M347.073 11.2078C343.358 7.48792 338.414 5.44531 333.155 5.44531C327.897 5.44531 322.958 7.49307 319.238 11.2078C311.567 18.8792 311.567 31.3664 319.238 39.0429C323.076 42.8811 328.113 44.795 333.155 44.795C338.198 44.795 343.235 42.876 347.073 39.0429C354.744 31.3715 354.744 18.8843 347.073 11.2078ZM344.351 23.7053C344.367 30.6872 339.906 36.7944 333.253 38.9091C333.191 38.9297 333.125 38.9297 333.058 38.9091C326.405 36.7944 321.944 30.6872 321.96 23.7053V15.9825C321.96 15.8538 322.037 15.7355 322.16 15.6841L333.037 11.3365C333.073 11.321 333.114 11.3159 333.155 11.3159C333.197 11.3159 333.238 11.321 333.274 11.3365L344.15 15.6892C344.274 15.7355 344.351 15.8538 344.351 15.9876V23.7104V23.7053Z" fill="#EBF29D"/>
<path d="M270.577 49.5361C257.071 49.5361 246.086 38.5461 246.086 25.0454C246.086 11.5446 257.076 0.554688 270.577 0.554688C284.077 0.554688 295.067 11.5446 295.067 25.0454C295.067 38.5461 284.077 49.5361 270.577 49.5361ZM270.577 2.18568C257.971 2.18568 247.717 12.4399 247.717 25.0454C247.717 37.6509 257.971 47.905 270.577 47.905C283.182 47.905 293.436 37.6509 293.436 25.0454C293.436 12.4399 283.182 2.18568 270.577 2.18568Z" fill="white"/>
<path d="M278.52 9.74925C278.397 9.74925 278.273 9.72354 278.16 9.66694C275.788 8.49386 273.236 7.89702 270.576 7.89702C267.916 7.89702 265.364 8.49386 262.992 9.66694C262.679 9.82129 262.303 9.75953 262.056 9.51256L257.847 5.30387C257.667 5.12379 257.585 4.87683 257.616 4.62472C257.647 4.37261 257.791 4.15138 258.007 4.02275C261.799 1.74861 266.146 0.549805 270.581 0.549805C275.016 0.549805 279.364 1.75376 283.156 4.02275C283.372 4.15138 283.516 4.37261 283.547 4.62472C283.578 4.87683 283.49 5.12379 283.316 5.30387L279.107 9.51256C278.947 9.66692 278.742 9.74925 278.525 9.74925H278.52ZM270.576 6.266C273.288 6.266 275.901 6.83198 278.35 7.94846L281.396 4.90257C278.083 3.11722 274.363 2.18079 270.576 2.18079C266.789 2.18079 263.07 3.11722 259.756 4.90257L262.802 7.94846C265.251 6.83198 267.865 6.266 270.576 6.266Z" fill="white"/>
<path d="M270.577 49.5363C266.142 49.5363 261.795 48.3323 258.003 46.0633C257.787 45.9347 257.642 45.7134 257.612 45.4613C257.581 45.2092 257.668 44.9623 257.843 44.7822L262.052 40.5735C262.299 40.3265 262.68 40.2648 262.988 40.4191C265.36 41.5922 267.912 42.189 270.572 42.189C273.232 42.189 275.784 41.5922 278.156 40.4191C278.47 40.2648 278.845 40.3265 279.092 40.5735L283.301 44.7822C283.481 44.9623 283.563 45.2092 283.533 45.4613C283.502 45.7134 283.358 45.9347 283.142 46.0633C279.35 48.3374 275.002 49.5363 270.567 49.5363H270.577ZM259.757 45.1835C263.071 46.9688 266.79 47.9052 270.577 47.9052C274.364 47.9052 278.084 46.9688 281.397 45.1835L278.351 42.1376C275.902 43.2541 273.289 43.82 270.577 43.82C267.866 43.82 265.252 43.2541 262.803 42.1376L259.757 45.1835Z" fill="white"/>
<path d="M290.895 38.0116C290.678 38.0116 290.473 37.9293 290.318 37.7749L286.11 33.5663C285.863 33.3193 285.801 32.9386 285.955 32.6298C287.128 30.258 287.725 27.706 287.725 25.046C287.725 22.386 287.128 19.834 285.955 17.4621C285.801 17.1482 285.863 16.7675 286.11 16.5257L290.318 12.317C290.498 12.1369 290.745 12.0546 290.997 12.0855C291.25 12.1163 291.471 12.2604 291.599 12.4765C293.874 16.2684 295.072 20.616 295.072 25.0511C295.072 29.4862 293.874 33.8338 291.599 37.6257C291.471 37.8418 291.25 37.9859 290.997 38.0168C290.961 38.0168 290.931 38.0168 290.895 38.0168V38.0116ZM287.669 32.8151L290.714 35.861C292.5 32.5475 293.436 28.8276 293.436 25.0408C293.436 21.254 292.5 17.5341 290.714 14.2207L287.669 17.2666C288.785 19.7156 289.351 22.3294 289.351 25.0408C289.351 27.7523 288.785 30.366 287.669 32.8151Z" fill="white"/>
<path d="M250.259 38.0109C250.223 38.0109 250.192 38.0109 250.161 38.0058C249.909 37.9749 249.688 37.8308 249.559 37.6147C247.285 33.8228 246.086 29.4752 246.086 25.0401C246.086 20.605 247.285 16.2574 249.559 12.4655C249.688 12.2494 249.909 12.1053 250.161 12.0745C250.413 12.0436 250.66 12.131 250.84 12.306L255.049 16.5147C255.296 16.7617 255.357 17.1424 255.203 17.4511C254.03 19.823 253.433 22.375 253.433 25.035C253.433 27.695 254.03 30.247 255.203 32.6189C255.357 32.9327 255.296 33.3135 255.049 33.5553L250.84 37.764C250.686 37.9183 250.48 38.0058 250.264 38.0058L250.259 38.0109ZM250.439 14.22C248.653 17.5334 247.717 21.2533 247.717 25.0401C247.717 28.8269 248.653 32.5468 250.439 35.8603L253.485 32.8144C252.368 30.3653 251.802 27.7516 251.802 25.0401C251.802 22.3286 252.368 19.7149 253.485 17.2659L250.439 14.22Z" fill="white"/>
<path d="M270.576 6.26562C260.225 6.26562 251.797 14.6882 251.797 25.0452C251.797 35.4023 260.219 43.8249 270.576 43.8249C280.934 43.8249 289.356 35.4023 289.356 25.0452C289.356 14.6882 280.934 6.26562 270.576 6.26562ZM281.145 18.8763C282.035 20.3992 282.575 22.0611 282.75 23.8259C282.755 23.8979 282.724 23.9648 282.662 24.0008C281.319 24.824 280.115 25.8325 279.076 27.0107C279.03 27.0673 278.953 27.0879 278.886 27.0622L276.565 26.3058C276.499 26.2852 276.452 26.2286 276.442 26.1566C276.179 24.2375 275.583 22.4007 274.667 20.6925C274.636 20.6308 274.641 20.5587 274.682 20.5021L276.118 18.5264C276.154 18.4801 276.21 18.4492 276.267 18.4492C276.282 18.4492 276.293 18.4492 276.308 18.4492C277.841 18.7888 279.416 18.902 280.98 18.7734C281.052 18.7682 281.119 18.8042 281.155 18.866L281.145 18.8763ZM275.176 26.4808C275.181 26.5322 275.166 26.5836 275.135 26.6196C273.916 28.0243 272.362 29.151 270.649 29.8714C270.602 29.8919 270.556 29.8919 270.51 29.8714C268.796 29.1459 267.242 28.0191 266.023 26.6196C265.992 26.5836 265.977 26.5322 265.982 26.4808C266.219 24.6182 266.8 22.838 267.7 21.1916C267.726 21.1453 267.767 21.1144 267.819 21.1041C268.724 20.9137 269.65 20.816 270.582 20.816C271.513 20.816 272.439 20.9137 273.345 21.1041C273.396 21.1144 273.437 21.1453 273.463 21.1916C274.363 22.838 274.94 24.6182 275.181 26.4808H275.176ZM274.898 13.7106C274.898 13.7106 274.96 13.6591 275.022 13.6591C275.042 13.6591 275.068 13.6591 275.094 13.6746C276.987 14.4258 278.68 15.6606 279.997 17.2401C280.064 17.3173 280.038 17.3996 280.023 17.4305C280.013 17.4562 279.966 17.5386 279.858 17.5386C278.69 17.554 277.528 17.4202 276.401 17.1527C276.354 17.1424 276.313 17.1115 276.288 17.0703C275.686 16.0773 275.202 15.0072 274.852 13.8958C274.821 13.7981 274.878 13.7312 274.904 13.7106H274.898ZM267.978 13.0932C269.681 12.7279 271.477 12.7279 273.18 13.0932C273.247 13.1086 273.303 13.1601 273.319 13.227C273.684 14.7551 274.276 16.2163 275.073 17.5694C275.109 17.6312 275.104 17.7084 275.063 17.7701L273.638 19.7355C273.597 19.7921 273.525 19.823 273.458 19.8075C271.575 19.4268 269.583 19.4268 267.7 19.8075C267.633 19.823 267.561 19.7921 267.52 19.7355L266.095 17.7701C266.054 17.7135 266.049 17.6312 266.085 17.5694C266.882 16.2163 267.474 14.7551 267.839 13.227C267.855 13.1601 267.911 13.1086 267.978 13.0932ZM261.161 17.2401C262.478 15.6554 264.171 14.4206 266.064 13.6746C266.09 13.6643 266.116 13.6591 266.136 13.6591C266.203 13.6591 266.244 13.6952 266.26 13.7106C266.285 13.7363 266.342 13.7981 266.311 13.8958C265.961 15.0123 265.478 16.0773 264.876 17.0703C264.85 17.1115 264.809 17.1424 264.763 17.1527C263.636 17.4202 262.473 17.554 261.305 17.5386C261.197 17.5386 261.151 17.4562 261.14 17.4305C261.125 17.3996 261.099 17.3173 261.166 17.2401H261.161ZM260.014 18.8763C260.044 18.8197 260.106 18.7837 260.173 18.7837C260.173 18.7837 260.183 18.7837 260.189 18.7837C261.758 18.9071 263.332 18.7991 264.86 18.4595C264.932 18.4441 265.004 18.4698 265.046 18.5316L266.481 20.5073C266.522 20.5639 266.527 20.6411 266.496 20.6977C265.581 22.4058 264.984 24.2426 264.721 26.1618C264.711 26.2286 264.665 26.2852 264.598 26.311L262.277 27.0673C262.211 27.0878 262.133 27.0673 262.087 27.0158C261.048 25.8376 259.844 24.8292 258.501 24.006C258.444 23.9699 258.408 23.903 258.413 23.831C258.588 22.0662 259.129 20.3992 260.019 18.8814L260.014 18.8763ZM260.574 31.5538C260.544 31.6516 260.456 31.6721 260.42 31.6773C260.384 31.6773 260.302 31.6773 260.245 31.595C259.149 29.8714 258.501 27.8751 258.372 25.8273C258.367 25.7244 258.434 25.673 258.465 25.6575C258.496 25.6421 258.578 25.6061 258.66 25.6678C259.612 26.3418 260.477 27.1342 261.233 28.014C261.264 28.05 261.279 28.0963 261.274 28.1478C261.182 29.3054 260.945 30.4528 260.569 31.559L260.574 31.5538ZM265.658 36.2513C264.053 35.5464 262.638 34.5122 261.454 33.1848C261.408 33.1334 261.392 33.0562 261.418 32.9944C262.02 31.5435 262.401 30.0154 262.55 28.4513C262.555 28.3793 262.607 28.3175 262.674 28.297L264.968 27.5509C264.968 27.5509 265.004 27.5406 265.025 27.5406C265.076 27.5406 265.123 27.5612 265.159 27.6024C266.445 29.043 268.055 30.2161 269.82 30.993C269.887 31.0239 269.928 31.0856 269.928 31.1576V33.5707C269.928 33.6427 269.887 33.7096 269.82 33.7353C268.38 34.3579 267.042 35.1966 265.843 36.2204C265.792 36.2667 265.714 36.277 265.653 36.2461L265.658 36.2513ZM273.751 36.7607C273.746 36.7967 273.72 36.879 273.617 36.9047C271.631 37.409 269.532 37.409 267.546 36.9047C267.448 36.879 267.417 36.7967 267.412 36.7607C267.407 36.7246 267.397 36.6423 267.484 36.5754C268.421 35.8809 269.439 35.2994 270.515 34.8518C270.561 34.8312 270.607 34.8312 270.654 34.8518C271.724 35.2994 272.743 35.8809 273.684 36.5754C273.766 36.6372 273.761 36.7246 273.756 36.7607H273.751ZM279.714 33.19C278.531 34.5174 277.116 35.5464 275.511 36.2513C275.444 36.2822 275.372 36.2667 275.32 36.2256C274.121 35.2017 272.789 34.363 271.343 33.7405C271.276 33.7096 271.235 33.6479 271.235 33.5758V31.1628C271.235 31.0908 271.276 31.0239 271.343 30.9981C273.108 30.2212 274.723 29.0482 276.005 27.6075C276.041 27.5664 276.087 27.5458 276.138 27.5458C276.159 27.5458 276.174 27.5458 276.195 27.5561L278.49 28.3021C278.557 28.3227 278.608 28.3844 278.613 28.4565C278.762 30.0206 279.143 31.5435 279.745 32.9996C279.771 33.0613 279.761 33.1385 279.709 33.19H279.714ZM280.918 31.6001C280.862 31.6876 280.774 31.6876 280.743 31.6824C280.707 31.6824 280.625 31.6567 280.589 31.559C280.218 30.4528 279.982 29.3054 279.884 28.1478C279.884 28.1015 279.894 28.05 279.925 28.014C280.681 27.1342 281.546 26.347 282.498 25.6678C282.534 25.6421 282.57 25.6318 282.601 25.6318C282.642 25.6318 282.673 25.6472 282.693 25.6575C282.724 25.673 282.796 25.7244 282.786 25.8273C282.657 27.8751 282.009 29.8714 280.913 31.595L280.918 31.6001Z" fill="white"/>
<path d="M209.549 49.6159C203.272 49.6159 197 47.2286 192.221 42.4488C182.666 32.8944 182.666 17.351 192.221 7.79657C196.851 3.16597 203.005 0.619141 209.549 0.619141C216.094 0.619141 222.247 3.16597 226.878 7.79657C236.432 17.351 236.432 32.8944 226.878 42.4488C222.103 47.2235 215.826 49.6159 209.549 49.6159ZM193.507 41.1625C202.351 50.007 216.742 50.007 225.587 41.1625C234.431 32.3181 234.431 17.9273 225.587 9.08284C221.301 4.79697 215.605 2.44053 209.544 2.44053C203.483 2.44053 197.788 4.80212 193.502 9.08284C184.657 17.9273 184.657 32.3181 193.502 41.1625H193.507Z" fill="#EBF29D"/>
<path d="M209.226 34.2939C209.313 34.5049 209.519 34.6284 209.735 34.6284C209.807 34.6284 209.879 34.6129 209.951 34.5872C211.68 33.8618 213.254 32.7401 214.499 31.3407C214.7 31.1143 214.679 30.7644 214.453 30.5637C214.227 30.3631 213.877 30.3837 213.676 30.6101C212.539 31.8912 211.103 32.915 209.524 33.5736C209.246 33.692 209.112 34.0161 209.231 34.2939H209.226Z" fill="#EBF29D"/>
<path d="M218.887 16.6516L209.75 12.9985C209.616 12.9471 209.472 12.9471 209.338 12.9985L200.2 16.6516C199.989 16.7339 199.855 16.9346 199.855 17.161V23.7055C199.866 29.7459 203.683 35.2048 209.353 37.2834C209.415 37.304 209.477 37.3143 209.544 37.3143C209.611 37.3143 209.672 37.304 209.734 37.2834C215.404 35.1997 219.222 29.7459 219.232 23.7055V17.161C219.232 16.9346 219.098 16.7339 218.887 16.6516ZM218.131 23.7055C218.121 29.2005 214.673 34.2067 209.549 36.1772C204.424 34.2067 200.972 29.2005 200.962 23.7055V17.5365L209.549 14.1048L218.131 17.5365V23.7055Z" fill="#EBF29D"/>
<path d="M205.728 17.5112C205.594 17.4546 205.445 17.4546 205.306 17.5112L203.13 18.3807C202.919 18.463 202.785 18.6637 202.785 18.8901V21.2105C202.785 21.5141 203.032 21.7611 203.336 21.7611C203.639 21.7611 203.886 21.5141 203.886 21.2105V19.2657L205.713 18.5351C205.852 18.4785 205.955 18.3756 206.016 18.2366C206.073 18.1029 206.073 17.9537 206.016 17.8147C205.96 17.6758 205.857 17.5729 205.723 17.5112H205.728Z" fill="#EBF29D"/>
<path d="M223.46 11.2078C219.745 7.48792 214.8 5.44531 209.542 5.44531C204.284 5.44531 199.345 7.49307 195.625 11.2078C187.953 18.8792 187.953 31.3663 195.625 39.0428C199.463 42.8811 204.5 44.795 209.542 44.795C214.584 44.795 219.621 42.8759 223.46 39.0428C231.131 31.3715 231.131 18.8843 223.46 11.2078ZM220.738 23.7053C220.753 30.6872 216.292 36.7944 209.64 38.909C209.578 38.9296 209.511 38.9296 209.444 38.909C202.792 36.7944 198.331 30.6872 198.346 23.7053V15.9825C198.346 15.8538 198.424 15.7355 198.547 15.6841L209.424 11.3365C209.46 11.321 209.501 11.3159 209.542 11.3159C209.583 11.3159 209.624 11.321 209.66 11.3365L220.537 15.6892C220.661 15.7355 220.738 15.8538 220.738 15.9876V23.7104V23.7053Z" fill="#EBF29D"/>
<path d="M149.096 49.4042C135.59 49.4042 124.605 38.4143 124.605 24.9135C124.605 11.4128 135.595 0.422852 149.096 0.422852C162.597 0.422852 173.587 11.4128 173.587 24.9135C173.587 38.4143 162.597 49.4042 149.096 49.4042ZM149.096 2.05384C136.491 2.05384 126.236 12.308 126.236 24.9135C126.236 37.519 136.491 47.7732 149.096 47.7732C161.702 47.7732 171.956 37.519 171.956 24.9135C171.956 12.308 161.702 2.05384 149.096 2.05384Z" fill="#11F8A5"/>
<path d="M165.074 7.44155L157.492 15.0234L158.984 16.5151L166.566 8.9332L165.074 7.44155Z" fill="#11F8A5"/>
<path d="M138.976 33.5363L131.395 41.1182L132.886 42.6098L140.468 35.0279L138.976 33.5363Z" fill="#11F8A5"/>
<path d="M159.214 33.5445L157.723 35.0361L165.305 42.618L166.796 41.1263L159.214 33.5445Z" fill="#11F8A5"/>
<path d="M132.886 7.21247L131.395 8.7041L138.973 16.2823L140.464 14.7907L132.886 7.21247Z" fill="#11F8A5"/>
<path d="M155.067 25.5722C155.561 25.0783 155.561 24.2808 155.067 23.792L154.018 22.7475C153.524 22.2536 152.726 22.2536 152.238 22.7475L151.672 23.3135L151.018 22.6601C150.524 22.1661 149.727 22.1661 149.238 22.6601L148.672 23.2312L148.019 22.5726C147.525 22.0787 146.727 22.0787 146.238 22.5726L142.765 26.0455C142.74 26.0713 142.74 26.1124 142.765 26.1433C143.228 26.6064 143.985 26.6064 144.453 26.1433L146.691 23.9052C146.933 23.6634 147.324 23.6634 147.566 23.9052L147.73 24.0698C147.761 24.1007 147.761 24.147 147.73 24.1779L145.863 26.0455C145.837 26.0713 145.837 26.1124 145.863 26.1433C146.326 26.6064 147.082 26.6064 147.55 26.1433L149.696 23.9978C149.938 23.756 150.329 23.756 150.571 23.9978L150.735 24.1624C150.761 24.1882 150.761 24.2293 150.735 24.2602L148.934 26.061C148.909 26.0867 148.909 26.1279 148.934 26.1587C149.397 26.6218 150.154 26.6218 150.622 26.1587L152.695 24.0853C152.937 23.8434 153.328 23.8434 153.57 24.0853L153.925 24.4403C154.064 24.5792 154.064 24.8107 153.925 24.9496L153.869 25.0062C153.73 25.1451 153.498 25.1451 153.359 25.0062L152.901 24.5483C152.876 24.5226 152.834 24.5226 152.803 24.5483L152.011 25.3407C151.985 25.3664 151.985 25.4076 152.011 25.4384L152.726 26.1536C153.22 26.6475 154.018 26.6475 154.507 26.1536L155.072 25.5876L155.067 25.5722Z" fill="#11F8A5"/>
<path d="M149.096 6.13379C138.724 6.13379 130.316 14.5409 130.316 24.9134C130.316 35.2859 138.724 43.693 149.096 43.693C159.469 43.693 167.876 35.2859 167.876 24.9134C167.876 14.5409 159.469 6.13379 149.096 6.13379ZM149.863 11.9323C152.878 12.1073 155.615 13.3112 157.735 15.1943L155.023 17.9058C153.608 16.707 151.823 15.9301 149.863 15.7654V11.9323ZM148.335 11.9323V15.7654C146.374 15.9249 144.589 16.707 143.174 17.9058L140.463 15.1943C142.582 13.3112 145.32 12.1073 148.335 11.9323ZM139.382 16.2748L142.094 18.9863C140.895 20.4012 140.118 22.1865 139.953 24.1468H136.12C136.295 21.1318 137.499 18.3946 139.382 16.2748ZM136.12 25.6749H139.953C140.113 27.6352 140.895 29.4205 142.094 30.8354L139.382 33.5469C137.499 31.4271 136.295 28.6899 136.12 25.6749ZM148.335 37.8894C145.32 37.7144 142.582 36.5105 140.463 34.6274L143.174 31.9159C144.589 33.1147 146.374 33.8916 148.335 34.0563V37.8894ZM141.203 24.9083C141.203 20.5504 144.738 17.0157 149.096 17.0157C153.454 17.0157 156.989 20.5504 156.989 24.9083C156.989 29.2662 153.454 32.8009 149.096 32.8009C144.738 32.8009 141.203 29.2662 141.203 24.9083ZM149.863 37.8894V34.0563C151.823 33.8968 153.608 33.1147 155.023 31.9159L157.735 34.6274C155.615 36.5105 152.878 37.7144 149.863 37.8894ZM158.815 33.5469L156.104 30.8354C157.302 29.4205 158.079 27.6352 158.244 25.6749H162.077C161.902 28.6899 160.698 31.4271 158.815 33.5469ZM158.244 24.1468C158.085 22.1865 157.302 20.4012 156.104 18.9863L158.815 16.2748C160.698 18.3946 161.902 21.1318 162.077 24.1468H158.244Z" fill="#11F8A5"/>
<path d="M67.288 42.1694C57.654 32.5354 57.654 16.8614 67.288 7.22744C76.922 -2.40654 92.5959 -2.40654 102.23 7.22744C111.864 16.8614 111.864 32.5354 102.23 42.1694C92.5959 51.8034 76.922 51.8034 67.288 42.1694ZM101.065 8.39186C92.0735 -0.600171 77.4444 -0.600171 68.4547 8.39186C59.4627 17.3839 59.4627 32.0129 68.4547 41.0026C77.4468 49.9947 92.0758 49.9947 101.065 41.0026C110.058 32.0106 110.058 17.3815 101.065 8.39186Z" fill="white"/>
<path d="M101.334 19.4575C101.247 19.3708 101.177 19.2607 101.137 19.1388C100.282 16.6085 98.8857 14.3664 96.988 12.4686C95.0926 10.5732 92.8481 9.17685 90.3178 8.31935C89.9827 8.20455 89.7578 7.89295 89.7578 7.53917V1.53433C89.7578 1.2813 89.875 1.04232 90.0741 0.885345C90.2756 0.728371 90.5357 0.674488 90.7793 0.735403C95.1043 1.81782 99.0638 4.06231 102.227 7.22756C105.39 10.3928 107.634 14.35 108.717 18.6749C108.777 18.921 108.721 19.181 108.567 19.3825C108.41 19.584 108.171 19.6988 107.918 19.6988H101.913C101.688 19.6988 101.482 19.6074 101.329 19.4551L101.334 19.4575ZM98.1524 11.3042C100.088 13.2394 101.547 15.5074 102.498 18.0517H106.842C105.75 14.4156 103.766 11.0933 101.065 8.39198C98.3633 5.69062 95.041 3.70619 91.4072 2.61675V6.96048C93.9516 7.90935 96.2195 9.36897 98.1547 11.3065L98.1524 11.3042Z" fill="white"/>
<path d="M67.2858 42.1691C64.1229 39.0062 61.876 35.0467 60.7936 30.7217C60.7327 30.4757 60.7889 30.2156 60.9436 30.0165C61.1006 29.815 61.3395 29.7002 61.5925 29.7002H67.5974C67.9512 29.7002 68.2651 29.9251 68.3776 30.2602C69.2327 32.7905 70.6291 35.0326 72.5268 36.9304C74.4222 38.8258 76.6668 40.2221 79.1971 41.0796C79.5321 41.1921 79.757 41.506 79.757 41.8598V47.8647C79.757 48.1177 79.6399 48.3567 79.4407 48.5137C79.2392 48.6706 78.9792 48.7245 78.7332 48.6636C74.4082 47.5812 70.451 45.3367 67.2858 42.1738V42.1691ZM62.6726 31.3449C63.7644 34.9811 65.7488 38.3033 68.4502 41.0047C71.1516 43.706 74.4738 45.6905 78.11 46.7822V42.4385C75.5656 41.4896 73.2977 40.03 71.3624 38.0948C69.4272 36.1596 67.9676 33.8916 67.0164 31.3473H62.6726V31.3449Z" fill="white"/>
<path d="M89.9991 48.4441C89.8445 48.2895 89.7578 48.081 89.7578 47.8607V41.8559C89.7578 41.5021 89.9827 41.1882 90.3178 41.0757C92.8481 40.2206 95.0902 38.8242 96.988 36.9265C98.8857 35.0287 100.28 32.7866 101.137 30.2562C101.25 29.9212 101.564 29.6963 101.917 29.6963H107.922C108.175 29.6963 108.414 29.8134 108.571 30.0126C108.728 30.2117 108.782 30.4741 108.721 30.7178C107.636 35.0428 105.392 38.9999 102.229 42.1652C99.0661 45.3304 95.1066 47.5749 90.7817 48.6573C90.5357 48.7182 90.2756 48.662 90.0764 48.5074C90.0507 48.484 90.0249 48.4629 90.0015 48.4394L89.9991 48.4441ZM91.4049 42.437V46.7807C95.041 45.6889 98.3633 43.7045 101.065 41.0031C103.766 38.3017 105.748 34.9795 106.842 31.3433H102.498C101.55 33.8877 100.09 36.1533 98.1524 38.0909C96.2172 40.0261 93.9493 41.4881 91.4049 42.437Z" fill="white"/>
<path d="M61.0095 19.4571C60.9861 19.4337 60.9627 19.4079 60.9439 19.3821C60.787 19.183 60.7331 18.9206 60.794 18.6746C61.8764 14.3496 64.1209 10.3901 67.2862 7.22719C70.4514 4.06429 74.4085 1.81745 78.7335 0.735035C78.9795 0.67412 79.2396 0.730346 79.4387 0.884977C79.6379 1.04195 79.7551 1.28093 79.7551 1.53396V7.5388C79.7551 7.89258 79.5301 8.20653 79.1951 8.31898C76.6648 9.17414 74.4226 10.5705 72.5249 12.4682C70.6295 14.3637 69.2331 16.6081 68.3756 19.1385C68.2631 19.4735 67.9492 19.6984 67.5954 19.6984H61.5906C61.3704 19.6984 61.1595 19.6117 61.0072 19.4595L61.0095 19.4571ZM78.108 2.61638C74.4718 3.70817 71.1496 5.6926 68.4482 8.39396C65.7469 11.0953 63.7648 14.4175 62.6707 18.0537H67.0144C67.9633 15.5093 69.4229 13.2437 71.3604 11.3062C73.2957 9.37094 75.5636 7.91132 78.108 6.96011V2.61638Z" fill="white"/>
<path d="M98.1563 11.3041C90.7715 3.91933 78.7524 3.91698 71.3676 11.3041C63.9805 18.6913 63.9828 30.708 71.3676 38.0928C78.7524 45.4776 90.7691 45.4799 98.1563 38.0928C105.543 30.7056 105.541 18.6889 98.1563 11.3041Z" fill="white"/>
<path d="M91.5904 31.4595L77.9832 31.5498C77.41 31.5536 76.9484 32.0213 76.9522 32.5945L76.9554 33.0795C76.9592 33.6527 77.427 34.1143 78.0002 34.1105L91.6074 34.0202C92.1806 34.0164 92.6422 33.5487 92.6384 32.9755L92.6352 32.4905C92.6314 31.9173 92.1636 31.4557 91.5904 31.4595Z" fill="#191D0A"/>
<path d="M79.8389 23.2459C79.6913 23.2459 79.5414 23.2131 79.4055 23.1475L78.3442 22.6344C77.8826 22.4095 77.6718 21.8636 77.8639 21.388L78.3512 20.1744C78.5012 19.8042 78.8549 19.5629 79.2532 19.5605C79.4243 19.5605 79.5929 19.6027 79.7429 19.6894L81.0081 20.411C81.2447 20.5446 81.4157 20.7765 81.4766 21.0436C81.5375 21.3107 81.4837 21.5918 81.329 21.8168L80.6355 22.8219C80.4551 23.0843 80.1552 23.2436 79.8366 23.2436L79.8389 23.2459Z" fill="#191D0A"/>
<path d="M89.6355 23.1807C89.3168 23.1807 89.0146 23.0284 88.8319 22.7684L88.1454 21.8007C87.9861 21.5782 87.9299 21.297 87.9861 21.0299C88.0423 20.7628 88.211 20.5285 88.4476 20.3903L89.7526 19.6242C89.9002 19.5375 90.0689 19.4906 90.2399 19.4883C90.6382 19.486 90.9967 19.7226 91.1513 20.0904L91.6433 21.2689C91.8401 21.7422 91.6363 22.2927 91.1794 22.5223L90.0689 23.0776C89.9354 23.1432 89.7854 23.1807 89.6378 23.1807H89.6355Z" fill="#191D0A"/>
<path d="M78.7686 30.6405C78.1711 30.6452 77.6346 30.2703 77.4308 29.708L75.1605 23.4595C75.0153 23.5298 74.8606 23.5837 74.7036 23.6235C74.5186 23.6704 74.3311 23.6938 74.1413 23.6938C74.0312 23.6938 73.9235 23.6891 73.818 23.6751C72.6349 23.5251 71.7376 22.5106 71.7305 21.3158C71.7212 19.9944 72.7895 18.912 74.1109 18.9026C75.4323 18.8932 76.5147 19.9616 76.5217 21.283C76.5217 21.5875 76.4702 21.8804 76.3624 22.1545C76.3038 22.3045 76.2312 22.4474 76.1469 22.5833L80.4648 24.6731L83.7683 19.8866C83.6301 19.828 83.4965 19.7554 83.37 19.6687C83.131 19.507 82.9225 19.3056 82.7538 19.0689C82.468 18.666 82.3134 18.1903 82.311 17.6983C82.3016 16.3769 83.37 15.2945 84.6914 15.2852C84.75 15.2852 84.8109 15.2852 84.8695 15.2898C86.0526 15.3695 87.0085 16.3184 87.0952 17.5015C87.1351 18.0615 86.9875 18.598 86.6688 19.0549C86.5001 19.2938 86.2939 19.4977 86.0573 19.6593C85.9331 19.746 85.7996 19.8187 85.6614 19.8772L89.0234 24.6146L93.2711 22.4896C93.1914 22.3373 93.1282 22.1779 93.0813 22.0116C93.0251 21.8101 92.9946 21.5993 92.9946 21.386C92.9946 21.29 92.9993 21.1939 93.0087 21.1002C93.1446 19.896 94.1614 18.9822 95.3727 18.9752C96.6941 18.9658 97.7765 20.0342 97.7835 21.3556C97.7929 22.6161 96.8135 23.6751 95.5554 23.7617L95.4055 23.7664C95.1618 23.7664 94.9228 23.7336 94.6909 23.6633C94.541 23.6165 94.3957 23.5579 94.2598 23.4829L92.1278 29.6096C91.9333 30.1743 91.3991 30.5538 90.8017 30.5585L78.7686 30.6381V30.6405Z" fill="#191D0A"/>
<path d="M25.0087 0.191556L84.126 0.191556C84.6147 0.191556 85.0057 0.58774 85.0057 1.07138C85.0057 1.55502 84.6096 1.95117 84.126 1.95117L25.0087 1.95117C24.5199 1.95117 24.1289 1.55502 24.1289 1.07138C24.1289 0.58774 24.5251 0.191556 25.0087 0.191556Z" fill="white"/>
<path d="M24.8798 47.4191L83.997 47.4191C84.4858 47.4191 84.8768 47.8152 84.8768 48.2989C84.8768 48.7825 84.4807 49.1787 83.997 49.1787L24.8798 49.1787C24.391 49.1787 24 48.7825 24 48.2989C24 47.8152 24.3962 47.4191 24.8798 47.4191Z" fill="white"/>
</g>
</svg>
