<svg width="660" height="50" viewBox="0 0 660 50" fill="none" xmlns="http://www.w3.org/2000/svg">
<g opacity="0.2">
<path d="M635.018 49.0632C628.741 49.0632 622.469 46.6759 617.689 41.8961C608.135 32.3417 608.135 16.7983 617.689 7.24383C622.32 2.61324 628.473 0.0664062 635.018 0.0664062C641.563 0.0664062 647.716 2.61324 652.347 7.24383C661.901 16.7983 661.901 32.3417 652.347 41.8961C647.572 46.6708 641.295 49.0632 635.018 49.0632ZM618.976 40.6098C627.82 49.4543 642.211 49.4543 651.055 40.6098C659.9 31.7654 659.9 17.3745 651.055 8.53011C646.769 4.24424 641.074 1.88779 635.013 1.88779C628.952 1.88779 623.256 4.24938 618.97 8.53011C610.126 17.3745 610.126 31.7654 618.97 40.6098H618.976Z" fill="#EBF29D"/>
<path d="M634.694 33.7393C634.782 33.9502 634.988 34.0737 635.204 34.0737C635.276 34.0737 635.348 34.0582 635.42 34.0325C637.149 33.3071 638.723 32.1854 639.968 30.7859C640.169 30.5595 640.148 30.2097 639.922 30.0091C639.695 29.8084 639.345 29.829 639.145 30.0554C638.008 31.3365 636.572 32.3604 634.993 33.0189C634.715 33.1373 634.581 33.4614 634.699 33.7393H634.694Z" fill="#EBF29D"/>
<path d="M644.356 16.1018L635.218 12.4487C635.084 12.3973 634.94 12.3973 634.807 12.4487L625.669 16.1018C625.458 16.1841 625.324 16.3848 625.324 16.6111V23.1557C625.335 29.1961 629.152 34.655 634.822 36.7336C634.884 36.7542 634.946 36.7645 635.012 36.7645C635.079 36.7645 635.141 36.7542 635.203 36.7336C640.873 34.6499 644.69 29.1961 644.701 23.1557V16.6111C644.701 16.3848 644.567 16.1841 644.356 16.1018ZM643.6 23.1557C643.589 28.6507 640.142 33.6568 635.018 35.6274C629.893 33.6568 626.441 28.6507 626.43 23.1557V16.9867L635.018 13.555L643.6 16.9867V23.1557Z" fill="#EBF29D"/>
<path d="M631.201 16.9604C631.067 16.9038 630.918 16.9038 630.779 16.9604L628.603 17.83C628.392 17.9123 628.258 18.1129 628.258 18.3393V20.6598C628.258 20.9633 628.505 21.2103 628.808 21.2103C629.112 21.2103 629.359 20.9633 629.359 20.6598V18.7149L631.185 17.9843C631.324 17.9278 631.427 17.8248 631.489 17.6859C631.546 17.5521 631.546 17.4029 631.489 17.264C631.432 17.1251 631.329 17.0222 631.196 16.9604H631.201Z" fill="#EBF29D"/>
<path d="M648.936 10.6571C645.221 6.93714 640.277 4.89453 635.019 4.89453C629.76 4.89453 624.821 6.94229 621.101 10.6571C613.43 18.3284 613.43 30.8156 621.101 38.4921C624.939 42.3303 629.976 44.2443 635.019 44.2443C640.061 44.2443 645.098 42.3252 648.936 38.4921C656.608 30.8207 656.608 18.3335 648.936 10.6571ZM646.214 23.1545C646.23 30.1364 641.769 36.2437 635.116 38.3583C635.055 38.3789 634.988 38.3789 634.921 38.3583C628.268 36.2437 623.808 30.1364 623.823 23.1545V15.4317C623.823 15.3031 623.9 15.1847 624.024 15.1333L634.9 10.7857C634.936 10.7702 634.978 10.7651 635.019 10.7651C635.06 10.7651 635.101 10.7702 635.137 10.7857L646.014 15.1384C646.137 15.1848 646.214 15.3031 646.214 15.4368V23.1596V23.1545Z" fill="#EBF29D"/>
<path d="M572.44 49.0556C558.934 49.0556 547.949 38.0656 547.949 24.5649C547.949 11.0641 558.939 0.0742188 572.44 0.0742188C585.941 0.0742188 596.931 11.0641 596.931 24.5649C596.931 38.0656 585.941 49.0556 572.44 49.0556ZM572.44 1.70521C559.834 1.70521 549.58 11.9594 549.58 24.5649C549.58 37.1704 559.834 47.4246 572.44 47.4246C585.045 47.4246 595.3 37.1704 595.3 24.5649C595.3 11.9594 585.045 1.70521 572.44 1.70521Z" fill="#DA7DB5"/>
<path d="M588.422 7.09001L580.84 14.6719L582.331 16.1635L589.913 8.58166L588.422 7.09001Z" fill="#DA7DB5"/>
<path d="M562.32 33.1877L554.738 40.7695L556.23 42.2612L563.812 34.6793L562.32 33.1877Z" fill="#DA7DB5"/>
<path d="M582.554 33.192L581.062 34.6836L588.644 42.2655L590.136 40.7738L582.554 33.192Z" fill="#DA7DB5"/>
<path d="M556.23 6.86384L554.738 8.35547L562.317 15.9337L563.808 14.4421L556.23 6.86384Z" fill="#DA7DB5"/>
<path d="M578.411 25.2236C578.905 24.7296 578.905 23.9321 578.411 23.4433L577.361 22.3989C576.868 21.905 576.07 21.905 575.581 22.3989L575.015 22.9649L574.362 22.3114C573.868 21.8175 573.07 21.8175 572.582 22.3114L572.016 22.8826L571.362 22.224C570.868 21.73 570.071 21.73 569.582 22.224L566.109 25.6969C566.083 25.7226 566.083 25.7638 566.109 25.7947C566.572 26.2577 567.329 26.2577 567.797 25.7947L570.035 23.5566C570.277 23.3147 570.668 23.3147 570.91 23.5566L571.074 23.7212C571.105 23.7521 571.105 23.7984 571.074 23.8292L569.206 25.6969C569.181 25.7226 569.181 25.7638 569.206 25.7947C569.67 26.2577 570.426 26.2577 570.894 25.7947L573.04 23.6492C573.281 23.4073 573.672 23.4073 573.914 23.6492L574.079 23.8138C574.105 23.8395 574.105 23.8807 574.079 23.9116L572.278 25.7124C572.252 25.7381 572.252 25.7792 572.278 25.8101C572.741 26.2732 573.498 26.2732 573.966 25.8101L576.039 23.7366C576.281 23.4948 576.672 23.4948 576.914 23.7366L577.269 24.0916C577.408 24.2306 577.408 24.4621 577.269 24.601L577.212 24.6576C577.073 24.7965 576.842 24.7965 576.703 24.6576L576.245 24.1997C576.219 24.174 576.178 24.174 576.147 24.1997L575.355 24.992C575.329 25.0178 575.329 25.0589 575.355 25.0898L576.07 25.805C576.564 26.2989 577.361 26.2989 577.85 25.805L578.416 25.239L578.411 25.2236Z" fill="#DA7DB5"/>
<path d="M572.44 5.78516C562.067 5.78516 553.66 14.1923 553.66 24.5648C553.66 34.9373 562.067 43.3444 572.44 43.3444C582.812 43.3444 591.219 34.9373 591.219 24.5648C591.219 14.1923 582.812 5.78516 572.44 5.78516ZM573.206 11.5837C576.221 11.7586 578.959 12.9626 581.078 14.8457L578.367 17.5572C576.952 16.3583 575.167 15.5814 573.206 15.4168V11.5837ZM571.678 11.5837V15.4168C569.718 15.5763 567.933 16.3583 566.518 17.5572L563.806 14.8457C565.926 12.9626 568.663 11.7586 571.678 11.5837ZM562.726 15.9262L565.437 18.6376C564.238 20.0525 563.462 21.8379 563.297 23.7982H559.464C559.639 20.7831 560.843 18.0459 562.726 15.9262ZM559.464 25.3263H563.297C563.456 27.2866 564.238 29.0719 565.437 30.4868L562.726 33.1983C560.843 31.0785 559.639 28.3413 559.464 25.3263ZM571.678 37.5407C568.663 37.3658 565.926 36.1618 563.806 34.2787L566.518 31.5673C567.933 32.7661 569.718 33.543 571.678 33.7076V37.5407ZM564.547 24.5596C564.547 20.2017 568.082 16.6671 572.44 16.6671C576.798 16.6671 580.332 20.2017 580.332 24.5596C580.332 28.9175 576.798 32.4522 572.44 32.4522C568.082 32.4522 564.547 28.9175 564.547 24.5596ZM573.206 37.5407V33.7076C575.167 33.5481 576.952 32.7661 578.367 31.5673L581.078 34.2787C578.959 36.1618 576.221 37.3658 573.206 37.5407ZM582.159 33.1983L579.447 30.4868C580.646 29.0719 581.423 27.2866 581.588 25.3263H585.421C585.246 28.3413 584.042 31.0785 582.159 33.1983ZM581.588 23.7982C581.428 21.8379 580.646 20.0525 579.447 18.6376L582.159 15.9262C584.042 18.0459 585.246 20.7831 585.421 23.7982H581.588Z" fill="#DA7DB5"/>
<path d="M511.413 48.9813C497.907 48.9813 486.922 37.9914 486.922 24.4907C486.922 10.9899 497.912 0 511.413 0C524.913 0 535.903 10.9899 535.903 24.4907C535.903 37.9914 524.913 48.9813 511.413 48.9813ZM511.413 1.63099C498.807 1.63099 488.553 11.8852 488.553 24.4907C488.553 37.0962 498.807 47.3504 511.413 47.3504C524.018 47.3504 534.272 37.0962 534.272 24.4907C534.272 11.8852 524.018 1.63099 511.413 1.63099Z" fill="#EBF29D"/>
<path d="M519.36 9.19944C519.237 9.19944 519.113 9.1737 519 9.1171C516.628 7.94402 514.076 7.34719 511.416 7.34719C508.756 7.34719 506.204 7.94402 503.832 9.1171C503.518 9.27146 503.143 9.20972 502.896 8.96276L498.687 4.75407C498.507 4.57399 498.425 4.32702 498.456 4.07491C498.486 3.8228 498.631 3.60157 498.847 3.47294C502.639 1.19881 506.986 0 511.421 0C515.856 0 520.204 1.20395 523.996 3.47294C524.212 3.60157 524.356 3.8228 524.387 4.07491C524.418 4.32702 524.33 4.57399 524.155 4.75407L519.947 8.96276C519.787 9.11711 519.581 9.19944 519.365 9.19944H519.36ZM511.416 5.7162C514.128 5.7162 516.741 6.28217 519.19 7.39866L522.236 4.35274C518.923 2.56739 515.203 1.63099 511.416 1.63099C507.629 1.63099 503.909 2.56739 500.596 4.35274L503.642 7.39866C506.091 6.28217 508.705 5.7162 511.416 5.7162Z" fill="#EBF29D"/>
<path d="M511.413 48.9806C506.978 48.9806 502.63 47.7766 498.839 45.5076C498.622 45.379 498.478 45.1578 498.448 44.9056C498.417 44.6535 498.504 44.4066 498.679 44.2265L502.888 40.0178C503.135 39.7708 503.515 39.7091 503.824 39.8635C506.196 41.0365 508.748 41.6334 511.408 41.6334C514.068 41.6334 516.62 41.0365 518.992 39.8635C519.306 39.7091 519.681 39.7708 519.928 40.0178L524.137 44.2265C524.317 44.4066 524.399 44.6535 524.369 44.9056C524.338 45.1578 524.194 45.379 523.978 45.5076C520.186 47.7817 515.838 48.9806 511.403 48.9806H511.413ZM500.593 44.6278C503.906 46.4132 507.626 47.3496 511.413 47.3496C515.2 47.3496 518.92 46.4132 522.233 44.6278L519.187 41.5819C516.738 42.6984 514.125 43.2644 511.413 43.2644C508.702 43.2644 506.088 42.6984 503.639 41.5819L500.593 44.6278Z" fill="#EBF29D"/>
<path d="M531.73 37.4618C531.514 37.4618 531.309 37.3795 531.154 37.2251L526.946 33.0165C526.699 32.7695 526.637 32.3887 526.791 32.08C527.964 29.7081 528.561 27.1562 528.561 24.4962C528.561 21.8361 527.964 19.2842 526.791 16.9123C526.637 16.5984 526.699 16.2177 526.946 15.9759L531.154 11.7672C531.334 11.5871 531.581 11.5048 531.833 11.5357C532.085 11.5665 532.307 11.7106 532.435 11.9267C534.709 15.7186 535.908 20.0662 535.908 24.5013C535.908 28.9364 534.709 33.284 532.435 37.0759C532.307 37.292 532.085 37.4361 531.833 37.467C531.797 37.467 531.766 37.467 531.73 37.467V37.4618ZM528.505 32.2653L531.55 35.3112C533.336 31.9977 534.272 28.2778 534.272 24.491C534.272 20.7042 533.336 16.9843 531.55 13.6709L528.505 16.7168C529.621 19.1658 530.187 21.7795 530.187 24.491C530.187 27.2025 529.621 29.8162 528.505 32.2653Z" fill="#EBF29D"/>
<path d="M491.095 37.4621C491.059 37.4621 491.028 37.4621 490.997 37.457C490.745 37.4261 490.523 37.282 490.395 37.0659C488.121 33.274 486.922 28.9264 486.922 24.4913C486.922 20.0562 488.121 15.7086 490.395 11.9167C490.523 11.7006 490.745 11.5565 490.997 11.5256C491.249 11.4948 491.496 11.5822 491.676 11.7572L495.885 15.9659C496.132 16.2128 496.193 16.5936 496.039 16.9023C494.866 19.2742 494.269 21.8261 494.269 24.4862C494.269 27.1462 494.866 29.6981 496.039 32.07C496.193 32.3839 496.132 32.7646 495.885 33.0064L491.676 37.2151C491.522 37.3695 491.316 37.457 491.1 37.457L491.095 37.4621ZM491.275 13.6712C489.489 16.9846 488.553 20.7045 488.553 24.4913C488.553 28.2781 489.489 31.998 491.275 35.3115L494.321 32.2655C493.204 29.8165 492.638 27.2028 492.638 24.4913C492.638 21.7798 493.204 19.1661 494.321 16.7171L491.275 13.6712Z" fill="#EBF29D"/>
<path d="M511.412 5.71094C501.06 5.71094 492.633 14.1335 492.633 24.4906C492.633 34.8477 501.055 43.2702 511.412 43.2702C521.77 43.2702 530.192 34.8477 530.192 24.4906C530.192 14.1335 521.77 5.71094 511.412 5.71094ZM521.98 18.3216C522.871 19.8445 523.411 21.5064 523.586 23.2712C523.591 23.3432 523.56 23.4101 523.498 23.4461C522.155 24.2693 520.951 25.2778 519.912 26.456C519.866 26.5126 519.789 26.5332 519.722 26.5074L517.401 25.7511C517.334 25.7305 517.288 25.674 517.278 25.6019C517.015 23.6828 516.419 21.846 515.503 20.1378C515.472 20.0761 515.477 20.004 515.518 19.9474L516.954 17.9717C516.99 17.9254 517.046 17.8945 517.103 17.8945C517.118 17.8945 517.129 17.8945 517.144 17.8945C518.677 18.2341 520.252 18.3473 521.816 18.2187C521.888 18.2135 521.955 18.2495 521.991 18.3113L521.98 18.3216ZM516.012 25.926C516.017 25.9775 516.002 26.0289 515.971 26.065C514.752 27.4696 513.198 28.5964 511.484 29.3167C511.438 29.3372 511.392 29.3372 511.346 29.3167C509.632 28.5912 508.078 27.4644 506.859 26.065C506.828 26.0289 506.813 25.9775 506.818 25.926C507.055 24.0635 507.636 22.2833 508.536 20.6369C508.562 20.5906 508.603 20.5597 508.655 20.5494C509.56 20.3591 510.486 20.2613 511.418 20.2613C512.349 20.2613 513.275 20.3591 514.181 20.5494C514.232 20.5597 514.273 20.5906 514.299 20.6369C515.199 22.2833 515.775 24.0635 516.017 25.926H516.012ZM515.734 13.1559C515.734 13.1559 515.796 13.1044 515.858 13.1044C515.878 13.1044 515.904 13.1045 515.93 13.1199C517.823 13.8711 519.516 15.1059 520.833 16.6854C520.9 16.7626 520.874 16.8449 520.859 16.8758C520.849 16.9015 520.802 16.9839 520.694 16.9839C519.526 16.9993 518.363 16.8655 517.237 16.598C517.19 16.5877 517.149 16.5568 517.124 16.5157C516.522 15.5226 516.038 14.4525 515.688 13.3411C515.657 13.2434 515.714 13.1765 515.739 13.1559H515.734ZM508.814 12.5385C510.517 12.1732 512.313 12.1732 514.016 12.5385C514.083 12.5539 514.139 12.6054 514.155 12.6723C514.52 14.2004 515.112 15.6616 515.909 17.0147C515.945 17.0765 515.94 17.1536 515.899 17.2154L514.474 19.1808C514.433 19.2374 514.361 19.2683 514.294 19.2529C512.411 18.8721 510.419 18.8721 508.536 19.2529C508.469 19.2683 508.397 19.2374 508.356 19.1808L506.931 17.2154C506.89 17.1588 506.885 17.0765 506.921 17.0147C507.718 15.6616 508.31 14.2004 508.675 12.6723C508.691 12.6054 508.747 12.5539 508.814 12.5385ZM501.997 16.6854C503.314 15.1008 505.007 13.8659 506.9 13.1199C506.926 13.1096 506.952 13.1044 506.972 13.1044C507.039 13.1044 507.08 13.1405 507.096 13.1559C507.121 13.1816 507.178 13.2434 507.147 13.3411C506.797 14.4576 506.314 15.5226 505.712 16.5157C505.686 16.5568 505.645 16.5877 505.598 16.598C504.472 16.8655 503.309 16.9993 502.141 16.9839C502.033 16.9839 501.987 16.9015 501.976 16.8758C501.961 16.8449 501.935 16.7626 502.002 16.6854H501.997ZM500.85 18.3216C500.88 18.265 500.942 18.229 501.009 18.229C501.009 18.229 501.019 18.229 501.024 18.229C502.594 18.3525 504.168 18.2444 505.696 17.9048C505.768 17.8894 505.84 17.9151 505.881 17.9769L507.317 19.9526C507.358 20.0092 507.363 20.0863 507.332 20.1429C506.417 21.8511 505.82 23.6879 505.557 25.607C505.547 25.6739 505.501 25.7305 505.434 25.7563L503.113 26.5126C503.046 26.5332 502.969 26.5126 502.923 26.4611C501.884 25.2829 500.68 24.2745 499.337 23.4512C499.28 23.4152 499.244 23.3484 499.249 23.2763C499.424 21.5116 499.965 19.8445 500.855 18.3267L500.85 18.3216ZM501.41 30.9991C501.379 31.0969 501.292 31.1175 501.256 31.1226C501.22 31.1226 501.138 31.1226 501.081 31.0403C499.985 29.3167 499.337 27.3204 499.208 25.2726C499.203 25.1697 499.27 25.1183 499.301 25.1028C499.332 25.0874 499.414 25.0514 499.496 25.1131C500.448 25.7871 501.313 26.5795 502.069 27.4593C502.1 27.4953 502.115 27.5416 502.11 27.5931C502.017 28.7507 501.781 29.8981 501.405 31.0043L501.41 30.9991ZM506.494 35.6966C504.888 34.9917 503.474 33.9576 502.29 32.6301C502.244 32.5787 502.228 32.5015 502.254 32.4397C502.856 30.9888 503.237 29.4607 503.386 27.8966C503.391 27.8246 503.443 27.7628 503.51 27.7423L505.804 26.9962C505.804 26.9962 505.84 26.9859 505.861 26.9859C505.912 26.9859 505.959 27.0065 505.995 27.0477C507.281 28.4883 508.891 29.6614 510.656 30.4383C510.723 30.4692 510.764 30.5309 510.764 30.6029V33.016C510.764 33.088 510.723 33.1549 510.656 33.1806C509.215 33.8032 507.878 34.6419 506.679 35.6657C506.627 35.712 506.55 35.7223 506.489 35.6915L506.494 35.6966ZM514.587 36.206C514.582 36.242 514.556 36.3243 514.453 36.35C512.467 36.8542 510.368 36.8542 508.382 36.35C508.284 36.3243 508.253 36.242 508.248 36.206C508.243 36.17 508.233 36.0876 508.32 36.0208C509.257 35.3262 510.275 34.7447 511.351 34.2971C511.397 34.2765 511.443 34.2765 511.49 34.2971C512.56 34.7447 513.579 35.3262 514.52 36.0208C514.602 36.0825 514.597 36.17 514.592 36.206H514.587ZM520.55 32.6353C519.367 33.9627 517.952 34.9917 516.347 35.6966C516.28 35.7275 516.208 35.712 516.156 35.6709C514.957 34.647 513.625 33.8084 512.179 33.1858C512.112 33.1549 512.071 33.0932 512.071 33.0211V30.6081C512.071 30.5361 512.112 30.4692 512.179 30.4434C513.944 29.6665 515.559 28.4934 516.841 27.0528C516.877 27.0117 516.923 26.9911 516.974 26.9911C516.995 26.9911 517.01 26.9911 517.031 27.0014L519.326 27.7474C519.392 27.768 519.444 27.8297 519.449 27.9018C519.598 29.4659 519.979 30.9888 520.581 32.4449C520.607 32.5066 520.596 32.5838 520.545 32.6353H520.55ZM521.754 31.0454C521.698 31.1329 521.61 31.1329 521.579 31.1278C521.543 31.1278 521.461 31.102 521.425 31.0043C521.054 29.8981 520.818 28.7507 520.72 27.5931C520.72 27.5468 520.73 27.4953 520.761 27.4593C521.517 26.5795 522.382 25.7923 523.334 25.1131C523.37 25.0874 523.406 25.0771 523.437 25.0771C523.478 25.0771 523.509 25.0925 523.529 25.1028C523.56 25.1183 523.632 25.1697 523.622 25.2726C523.493 27.3204 522.845 29.3167 521.749 31.0403L521.754 31.0454Z" fill="#EBF29D"/>
<path d="M450.949 0.15679C464.455 0.15679 475.445 11.1467 475.445 24.6526C475.445 38.1585 464.455 49.1484 450.949 49.1484C437.443 49.1484 426.453 38.1585 426.453 24.6526C426.453 11.1467 437.443 0.15679 450.949 0.15679ZM450.949 47.3837C463.482 47.3837 473.68 37.1861 473.68 24.6526C473.68 12.1191 463.482 1.92156 450.949 1.92156C438.415 1.92156 428.218 12.1191 428.218 24.6526C428.218 37.1861 438.415 47.3837 450.949 47.3837Z" fill="#11F8A5"/>
<path d="M391.07 0.155371C391.559 0.155371 391.95 0.551524 391.95 1.03516C391.95 1.5188 391.554 1.91499 391.07 1.91499C378.537 1.91499 368.339 12.1126 368.339 24.646C368.339 37.1795 378.537 47.3771 391.07 47.3771C391.559 47.3771 391.95 47.7733 391.95 48.2569C391.95 48.7406 391.554 49.1367 391.07 49.1367C377.564 49.1367 366.574 38.1468 366.574 24.6409C366.574 11.135 377.564 0.145071 391.07 0.145071V0.155371Z" fill="#11F8A5"/>
<path d="M446.234 20.3197C446.234 21.2201 446.847 22.0021 447.721 22.2182L449.383 22.635V18.3594H448.2C447.119 18.3594 446.24 19.2392 446.24 20.3197H446.234Z" fill="#11F8A5"/>
<path d="M452.521 30.9338H453.704C454.785 30.9338 455.664 30.054 455.664 28.9735C455.664 28.0731 455.052 27.291 454.177 27.075L452.516 26.6582V30.9338H452.521Z" fill="#11F8A5"/>
<path d="M450.953 4.71484C439.963 4.71484 431.016 13.657 431.016 24.6521C431.016 35.6472 439.958 44.5894 450.953 44.5894C461.948 44.5894 470.89 35.6472 470.89 24.6521C470.89 13.657 461.948 4.71484 450.953 4.71484ZM458.815 21.5033H455.671V19.9289C455.671 19.0645 454.966 18.3545 454.097 18.3545H452.522V23.4173L454.946 24.0244C457.22 24.5955 458.809 26.6278 458.809 28.974C458.809 31.7884 456.52 34.0779 453.706 34.0779H452.522V38.0602H449.378V34.0779H447.804C445.201 34.0779 443.086 31.9633 443.086 29.3599V27.7855H446.23V29.3599C446.23 30.2243 446.935 30.9343 447.804 30.9343H449.378V25.8715L446.955 25.2644C444.681 24.6933 443.091 22.661 443.091 20.3148C443.091 17.5004 445.381 15.2109 448.195 15.2109H449.378V11.2286H452.522V15.2109H454.097C456.7 15.2109 458.815 17.3255 458.815 19.9289V21.5033Z" fill="#11F8A5"/>
<path d="M390.696 0.127102L449.813 0.127102C450.302 0.127102 450.693 0.523255 450.693 1.00689C450.693 1.49053 450.297 1.88672 449.813 1.88672L390.696 1.88672C390.207 1.88672 389.816 1.49053 389.816 1.00689C389.816 0.523255 390.213 0.127102 390.696 0.127102Z" fill="#11F8A5"/>
<path d="M390.567 47.3498L449.685 47.3498C450.173 47.3498 450.564 47.7459 450.564 48.2296C450.564 48.7132 450.168 49.1094 449.685 49.1094L390.567 49.1094C390.079 49.1094 389.688 48.7132 389.688 48.2296C389.688 47.7459 390.084 47.3498 390.567 47.3498Z" fill="#11F8A5"/>
<path d="M326.952 49.0632C320.675 49.0632 314.403 46.6759 309.623 41.8961C300.068 32.3417 300.068 16.7983 309.623 7.24383C314.253 2.61324 320.407 0.0664062 326.952 0.0664062C333.496 0.0664062 339.65 2.61324 344.28 7.24383C353.835 16.7983 353.835 32.3417 344.28 41.8961C339.506 46.6708 333.229 49.0632 326.952 49.0632ZM310.909 40.6098C319.754 49.4543 334.144 49.4543 342.989 40.6098C351.833 31.7654 351.833 17.3745 342.989 8.53011C338.703 4.24424 333.007 1.88779 326.946 1.88779C320.886 1.88779 315.19 4.24938 310.904 8.53011C302.06 17.3745 302.06 31.7654 310.904 40.6098H310.909Z" fill="#EBF29D"/>
<path d="M326.628 33.7393C326.715 33.9502 326.921 34.0737 327.137 34.0737C327.209 34.0737 327.281 34.0582 327.353 34.0325C329.082 33.3071 330.657 32.1854 331.902 30.7859C332.102 30.5595 332.082 30.2097 331.855 30.0091C331.629 29.8084 331.279 29.829 331.078 30.0554C329.941 31.3365 328.506 32.3604 326.926 33.0189C326.648 33.1373 326.515 33.4614 326.633 33.7393H326.628Z" fill="#EBF29D"/>
<path d="M336.29 16.1018L327.152 12.4487C327.018 12.3973 326.874 12.3973 326.74 12.4487L317.603 16.1018C317.392 16.1841 317.258 16.3848 317.258 16.6111V23.1557C317.268 29.1961 321.086 34.655 326.756 36.7336C326.817 36.7542 326.879 36.7645 326.946 36.7645C327.013 36.7645 327.075 36.7542 327.136 36.7336C332.806 34.6499 336.624 29.1961 336.634 23.1557V16.6111C336.634 16.3848 336.5 16.1841 336.29 16.1018ZM335.533 23.1557C335.523 28.6507 332.076 33.6568 326.951 35.6274C321.827 33.6568 318.374 28.6507 318.364 23.1557V16.9867L326.951 13.555L335.533 16.9867V23.1557Z" fill="#EBF29D"/>
<path d="M323.134 16.9604C323.001 16.9038 322.851 16.9038 322.712 16.9604L320.536 17.83C320.325 17.9123 320.191 18.1129 320.191 18.3393V20.6598C320.191 20.9633 320.438 21.2103 320.742 21.2103C321.045 21.2103 321.292 20.9633 321.292 20.6598V18.7149L323.119 17.9843C323.258 17.9278 323.361 17.8248 323.423 17.6859C323.479 17.5521 323.479 17.4029 323.423 17.264C323.366 17.1251 323.263 17.0222 323.129 16.9604H323.134Z" fill="#EBF29D"/>
<path d="M340.87 10.6571C337.155 6.93714 332.211 4.89453 326.952 4.89453C321.694 4.89453 316.755 6.94229 313.035 10.6571C305.363 18.3284 305.363 30.8156 313.035 38.4921C316.873 42.3303 321.91 44.2443 326.952 44.2443C331.994 44.2443 337.032 42.3252 340.87 38.4921C348.541 30.8207 348.541 18.3335 340.87 10.6571ZM338.148 23.1545C338.163 30.1364 333.703 36.2437 327.05 38.3583C326.988 38.3789 326.921 38.3789 326.854 38.3583C320.202 36.2437 315.741 30.1364 315.757 23.1545V15.4317C315.757 15.3031 315.834 15.1847 315.957 15.1333L326.834 10.7857C326.87 10.7702 326.911 10.7651 326.952 10.7651C326.993 10.7651 327.035 10.7702 327.071 10.7857L337.947 15.1384C338.071 15.1848 338.148 15.3031 338.148 15.4368V23.1596V23.1545Z" fill="#EBF29D"/>
<path d="M264.377 49.0556C250.871 49.0556 239.887 38.0656 239.887 24.5649C239.887 11.0641 250.877 0.0742188 264.377 0.0742188C277.878 0.0742188 288.868 11.0641 288.868 24.5649C288.868 38.0656 277.878 49.0556 264.377 49.0556ZM264.377 1.70521C251.772 1.70521 241.518 11.9594 241.518 24.5649C241.518 37.1704 251.772 47.4246 264.377 47.4246C276.983 47.4246 287.237 37.1704 287.237 24.5649C287.237 11.9594 276.983 1.70521 264.377 1.70521Z" fill="#DA7DB5"/>
<path d="M280.359 7.09001L272.777 14.6719L274.269 16.1635L281.851 8.58166L280.359 7.09001Z" fill="#DA7DB5"/>
<path d="M254.258 33.1877L246.676 40.7695L248.167 42.2612L255.749 34.6793L254.258 33.1877Z" fill="#DA7DB5"/>
<path d="M274.492 33.192L273 34.6836L280.582 42.2655L282.073 40.7738L274.492 33.192Z" fill="#DA7DB5"/>
<path d="M248.167 6.86384L246.676 8.35547L254.254 15.9337L255.746 14.4421L248.167 6.86384Z" fill="#DA7DB5"/>
<path d="M270.349 25.2236C270.843 24.7296 270.843 23.9321 270.349 23.4433L269.299 22.3989C268.805 21.905 268.008 21.905 267.519 22.3989L266.953 22.9649L266.299 22.3114C265.805 21.8175 265.008 21.8175 264.519 22.3114L263.953 22.8826L263.3 22.224C262.806 21.73 262.008 21.73 261.52 22.224L258.047 25.6969C258.021 25.7226 258.021 25.7638 258.047 25.7947C258.51 26.2577 259.266 26.2577 259.734 25.7947L261.972 23.5566C262.214 23.3147 262.605 23.3147 262.847 23.5566L263.012 23.7212C263.043 23.7521 263.043 23.7984 263.012 23.8292L261.144 25.6969C261.118 25.7226 261.118 25.7638 261.144 25.7947C261.607 26.2577 262.363 26.2577 262.832 25.7947L264.977 23.6492C265.219 23.4073 265.61 23.4073 265.852 23.6492L266.016 23.8138C266.042 23.8395 266.042 23.8807 266.016 23.9116L264.216 25.7124C264.19 25.7381 264.19 25.7792 264.216 25.8101C264.679 26.2732 265.435 26.2732 265.903 25.8101L267.977 23.7366C268.218 23.4948 268.61 23.4948 268.851 23.7366L269.206 24.0916C269.345 24.2306 269.345 24.4621 269.206 24.601L269.15 24.6576C269.011 24.7965 268.779 24.7965 268.64 24.6576L268.182 24.1997C268.157 24.174 268.116 24.174 268.085 24.1997L267.292 24.992C267.267 25.0178 267.267 25.0589 267.292 25.0898L268.008 25.805C268.501 26.2989 269.299 26.2989 269.788 25.805L270.354 25.239L270.349 25.2236Z" fill="#DA7DB5"/>
<path d="M264.377 5.78516C254.005 5.78516 245.598 14.1923 245.598 24.5648C245.598 34.9373 254.005 43.3444 264.377 43.3444C274.75 43.3444 283.157 34.9373 283.157 24.5648C283.157 14.1923 274.75 5.78516 264.377 5.78516ZM265.144 11.5837C268.159 11.7586 270.896 12.9626 273.016 14.8457L270.304 17.5572C268.89 16.3583 267.104 15.5814 265.144 15.4168V11.5837ZM263.616 11.5837V15.4168C261.656 15.5763 259.87 16.3583 258.455 17.5572L255.744 14.8457C257.864 12.9626 260.601 11.7586 263.616 11.5837ZM254.663 15.9262L257.375 18.6376C256.176 20.0525 255.399 21.8379 255.234 23.7982H251.401C251.576 20.7831 252.78 18.0459 254.663 15.9262ZM251.401 25.3263H255.234C255.394 27.2866 256.176 29.0719 257.375 30.4868L254.663 33.1983C252.78 31.0785 251.576 28.3413 251.401 25.3263ZM263.616 37.5407C260.601 37.3658 257.864 36.1618 255.744 34.2787L258.455 31.5673C259.87 32.7661 261.656 33.543 263.616 33.7076V37.5407ZM256.485 24.5596C256.485 20.2017 260.019 16.6671 264.377 16.6671C268.735 16.6671 272.27 20.2017 272.27 24.5596C272.27 28.9175 268.735 32.4522 264.377 32.4522C260.019 32.4522 256.485 28.9175 256.485 24.5596ZM265.144 37.5407V33.7076C267.104 33.5481 268.89 32.7661 270.304 31.5673L273.016 34.2787C270.896 36.1618 268.159 37.3658 265.144 37.5407ZM274.096 33.1983L271.385 30.4868C272.584 29.0719 273.361 27.2866 273.525 25.3263H277.358C277.183 28.3413 275.979 31.0785 274.096 33.1983ZM273.525 23.7982C273.366 21.8379 272.584 20.0525 271.385 18.6376L274.096 15.9262C275.979 18.0459 277.183 20.7831 277.358 23.7982H273.525Z" fill="#DA7DB5"/>
<path d="M203.346 48.9813C189.84 48.9813 178.855 37.9914 178.855 24.4907C178.855 10.9899 189.845 0 203.346 0C216.847 0 227.837 10.9899 227.837 24.4907C227.837 37.9914 216.847 48.9813 203.346 48.9813ZM203.346 1.63099C190.741 1.63099 180.486 11.8852 180.486 24.4907C180.486 37.0962 190.741 47.3504 203.346 47.3504C215.952 47.3504 226.206 37.0962 226.206 24.4907C226.206 11.8852 215.952 1.63099 203.346 1.63099Z" fill="#EBF29D"/>
<path d="M211.294 9.19944C211.17 9.19944 211.047 9.1737 210.934 9.1171C208.562 7.94402 206.01 7.34719 203.35 7.34719C200.69 7.34719 198.138 7.94402 195.766 9.1171C195.452 9.27146 195.076 9.20972 194.829 8.96276L190.621 4.75407C190.441 4.57399 190.358 4.32702 190.389 4.07491C190.42 3.8228 190.564 3.60157 190.78 3.47294C194.572 1.19881 198.92 0 203.355 0C207.79 0 212.138 1.20395 215.929 3.47294C216.146 3.60157 216.29 3.8228 216.32 4.07491C216.351 4.32702 216.264 4.57399 216.089 4.75407L211.88 8.96276C211.721 9.11711 211.515 9.19944 211.299 9.19944H211.294ZM203.35 5.7162C206.061 5.7162 208.675 6.28217 211.124 7.39866L214.17 4.35274C210.856 2.56739 207.136 1.63099 203.35 1.63099C199.563 1.63099 195.843 2.56739 192.53 4.35274L195.575 7.39866C198.025 6.28217 200.638 5.7162 203.35 5.7162Z" fill="#EBF29D"/>
<path d="M203.347 48.9806C198.912 48.9806 194.564 47.7766 190.772 45.5076C190.556 45.379 190.412 45.1578 190.381 44.9056C190.35 44.6535 190.438 44.4066 190.613 44.2265L194.821 40.0178C195.068 39.7708 195.449 39.7091 195.758 39.8635C198.13 41.0365 200.682 41.6334 203.342 41.6334C206.002 41.6334 208.554 41.0365 210.926 39.8635C211.239 39.7091 211.615 39.7708 211.862 40.0178L216.071 44.2265C216.251 44.4066 216.333 44.6535 216.302 44.9056C216.271 45.1578 216.127 45.379 215.911 45.5076C212.119 47.7817 207.772 48.9806 203.337 48.9806H203.347ZM192.527 44.6278C195.84 46.4132 199.56 47.3496 203.347 47.3496C207.134 47.3496 210.853 46.4132 214.167 44.6278L211.121 41.5819C208.672 42.6984 206.058 43.2644 203.347 43.2644C200.635 43.2644 198.022 42.6984 195.573 41.5819L192.527 44.6278Z" fill="#EBF29D"/>
<path d="M223.664 37.4618C223.448 37.4618 223.242 37.3795 223.088 37.2251L218.879 33.0165C218.632 32.7695 218.57 32.3887 218.725 32.08C219.898 29.7081 220.495 27.1562 220.495 24.4962C220.495 21.8361 219.898 19.2842 218.725 16.9123C218.57 16.5984 218.632 16.2177 218.879 15.9759L223.088 11.7672C223.268 11.5871 223.515 11.5048 223.767 11.5357C224.019 11.5665 224.24 11.7106 224.369 11.9267C226.643 15.7186 227.842 20.0662 227.842 24.5013C227.842 28.9364 226.643 33.284 224.369 37.0759C224.24 37.292 224.019 37.4361 223.767 37.467C223.731 37.467 223.7 37.467 223.664 37.467V37.4618ZM220.438 32.2653L223.484 35.3112C225.269 31.9977 226.206 28.2778 226.206 24.491C226.206 20.7042 225.269 16.9843 223.484 13.6709L220.438 16.7168C221.555 19.1658 222.121 21.7795 222.121 24.491C222.121 27.2025 221.555 29.8162 220.438 32.2653Z" fill="#EBF29D"/>
<path d="M183.028 37.4621C182.992 37.4621 182.961 37.4621 182.93 37.457C182.678 37.4261 182.457 37.282 182.328 37.0659C180.054 33.274 178.855 28.9264 178.855 24.4913C178.855 20.0562 180.054 15.7086 182.328 11.9167C182.457 11.7006 182.678 11.5565 182.93 11.5256C183.182 11.4948 183.429 11.5822 183.61 11.7572L187.818 15.9659C188.065 16.2128 188.127 16.5936 187.973 16.9023C186.799 19.2742 186.203 21.8261 186.203 24.4862C186.203 27.1462 186.799 29.6981 187.973 32.07C188.127 32.3839 188.065 32.7646 187.818 33.0064L183.61 37.2151C183.455 37.3695 183.249 37.457 183.033 37.457L183.028 37.4621ZM183.208 13.6712C181.423 16.9846 180.486 20.7045 180.486 24.4913C180.486 28.2781 181.423 31.998 183.208 35.3115L186.254 32.2655C185.138 29.8165 184.572 27.2028 184.572 24.4913C184.572 21.7798 185.138 19.1661 186.254 16.7171L183.208 13.6712Z" fill="#EBF29D"/>
<path d="M203.346 5.71094C192.994 5.71094 184.566 14.1335 184.566 24.4906C184.566 34.8477 192.989 43.2702 203.346 43.2702C213.703 43.2702 222.126 34.8477 222.126 24.4906C222.126 14.1335 213.703 5.71094 203.346 5.71094ZM213.914 18.3216C214.804 19.8445 215.344 21.5064 215.519 23.2712C215.525 23.3432 215.494 23.4101 215.432 23.4461C214.089 24.2693 212.885 25.2778 211.846 26.456C211.799 26.5126 211.722 26.5332 211.655 26.5074L209.335 25.7511C209.268 25.7305 209.222 25.674 209.211 25.6019C208.949 23.6828 208.352 21.846 207.436 20.1378C207.406 20.0761 207.411 20.004 207.452 19.9474L208.887 17.9717C208.923 17.9254 208.98 17.8945 209.037 17.8945C209.052 17.8945 209.062 17.8945 209.078 17.8945C210.611 18.2341 212.185 18.3473 213.749 18.2187C213.821 18.2135 213.888 18.2495 213.924 18.3113L213.914 18.3216ZM207.946 25.926C207.951 25.9775 207.935 26.0289 207.905 26.065C206.685 27.4696 205.131 28.5964 203.418 29.3167C203.372 29.3372 203.325 29.3372 203.279 29.3167C201.566 28.5912 200.012 27.4644 198.793 26.065C198.762 26.0289 198.746 25.9775 198.751 25.926C198.988 24.0635 199.57 22.2833 200.47 20.6369C200.496 20.5906 200.537 20.5597 200.588 20.5494C201.494 20.3591 202.42 20.2613 203.351 20.2613C204.282 20.2613 205.209 20.3591 206.114 20.5494C206.166 20.5597 206.207 20.5906 206.232 20.6369C207.133 22.2833 207.709 24.0635 207.951 25.926H207.946ZM207.668 13.1559C207.668 13.1559 207.73 13.1044 207.791 13.1044C207.812 13.1044 207.838 13.1045 207.863 13.1199C209.757 13.8711 211.45 15.1059 212.767 16.6854C212.834 16.7626 212.808 16.8449 212.792 16.8758C212.782 16.9015 212.736 16.9839 212.628 16.9839C211.46 16.9993 210.297 16.8655 209.17 16.598C209.124 16.5877 209.083 16.5568 209.057 16.5157C208.455 15.5226 207.971 14.4525 207.622 13.3411C207.591 13.2434 207.647 13.1765 207.673 13.1559H207.668ZM200.748 12.5385C202.451 12.1732 204.246 12.1732 205.949 12.5385C206.016 12.5539 206.073 12.6054 206.088 12.6723C206.454 14.2004 207.045 15.6616 207.843 17.0147C207.879 17.0765 207.874 17.1536 207.833 17.2154L206.407 19.1808C206.366 19.2374 206.294 19.2683 206.227 19.2529C204.344 18.8721 202.353 18.8721 200.47 19.2529C200.403 19.2683 200.331 19.2374 200.29 19.1808L198.865 17.2154C198.824 17.1588 198.818 17.0765 198.854 17.0147C199.652 15.6616 200.244 14.2004 200.609 12.6723C200.624 12.6054 200.681 12.5539 200.748 12.5385ZM193.93 16.6854C195.248 15.1008 196.94 13.8659 198.834 13.1199C198.86 13.1096 198.885 13.1044 198.906 13.1044C198.973 13.1044 199.014 13.1405 199.029 13.1559C199.055 13.1816 199.112 13.2434 199.081 13.3411C198.731 14.4576 198.247 15.5226 197.645 16.5157C197.62 16.5568 197.578 16.5877 197.532 16.598C196.405 16.8655 195.243 16.9993 194.075 16.9839C193.967 16.9839 193.92 16.9015 193.91 16.8758C193.894 16.8449 193.869 16.7626 193.936 16.6854H193.93ZM192.783 18.3216C192.814 18.265 192.876 18.229 192.943 18.229C192.943 18.229 192.953 18.229 192.958 18.229C194.527 18.3525 196.102 18.2444 197.63 17.9048C197.702 17.8894 197.774 17.9151 197.815 17.9769L199.251 19.9526C199.292 20.0092 199.297 20.0863 199.266 20.1429C198.35 21.8511 197.753 23.6879 197.491 25.607C197.481 25.6739 197.434 25.7305 197.367 25.7563L195.047 26.5126C194.98 26.5332 194.903 26.5126 194.857 26.4611C193.817 25.2829 192.613 24.2745 191.27 23.4512C191.214 23.4152 191.178 23.3484 191.183 23.2763C191.358 21.5116 191.898 19.8445 192.788 18.3267L192.783 18.3216ZM193.344 30.9991C193.313 31.0969 193.226 31.1175 193.19 31.1226C193.154 31.1226 193.071 31.1226 193.015 31.0403C191.919 29.3167 191.27 27.3204 191.142 25.2726C191.137 25.1697 191.204 25.1183 191.234 25.1028C191.265 25.0874 191.348 25.0514 191.43 25.1131C192.382 25.7871 193.246 26.5795 194.003 27.4593C194.033 27.4953 194.049 27.5416 194.044 27.5931C193.951 28.7507 193.714 29.8981 193.339 31.0043L193.344 30.9991ZM198.427 35.6966C196.822 34.9917 195.407 33.9576 194.224 32.6301C194.177 32.5787 194.162 32.5015 194.188 32.4397C194.79 30.9888 195.17 29.4607 195.32 27.8966C195.325 27.8246 195.376 27.7628 195.443 27.7423L197.738 26.9962C197.738 26.9962 197.774 26.9859 197.794 26.9859C197.846 26.9859 197.892 27.0065 197.928 27.0477C199.215 28.4883 200.825 29.6614 202.59 30.4383C202.657 30.4692 202.698 30.5309 202.698 30.6029V33.016C202.698 33.088 202.657 33.1549 202.59 33.1806C201.149 33.8032 199.811 34.6419 198.613 35.6657C198.561 35.712 198.484 35.7223 198.422 35.6915L198.427 35.6966ZM206.521 36.206C206.515 36.242 206.49 36.3243 206.387 36.35C204.401 36.8542 202.302 36.8542 200.316 36.35C200.218 36.3243 200.187 36.242 200.182 36.206C200.177 36.17 200.166 36.0876 200.254 36.0208C201.19 35.3262 202.209 34.7447 203.284 34.2971C203.331 34.2765 203.377 34.2765 203.423 34.2971C204.493 34.7447 205.512 35.3262 206.454 36.0208C206.536 36.0825 206.531 36.17 206.526 36.206H206.521ZM212.484 32.6353C211.3 33.9627 209.885 34.9917 208.28 35.6966C208.213 35.7275 208.141 35.712 208.09 35.6709C206.891 34.647 205.558 33.8084 204.113 33.1858C204.046 33.1549 204.005 33.0932 204.005 33.0211V30.6081C204.005 30.5361 204.046 30.4692 204.113 30.4434C205.877 29.6665 207.493 28.4934 208.774 27.0528C208.81 27.0117 208.856 26.9911 208.908 26.9911C208.928 26.9911 208.944 26.9911 208.964 27.0014L211.259 27.7474C211.326 27.768 211.378 27.8297 211.383 27.9018C211.532 29.4659 211.913 30.9888 212.515 32.4449C212.54 32.5066 212.53 32.5838 212.479 32.6353H212.484ZM213.688 31.0454C213.631 31.1329 213.544 31.1329 213.513 31.1278C213.477 31.1278 213.394 31.102 213.358 31.0043C212.988 29.8981 212.751 28.7507 212.654 27.5931C212.654 27.5468 212.664 27.4953 212.695 27.4593C213.451 26.5795 214.315 25.7923 215.267 25.1131C215.303 25.0874 215.339 25.0771 215.37 25.0771C215.411 25.0771 215.442 25.0925 215.463 25.1028C215.494 25.1183 215.566 25.1697 215.555 25.2726C215.427 27.3204 214.778 29.3167 213.683 31.0403L213.688 31.0454Z" fill="#EBF29D"/>
<path d="M142.883 0.15679C156.388 0.15679 167.378 11.1467 167.378 24.6526C167.378 38.1585 156.388 49.1484 142.883 49.1484C129.377 49.1484 118.387 38.1585 118.387 24.6526C118.387 11.1467 129.377 0.15679 142.883 0.15679ZM142.883 47.3837C155.416 47.3837 165.614 37.1861 165.614 24.6526C165.614 12.1191 155.416 1.92156 142.883 1.92156C130.349 1.92156 120.151 12.1191 120.151 24.6526C120.151 37.1861 130.349 47.3837 142.883 47.3837Z" fill="#11F8A5"/>
<path d="M83.0036 0.155371C83.4924 0.155371 83.8835 0.551524 83.8835 1.03516C83.8835 1.5188 83.4873 1.91499 83.0036 1.91499C70.4702 1.91499 60.2726 12.1126 60.2726 24.646C60.2726 37.1795 70.4702 47.3771 83.0036 47.3771C83.4924 47.3771 83.8835 47.7733 83.8835 48.2569C83.8835 48.7406 83.4873 49.1367 83.0036 49.1367C69.4977 49.1367 58.5078 38.1468 58.5078 24.6409C58.5078 11.135 69.4977 0.145071 83.0036 0.145071V0.155371Z" fill="#11F8A5"/>
<path d="M138.168 20.3197C138.168 21.2201 138.78 22.0021 139.655 22.2182L141.317 22.635V18.3594H140.133C139.053 18.3594 138.173 19.2392 138.173 20.3197H138.168Z" fill="#11F8A5"/>
<path d="M144.454 30.9338H145.638C146.718 30.9338 147.598 30.054 147.598 28.9735C147.598 28.0731 146.986 27.291 146.111 27.075L144.449 26.6582V30.9338H144.454Z" fill="#11F8A5"/>
<path d="M142.886 4.71484C131.897 4.71484 122.949 13.657 122.949 24.6521C122.949 35.6472 131.891 44.5894 142.886 44.5894C153.882 44.5894 162.824 35.6472 162.824 24.6521C162.824 13.657 153.882 4.71484 142.886 4.71484ZM150.748 21.5033H147.605V19.9289C147.605 19.0645 146.9 18.3545 146.03 18.3545H144.456V23.4173L146.879 24.0244C149.153 24.5955 150.743 26.6278 150.743 28.974C150.743 31.7884 148.454 34.0779 145.639 34.0779H144.456V38.0602H141.312V34.0779H139.738C137.134 34.0779 135.02 31.9633 135.02 29.3599V27.7855H138.163V29.3599C138.163 30.2243 138.868 30.9343 139.738 30.9343H141.312V25.8715L138.889 25.2644C136.615 24.6933 135.025 22.661 135.025 20.3148C135.025 17.5004 137.314 15.2109 140.129 15.2109H141.312V11.2286H144.456V15.2109H146.03C148.634 15.2109 150.748 17.3255 150.748 19.9289V21.5033Z" fill="#11F8A5"/>
<path d="M82.6298 0.127102L141.747 0.127102C142.236 0.127102 142.627 0.523255 142.627 1.00689C142.627 1.49053 142.231 1.88672 141.747 1.88672L82.6298 1.88672C82.141 1.88672 81.75 1.49053 81.75 1.00689C81.75 0.523255 82.1462 0.127102 82.6298 0.127102Z" fill="#11F8A5"/>
<path d="M82.5009 47.3498L141.618 47.3498C142.107 47.3498 142.498 47.7459 142.498 48.2296C142.498 48.7132 142.102 49.1094 141.618 49.1094L82.5009 49.1094C82.0121 49.1094 81.6211 48.7132 81.6211 48.2296C81.6211 47.7459 82.0172 47.3498 82.5009 47.3498Z" fill="#11F8A5"/>
<path d="M24.4945 49.0632C18.2175 49.0632 11.9456 46.6759 7.16584 41.8961C-2.38861 32.3417 -2.38861 16.7983 7.16584 7.24383C11.7964 2.61324 17.95 0.0664062 24.4945 0.0664062C31.0391 0.0664062 37.1927 2.61324 41.8233 7.24383C51.3777 16.7983 51.3777 32.3417 41.8233 41.8961C37.0486 46.6708 30.7716 49.0632 24.4945 49.0632ZM8.45212 40.6098C17.2965 49.4543 31.6874 49.4543 40.5318 40.6098C49.3763 31.7654 49.3763 17.3745 40.5318 8.53011C36.246 4.24424 30.5504 1.88779 24.4894 1.88779C18.4285 1.88779 12.7328 4.24938 8.44697 8.53011C-0.397465 17.3745 -0.397465 31.7654 8.44697 40.6098H8.45212Z" fill="#EBF29D"/>
<path d="M24.1709 33.7393C24.2583 33.9502 24.4641 34.0737 24.6802 34.0737C24.7523 34.0737 24.8243 34.0582 24.8963 34.0325C26.6251 33.3071 28.1995 32.1854 29.4446 30.7859C29.6453 30.5595 29.6247 30.2097 29.3983 30.0091C29.1719 29.8084 28.822 29.829 28.6214 30.0554C27.4843 31.3365 26.0488 32.3604 24.4693 33.0189C24.1914 33.1373 24.0576 33.4614 24.176 33.7393H24.1709Z" fill="#EBF29D"/>
<path d="M33.8325 16.1018L24.6948 12.4487C24.561 12.3973 24.417 12.3973 24.2832 12.4487L15.1455 16.1018C14.9345 16.1841 14.8008 16.3848 14.8008 16.6111V23.1557C14.8111 29.1961 18.6287 34.655 24.2987 36.7336C24.3604 36.7542 24.4221 36.7645 24.489 36.7645C24.5559 36.7645 24.6176 36.7542 24.6794 36.7336C30.3493 34.6499 34.1669 29.1961 34.1772 23.1557V16.6111C34.1772 16.3848 34.0435 16.1841 33.8325 16.1018ZM33.0762 23.1557C33.0659 28.6507 29.6187 33.6568 24.4941 35.6274C19.3696 33.6568 15.9172 28.6507 15.907 23.1557V16.9867L24.4941 13.555L33.0762 16.9867V23.1557Z" fill="#EBF29D"/>
<path d="M20.6774 16.9604C20.5436 16.9038 20.3944 16.9038 20.2555 16.9604L18.0791 17.83C17.8681 17.9123 17.7344 18.1129 17.7344 18.3393V20.6598C17.7344 20.9633 17.9813 21.2103 18.2849 21.2103C18.5885 21.2103 18.8354 20.9633 18.8354 20.6598V18.7149L20.6619 17.9843C20.8009 17.9278 20.9037 17.8248 20.9655 17.6859C21.0221 17.5521 21.0221 17.4029 20.9655 17.264C20.9089 17.1251 20.806 17.0222 20.6722 16.9604H20.6774Z" fill="#EBF29D"/>
<path d="M38.4128 10.6571C34.698 6.93714 29.7535 4.89453 24.4952 4.89453C19.2369 4.89453 14.2976 6.94229 10.5777 10.6571C2.90638 18.3284 2.90638 30.8156 10.5777 38.4921C14.416 42.3303 19.453 44.2443 24.4952 44.2443C29.5374 44.2443 34.5745 42.3252 38.4128 38.4921C46.0841 30.8207 46.0841 18.3335 38.4128 10.6571ZM35.691 23.1545C35.7064 30.1364 31.2456 36.2437 24.593 38.3583C24.5312 38.3789 24.4644 38.3789 24.3975 38.3583C17.7448 36.2437 13.2841 30.1364 13.2995 23.1545V15.4317C13.2995 15.3031 13.3767 15.1847 13.5001 15.1333L24.3769 10.7857C24.4129 10.7702 24.4541 10.7651 24.4952 10.7651C24.5364 10.7651 24.5776 10.7702 24.6136 10.7857L35.4903 15.1384C35.6138 15.1848 35.691 15.3031 35.691 15.4368V23.1596V23.1545Z" fill="#EBF29D"/>
</g>
</svg>
