<svg width="599" height="51" viewBox="0 0 599 51" fill="none" xmlns="http://www.w3.org/2000/svg">
<g opacity="0.6">
<path d="M514.402 49.6152C500.896 49.6152 489.906 38.6253 489.906 25.1194C489.906 11.6135 500.896 0.623555 514.402 0.623555C527.908 0.623555 538.898 11.6135 538.898 25.1194C538.898 38.6253 527.908 49.6152 514.402 49.6152ZM514.402 2.38832C501.869 2.38832 491.671 12.5859 491.671 25.1194C491.671 37.6528 501.869 47.8504 514.402 47.8504C526.936 47.8504 537.133 37.6528 537.133 25.1194C537.133 12.5859 526.936 2.38832 514.402 2.38832Z" fill="#11F8A5"/>
<path d="M574.286 49.6167C573.797 49.6167 573.406 49.2205 573.406 48.7369C573.406 48.2532 573.802 47.857 574.286 47.857C586.82 47.857 597.017 37.6594 597.017 25.126C597.017 12.5925 586.82 2.39492 574.286 2.39492C573.797 2.39492 573.406 1.99874 573.406 1.5151C573.406 1.03146 573.802 0.635306 574.286 0.635306C587.792 0.635306 598.782 11.6252 598.782 25.1311C598.782 38.637 587.792 49.627 574.286 49.627V49.6167Z" fill="#11F8A5"/>
<path d="M538.7 24.1484H527.973V26.2631H538.7V24.1484Z" fill="#11F8A5"/>
<path d="M501.763 24.1484H491.035V26.2631H501.763V24.1484Z" fill="#11F8A5"/>
<path d="M516.091 38.4727H513.977V49.2002H516.091V38.4727Z" fill="#11F8A5"/>
<path d="M516.091 1.21094H513.977V11.9385H516.091V1.21094Z" fill="#11F8A5"/>
<path d="M527.649 11.7839C520.312 4.44702 508.411 4.44702 501.069 11.7839C493.732 19.1209 493.732 31.0215 501.069 38.3636C508.406 45.7005 520.307 45.7005 527.649 38.3636C534.986 31.0266 534.986 19.126 527.649 11.7839ZM517.991 13.3738C520.132 14.0375 522.051 15.2775 523.543 16.9651L523.831 17.2892L523.409 17.387C522.293 17.6494 521.099 17.8654 519.864 18.0249L519.643 18.0558L519.581 17.8397C519.375 17.1349 519.134 16.4557 518.856 15.828C518.511 15.0408 518.125 14.3513 517.703 13.7699L517.24 13.1371L517.991 13.3686V13.3738ZM509.404 24.4872L509.414 24.2196C509.466 22.5938 509.646 21.04 509.955 19.6096L510.001 19.3833L510.233 19.4038C512.939 19.6405 515.83 19.6302 518.521 19.3781L518.753 19.3575L518.804 19.5839C519.118 21.0297 519.298 22.5886 519.345 24.2196V24.4872H509.409H509.404ZM519.345 25.6809V25.9484C519.288 27.5794 519.108 29.1384 518.794 30.5841L518.743 30.8105L518.511 30.7899C515.82 30.5378 512.929 30.5327 510.222 30.7642L509.991 30.7848L509.944 30.5584C509.636 29.1281 509.456 27.5794 509.404 25.9484L509.394 25.6809H519.334H519.345ZM514.374 12.9262C515.872 12.9262 517.395 14.8247 518.346 17.886L518.444 18.1947L518.12 18.2205C516.854 18.3285 515.547 18.3851 514.235 18.3851C513.016 18.3851 511.802 18.3388 510.618 18.241L510.294 18.2153L510.392 17.9015C511.344 14.8298 512.872 12.921 514.374 12.921V12.9262ZM505.154 17.0216C506.657 15.3083 508.591 14.0478 510.757 13.3789L511.514 13.1474L511.045 13.7854C510.624 14.3616 510.233 15.0562 509.893 15.8383C509.62 16.4557 509.373 17.1451 509.157 17.886L509.095 18.097L508.874 18.0713C507.629 17.9169 506.425 17.7111 505.293 17.4487L504.866 17.3509L505.154 17.0216ZM502.15 24.2094C502.294 22.2028 502.937 20.2476 504.012 18.5446L504.115 18.3851L504.3 18.4314C505.617 18.7658 507.037 19.0334 508.529 19.2238L508.807 19.2598L508.751 19.5376C508.442 21.0297 508.267 22.6092 508.221 24.2351V24.4872H502.134L502.155 24.2094H502.15ZM504.115 31.7829L504.012 31.6234C502.937 29.9256 502.294 27.9653 502.15 25.9587L502.129 25.6809H508.21V25.933C508.262 27.5588 508.442 29.1435 508.746 30.6304L508.802 30.9083L508.524 30.9443C507.037 31.1347 505.612 31.4022 504.295 31.7367L504.11 31.7829H504.115ZM510.757 36.7943C508.591 36.1254 506.657 34.8649 505.154 33.1516L504.866 32.8223L505.293 32.7245C506.425 32.4673 507.629 32.2563 508.874 32.1019L509.095 32.0762L509.157 32.2872C509.373 33.0281 509.62 33.7175 509.893 34.3349C510.238 35.1221 510.624 35.8116 511.045 36.393L511.514 37.031L510.757 36.7994V36.7943ZM514.374 37.2419C512.872 37.2419 511.344 35.3331 510.392 32.2614L510.294 31.9476L510.618 31.9219C513.073 31.7264 515.686 31.7315 518.12 31.9424L518.444 31.9682L518.346 32.2769C517.389 35.3331 515.866 37.2368 514.374 37.2368V37.2419ZM523.543 33.203C522.051 34.8906 520.127 36.1306 517.991 36.7943L517.24 37.0258L517.703 36.393C518.125 35.8167 518.511 35.1221 518.856 34.3349C519.128 33.7021 519.375 33.0281 519.581 32.3232L519.643 32.1071L519.864 32.138C521.099 32.2975 522.293 32.5135 523.409 32.7759L523.831 32.8789L523.543 33.203ZM526.594 25.9587C526.45 27.9859 525.796 29.9667 524.695 31.6852L524.593 31.8447L524.407 31.7984C523.106 31.4537 521.691 31.181 520.209 30.9803L519.931 30.9443L519.988 30.6716C520.296 29.1795 520.476 27.5897 520.523 25.9381V25.686H526.609L526.589 25.9638L526.594 25.9587ZM520.533 24.4872V24.2351C520.482 22.5835 520.301 20.9885 519.993 19.5016L519.936 19.2289L520.214 19.1929C521.696 18.9922 523.106 18.7195 524.412 18.3748L524.598 18.3285L524.701 18.488C525.802 20.2065 526.46 22.1822 526.599 24.2145L526.62 24.4923H520.538L520.533 24.4872Z" fill="#11F8A5"/>
<path d="M574.657 49.6465L515.54 49.6465C515.051 49.6465 514.66 49.2503 514.66 48.7667C514.66 48.283 515.056 47.8868 515.54 47.8868L574.657 47.8868C575.146 47.8868 575.537 48.283 575.537 48.7667C575.537 49.2503 575.141 49.6465 574.657 49.6465Z" fill="#11F8A5"/>
<path d="M574.79 2.41406L515.673 2.41406C515.184 2.41406 514.793 2.01791 514.793 1.53427C514.793 1.05063 515.189 0.654446 515.673 0.654446L574.79 0.654446C575.279 0.654446 575.67 1.05063 575.67 1.53427C575.67 2.01791 575.274 2.41406 574.79 2.41406Z" fill="#11F8A5"/>
<path d="M436.452 42.1674C426.818 32.5334 426.818 16.8595 436.452 7.22549C446.086 -2.4085 461.76 -2.4085 471.394 7.22549C481.028 16.8595 481.028 32.5334 471.394 42.1674C461.76 51.8014 446.086 51.8014 436.452 42.1674ZM470.23 8.38991C461.238 -0.602124 446.608 -0.602124 437.619 8.38991C428.627 17.3819 428.627 32.011 437.619 41.0007C446.611 49.9927 461.24 49.9927 470.23 41.0007C479.222 32.0086 479.222 17.3796 470.23 8.38991Z" fill="white"/>
<path d="M470.494 19.4555C470.408 19.3688 470.337 19.2587 470.297 19.1369C469.442 16.6066 468.046 14.3644 466.148 12.4667C464.253 10.5713 462.008 9.1749 459.478 8.3174C459.143 8.2026 458.918 7.89099 458.918 7.53722V1.53238C458.918 1.27935 459.035 1.04037 459.234 0.883392C459.436 0.726418 459.696 0.672535 459.939 0.73345C464.264 1.81587 468.224 4.06036 471.387 7.22561C474.55 10.3909 476.794 14.348 477.877 18.673C477.938 18.919 477.881 19.1791 477.727 19.3805C477.57 19.582 477.331 19.6968 477.078 19.6968H471.073C470.848 19.6968 470.642 19.6055 470.49 19.4532L470.494 19.4555ZM467.313 11.3022C469.248 13.2375 470.707 15.5054 471.659 18.0498H476.002C474.911 14.4136 472.926 11.0914 470.225 8.39003C467.523 5.68867 464.201 3.70424 460.567 2.61479V6.95852C463.112 7.90739 465.38 9.36701 467.315 11.3046L467.313 11.3022Z" fill="white"/>
<path d="M436.45 42.1681C433.287 39.0052 431.04 35.0457 429.958 30.7207C429.897 30.4747 429.953 30.2147 430.108 30.0155C430.265 29.814 430.504 29.6992 430.757 29.6992H436.761C437.115 29.6992 437.429 29.9241 437.542 30.2592C438.397 32.7895 439.793 35.0317 441.691 36.9294C443.586 38.8248 445.831 40.2212 448.361 41.0787C448.696 41.1911 448.921 41.5051 448.921 41.8588V47.8637C448.921 48.1167 448.804 48.3557 448.605 48.5127C448.403 48.6696 448.143 48.7235 447.897 48.6626C443.572 47.5802 439.615 45.3357 436.45 42.1728V42.1681ZM431.837 31.3439C432.928 34.9801 434.913 38.3023 437.614 41.0037C440.316 43.705 443.638 45.6895 447.274 46.7813V42.4375C444.73 41.4887 442.462 40.029 440.526 38.0938C438.591 36.1586 437.132 33.8907 436.18 31.3463H431.837V31.3439Z" fill="white"/>
<path d="M459.163 48.4431C459.009 48.2885 458.922 48.08 458.922 47.8598V41.8549C458.922 41.5012 459.147 41.1872 459.482 41.0748C462.012 40.2196 464.254 38.8232 466.152 36.9255C468.05 35.0277 469.444 32.7856 470.301 30.2553C470.414 29.9202 470.728 29.6953 471.082 29.6953H477.086C477.339 29.6953 477.578 29.8125 477.735 30.0116C477.892 30.2107 477.946 30.4732 477.885 30.7168C476.801 35.0418 474.556 38.9989 471.393 42.1642C468.23 45.3294 464.271 47.5739 459.946 48.6564C459.7 48.7173 459.44 48.661 459.241 48.5064C459.215 48.483 459.189 48.4619 459.166 48.4385L459.163 48.4431ZM460.569 42.436V46.7797C464.205 45.6879 467.527 43.7035 470.229 41.0021C472.93 38.3008 474.912 34.9785 476.006 31.3424H471.663C470.714 33.8867 469.254 36.1523 467.316 38.0899C465.381 40.0251 463.113 41.4871 460.569 42.436Z" fill="white"/>
<path d="M430.174 19.4552C430.15 19.4317 430.127 19.406 430.108 19.3802C429.951 19.181 429.897 18.9186 429.958 18.6726C431.04 14.3476 433.285 10.3881 436.45 7.22524C439.615 4.06233 443.573 1.8155 447.898 0.733082C448.144 0.672167 448.404 0.728393 448.603 0.883024C448.802 1.04 448.919 1.27898 448.919 1.53201V7.53685C448.919 7.89063 448.694 8.20457 448.359 8.31703C445.829 9.17219 443.587 10.5686 441.689 12.4663C439.794 14.3617 438.397 16.6062 437.54 19.1365C437.427 19.4716 437.113 19.6965 436.759 19.6965H430.755C430.534 19.6965 430.324 19.6098 430.171 19.4575L430.174 19.4552ZM447.272 2.61443C443.636 3.70622 440.314 5.69065 437.612 8.39201C434.911 11.0934 432.929 14.4156 431.835 18.0518H436.178C437.127 15.5074 438.587 13.2418 440.525 11.3042C442.46 9.36899 444.728 7.90937 447.272 6.95816V2.61443Z" fill="white"/>
<path d="M467.316 11.3012C459.932 3.9164 447.913 3.91405 440.528 11.3012C433.141 18.6883 433.143 30.7051 440.528 38.0899C447.913 45.4747 459.929 45.477 467.316 38.0899C474.704 30.7027 474.701 18.686 467.316 11.3012Z" fill="white"/>
<path d="M460.754 31.4576L447.147 31.5478C446.574 31.5516 446.112 32.0194 446.116 32.5926L446.119 33.0775C446.123 33.6507 446.591 34.1123 447.164 34.1085L460.771 34.0183C461.345 34.0145 461.806 33.5467 461.802 32.9735L461.799 32.4886C461.795 31.9153 461.328 31.4538 460.754 31.4576Z" fill="#191D0A"/>
<path d="M449.003 23.244C448.855 23.244 448.705 23.2112 448.57 23.1456L447.508 22.6325C447.047 22.4076 446.836 21.8617 447.028 21.386L447.515 20.1724C447.665 19.8023 448.019 19.5609 448.417 19.5586C448.588 19.5586 448.757 19.6008 448.907 19.6875L450.172 20.4091C450.409 20.5426 450.58 20.7746 450.641 21.0416C450.702 21.3087 450.648 21.5899 450.493 21.8148L449.8 22.8199C449.619 23.0823 449.319 23.2416 449.001 23.2416L449.003 23.244Z" fill="#191D0A"/>
<path d="M458.796 23.1787C458.477 23.1787 458.175 23.0265 457.992 22.7664L457.306 21.7988C457.146 21.5762 457.09 21.2951 457.146 21.028C457.202 20.7609 457.371 20.5266 457.608 20.3884L458.913 19.6222C459.06 19.5355 459.229 19.4887 459.4 19.4863C459.798 19.484 460.157 19.7206 460.311 20.0885L460.803 21.2669C461 21.7402 460.796 22.2908 460.34 22.5204L459.229 23.0757C459.096 23.1413 458.946 23.1787 458.798 23.1787H458.796Z" fill="#191D0A"/>
<path d="M447.933 30.6385C447.335 30.6432 446.799 30.2684 446.595 29.7061L444.325 23.4576C444.179 23.5278 444.025 23.5817 443.868 23.6216C443.683 23.6684 443.495 23.6918 443.305 23.6918C443.195 23.6918 443.088 23.6872 442.982 23.6731C441.799 23.5232 440.902 22.5087 440.895 21.3138C440.885 19.9924 441.954 18.91 443.275 18.9006C444.596 18.8913 445.679 19.9596 445.686 21.281C445.686 21.5856 445.634 21.8785 445.526 22.1526C445.468 22.3025 445.395 22.4454 445.311 22.5813L449.629 24.6712L452.932 19.8846C452.794 19.8261 452.661 19.7534 452.534 19.6668C452.295 19.5051 452.087 19.3036 451.918 19.067C451.632 18.664 451.477 18.1884 451.475 17.6964C451.466 16.375 452.534 15.2926 453.855 15.2832C453.914 15.2832 453.975 15.2832 454.034 15.2879C455.217 15.3675 456.173 16.3164 456.259 17.4996C456.299 18.0595 456.152 18.5961 455.833 19.0529C455.664 19.2919 455.458 19.4957 455.221 19.6574C455.097 19.7441 454.964 19.8167 454.825 19.8753L458.187 24.6126L462.435 22.4876C462.355 22.3353 462.292 22.176 462.245 22.0097C462.189 21.8082 462.159 21.5973 462.159 21.3841C462.159 21.288 462.163 21.192 462.173 21.0983C462.309 19.894 463.325 18.9803 464.537 18.9733C465.858 18.9639 466.941 20.0323 466.948 21.3536C466.957 22.6141 465.978 23.6731 464.719 23.7598L464.57 23.7645C464.326 23.7645 464.087 23.7317 463.855 23.6614C463.705 23.6145 463.56 23.556 463.424 23.481L461.292 29.6077C461.097 30.1723 460.563 30.5518 459.966 30.5565L447.933 30.6362V30.6385Z" fill="#191D0A"/>
<path d="M391.018 49.3972C384.741 49.3972 378.469 47.0099 373.689 42.2301C364.135 32.6756 364.135 17.1323 373.689 7.57782C378.32 2.94722 384.473 0.400391 391.018 0.400391C397.563 0.400391 403.716 2.94722 408.347 7.57782C417.901 17.1323 417.901 32.6756 408.347 42.2301C403.572 47.0047 397.295 49.3972 391.018 49.3972ZM374.976 40.9438C383.82 49.7882 398.211 49.7882 407.055 40.9438C415.9 32.0994 415.9 17.7085 407.055 8.86409C402.769 4.57822 397.074 2.22175 391.013 2.22175C384.952 2.22175 379.256 4.58337 374.97 8.86409C366.126 17.7085 366.126 32.0994 374.97 40.9438H374.976Z" fill="#DA7DB5"/>
<path d="M391.925 19.7461L387.387 26.1054H390.108V30.6434L394.646 24.2892H391.925V19.7461Z" fill="#DA7DB5"/>
<path d="M391.016 16.2109C386.045 16.2109 382.012 20.2447 382.012 25.2149C382.012 30.185 386.045 34.2085 391.016 34.2085C395.986 34.2085 400.02 30.1747 400.02 25.2149C400.02 20.255 395.986 16.2109 391.016 16.2109ZM391.016 33.0972C386.653 33.0972 383.113 29.5573 383.113 25.1943C383.113 20.8313 386.653 17.2914 391.016 17.2914C395.379 17.2914 398.919 20.8313 398.919 25.1943C398.919 29.5573 395.379 33.0972 391.016 33.0972Z" fill="#DA7DB5"/>
<path d="M404.932 10.9891C401.218 7.26917 396.273 5.22656 391.015 5.22656C385.756 5.22656 380.817 7.27432 377.097 10.9891C369.426 18.6604 369.426 31.1476 377.097 38.8241C380.936 42.6623 385.973 44.5814 391.015 44.5814C396.057 44.5814 401.094 42.6623 404.932 38.8241C412.604 31.1527 412.604 18.6656 404.932 10.9891ZM391.015 37.4298C384.285 37.4298 378.805 31.9502 378.805 25.2204C378.805 22.2466 379.87 19.5197 381.64 17.3896L380.148 15.8975C379.721 15.4705 379.721 14.7759 380.148 14.3437C380.575 13.9115 381.27 13.9167 381.702 14.3437L383.194 15.8358C385.046 14.2871 387.377 13.2684 389.919 13.0523V12.0438H388.91C388.02 12.0438 387.285 11.3081 387.285 10.418V9.56903C387.285 8.66864 388.02 7.94319 388.91 7.94319H393.129C394.02 7.94319 394.755 8.66864 394.755 9.56903V10.418C394.755 11.3081 394.02 12.0438 393.129 12.0438H392.121V13.0523C394.668 13.2735 396.993 14.2922 398.846 15.8358L400.338 14.3437C400.765 13.9167 401.459 13.9167 401.892 14.3437C402.319 14.7707 402.319 15.4653 401.892 15.8975L400.399 17.3896C402.169 19.5197 403.234 22.2414 403.234 25.2204C403.234 31.9502 397.755 37.4298 391.025 37.4298H391.015Z" fill="#DA7DB5"/>
<path d="M332.557 49.8876C319.051 49.8876 308.066 38.8977 308.066 25.3969C308.066 11.8962 319.056 0.90625 332.557 0.90625C346.058 0.90625 357.048 11.8962 357.048 25.3969C357.048 38.8977 346.058 49.8876 332.557 49.8876ZM332.557 2.53724C319.952 2.53724 309.697 12.7914 309.697 25.3969C309.697 38.0024 319.952 48.2566 332.557 48.2566C345.163 48.2566 355.417 38.0024 355.417 25.3969C355.417 12.7914 345.163 2.53724 332.557 2.53724Z" fill="white"/>
<path d="M348.535 7.92007L340.953 15.502L342.445 16.9936L350.027 9.41171L348.535 7.92007Z" fill="white"/>
<path d="M322.437 34.0197L314.855 41.6016L316.347 43.0932L323.929 35.5113L322.437 34.0197Z" fill="white"/>
<path d="M342.675 34.0181L341.184 35.5098L348.765 43.0916L350.257 41.6L342.675 34.0181Z" fill="white"/>
<path d="M316.351 7.69197L314.859 9.18359L322.438 16.7618L323.929 15.2702L316.351 7.69197Z" fill="white"/>
<path d="M338.536 26.0576C339.03 25.5636 339.03 24.7661 338.536 24.2773L337.486 23.2329C336.993 22.7389 336.195 22.7389 335.706 23.2329L335.14 23.7988L334.487 23.1454C333.993 22.6515 333.195 22.6515 332.707 23.1454L332.141 23.7165L331.487 23.0579C330.993 22.564 330.196 22.564 329.707 23.0579L326.234 26.5309C326.208 26.5566 326.208 26.5978 326.234 26.6286C326.697 27.0917 327.454 27.0917 327.922 26.6286L330.16 24.3905C330.402 24.1487 330.793 24.1487 331.035 24.3905L331.199 24.5552C331.23 24.586 331.23 24.6323 331.199 24.6632L329.331 26.5309C329.306 26.5566 329.306 26.5978 329.331 26.6286C329.795 27.0917 330.551 27.0917 331.019 26.6286L333.165 24.4832C333.406 24.2413 333.797 24.2413 334.039 24.4832L334.204 24.6478C334.23 24.6735 334.23 24.7147 334.204 24.7455L332.403 26.5463C332.377 26.5721 332.377 26.6132 332.403 26.6441C332.866 27.1071 333.623 27.1071 334.091 26.6441L336.164 24.5706C336.406 24.3288 336.797 24.3288 337.039 24.5706L337.394 24.9256C337.533 25.0645 337.533 25.2961 337.394 25.435L337.337 25.4916C337.198 25.6305 336.967 25.6305 336.828 25.4916L336.37 25.0337C336.344 25.0079 336.303 25.0079 336.272 25.0337L335.48 25.826C335.454 25.8517 335.454 25.8929 335.48 25.9238L336.195 26.6389C336.689 27.1329 337.486 27.1329 337.975 26.6389L338.541 26.073L338.536 26.0576Z" fill="white"/>
<path d="M332.557 6.61328C322.184 6.61328 313.777 15.0204 313.777 25.3929C313.777 35.7654 322.184 44.1725 332.557 44.1725C342.929 44.1725 351.337 35.7654 351.337 25.3929C351.337 15.0204 342.929 6.61328 332.557 6.61328ZM333.324 12.4118C336.339 12.5867 339.076 13.7907 341.196 15.6738L338.484 18.3853C337.069 17.1865 335.284 16.4096 333.324 16.2449V12.4118ZM331.795 12.4118V16.2449C329.835 16.4044 328.05 17.1865 326.635 18.3853L323.923 15.6738C326.043 13.7907 328.78 12.5867 331.795 12.4118ZM322.843 16.7543L325.554 19.4658C324.356 20.8807 323.579 22.666 323.414 24.6263H319.581C319.756 21.6113 320.96 18.8741 322.843 16.7543ZM319.581 26.1544H323.414C323.574 28.1147 324.356 29.9 325.554 31.3149L322.843 34.0264C320.96 31.9066 319.756 29.1694 319.581 26.1544ZM331.795 38.3688C328.78 38.1939 326.043 36.9899 323.923 35.1068L326.635 32.3954C328.05 33.5942 329.835 34.3711 331.795 34.5357V38.3688ZM324.664 25.3878C324.664 21.0299 328.199 17.4952 332.557 17.4952C336.915 17.4952 340.45 21.0299 340.45 25.3878C340.45 29.7457 336.915 33.2803 332.557 33.2803C328.199 33.2803 324.664 29.7457 324.664 25.3878ZM333.324 38.3688V34.5357C335.284 34.3762 337.069 33.5942 338.484 32.3954L341.196 35.1068C339.076 36.9899 336.339 38.1939 333.324 38.3688ZM342.276 34.0264L339.565 31.3149C340.763 29.9 341.54 28.1147 341.705 26.1544H345.538C345.363 29.1694 344.159 31.9066 342.276 34.0264ZM341.705 24.6263C341.545 22.666 340.763 20.8807 339.565 19.4658L342.276 16.7543C344.159 18.8741 345.363 21.6113 345.538 24.6263H341.705Z" fill="white"/>
<path d="M206.34 49.6152C192.834 49.6152 181.844 38.6253 181.844 25.1194C181.844 11.6135 192.834 0.623555 206.34 0.623555C219.845 0.623555 230.835 11.6135 230.835 25.1194C230.835 38.6253 219.845 49.6152 206.34 49.6152ZM206.34 2.38832C193.806 2.38832 183.609 12.5859 183.609 25.1194C183.609 37.6528 193.806 47.8504 206.34 47.8504C218.873 47.8504 229.071 37.6528 229.071 25.1194C229.071 12.5859 218.873 2.38832 206.34 2.38832Z" fill="#11F8A5"/>
<path d="M266.224 49.6167C265.735 49.6167 265.344 49.2205 265.344 48.7369C265.344 48.2532 265.74 47.857 266.224 47.857C278.757 47.857 288.955 37.6594 288.955 25.126C288.955 12.5925 278.757 2.39492 266.224 2.39492C265.735 2.39492 265.344 1.99874 265.344 1.5151C265.344 1.03146 265.74 0.635306 266.224 0.635306C279.729 0.635306 290.719 11.6252 290.719 25.1311C290.719 38.637 279.729 49.627 266.224 49.627V49.6167Z" fill="#11F8A5"/>
<path d="M230.638 24.1484H219.91V26.2631H230.638V24.1484Z" fill="#11F8A5"/>
<path d="M193.7 24.1484H182.973V26.2631H193.7V24.1484Z" fill="#11F8A5"/>
<path d="M208.029 38.4727H205.914V49.2002H208.029V38.4727Z" fill="#11F8A5"/>
<path d="M208.029 1.21094H205.914V11.9385H208.029V1.21094Z" fill="#11F8A5"/>
<path d="M219.586 11.7839C212.249 4.44702 200.349 4.44702 193.007 11.7839C185.67 19.1209 185.67 31.0215 193.007 38.3636C200.344 45.7005 212.244 45.7005 219.586 38.3636C226.923 31.0266 226.923 19.126 219.586 11.7839ZM209.929 13.3738C212.069 14.0375 213.988 15.2775 215.48 16.9651L215.769 17.2892L215.347 17.387C214.23 17.6494 213.036 17.8654 211.802 18.0249L211.58 18.0558L211.519 17.8397C211.313 17.1349 211.071 16.4557 210.793 15.828C210.448 15.0408 210.063 14.3513 209.641 13.7699L209.178 13.1371L209.929 13.3686V13.3738ZM201.342 24.4872L201.352 24.2196C201.403 22.5938 201.583 21.04 201.892 19.6096L201.939 19.3833L202.17 19.4038C204.876 19.6405 207.768 19.6302 210.459 19.3781L210.69 19.3575L210.742 19.5839C211.056 21.0297 211.236 22.5886 211.282 24.2196V24.4872H201.347H201.342ZM211.282 25.6809V25.9484C211.225 27.5794 211.045 29.1384 210.731 30.5841L210.68 30.8105L210.449 30.7899C207.758 30.5378 204.866 30.5327 202.16 30.7642L201.928 30.7848L201.882 30.5584C201.573 29.1281 201.393 27.5794 201.342 25.9484L201.331 25.6809H211.272H211.282ZM206.312 12.9262C207.809 12.9262 209.332 14.8247 210.284 17.886L210.382 18.1947L210.057 18.2205C208.792 18.3285 207.485 18.3851 206.173 18.3851C204.954 18.3851 203.739 18.3388 202.556 18.241L202.232 18.2153L202.33 17.9015C203.281 14.8298 204.809 12.921 206.312 12.921V12.9262ZM197.092 17.0216C198.594 15.3083 200.529 14.0478 202.695 13.3789L203.451 13.1474L202.983 13.7854C202.561 14.3616 202.17 15.0562 201.83 15.8383C201.558 16.4557 201.311 17.1451 201.095 17.886L201.033 18.097L200.812 18.0713C199.567 17.9169 198.363 17.7111 197.231 17.4487L196.804 17.3509L197.092 17.0216ZM194.087 24.2094C194.231 22.2028 194.874 20.2476 195.95 18.5446L196.053 18.3851L196.238 18.4314C197.555 18.7658 198.975 19.0334 200.467 19.2238L200.745 19.2598L200.688 19.5376C200.38 21.0297 200.205 22.6092 200.158 24.2351V24.4872H194.072L194.092 24.2094H194.087ZM196.053 31.7829L195.95 31.6234C194.874 29.9256 194.231 27.9653 194.087 25.9587L194.066 25.6809H200.148V25.933C200.199 27.5588 200.38 29.1435 200.683 30.6304L200.74 30.9083L200.462 30.9443C198.975 31.1347 197.55 31.4022 196.233 31.7367L196.047 31.7829H196.053ZM202.695 36.7943C200.529 36.1254 198.594 34.8649 197.092 33.1516L196.804 32.8223L197.231 32.7245C198.363 32.4673 199.567 32.2563 200.812 32.1019L201.033 32.0762L201.095 32.2872C201.311 33.0281 201.558 33.7175 201.83 34.3349C202.175 35.1221 202.561 35.8116 202.983 36.393L203.451 37.031L202.695 36.7994V36.7943ZM206.312 37.2419C204.809 37.2419 203.281 35.3331 202.33 32.2614L202.232 31.9476L202.556 31.9219C205.01 31.7264 207.624 31.7315 210.057 31.9424L210.382 31.9682L210.284 32.2769C209.327 35.3331 207.804 37.2368 206.312 37.2368V37.2419ZM215.48 33.203C213.988 34.8906 212.064 36.1306 209.929 36.7943L209.178 37.0258L209.641 36.393C210.063 35.8167 210.448 35.1221 210.793 34.3349C211.066 33.7021 211.313 33.0281 211.519 32.3232L211.58 32.1071L211.802 32.138C213.036 32.2975 214.23 32.5135 215.347 32.7759L215.769 32.8789L215.48 33.203ZM218.531 25.9587C218.387 27.9859 217.734 29.9667 216.633 31.6852L216.53 31.8447L216.345 31.7984C215.043 31.4537 213.628 31.181 212.146 30.9803L211.869 30.9443L211.925 30.6716C212.234 29.1795 212.414 27.5897 212.46 25.9381V25.686H218.547L218.526 25.9638L218.531 25.9587ZM212.471 24.4872V24.2351C212.419 22.5835 212.239 20.9885 211.93 19.5016L211.874 19.2289L212.152 19.1929C213.633 18.9922 215.043 18.7195 216.35 18.3748L216.535 18.3285L216.638 18.488C217.739 20.2065 218.398 22.1822 218.537 24.2145L218.557 24.4923H212.476L212.471 24.4872Z" fill="#11F8A5"/>
<path d="M266.595 49.6465L207.477 49.6465C206.989 49.6465 206.598 49.2503 206.598 48.7667C206.598 48.283 206.994 47.8868 207.477 47.8868L266.595 47.8868C267.083 47.8868 267.475 48.283 267.475 48.7667C267.475 49.2503 267.078 49.6465 266.595 49.6465Z" fill="#11F8A5"/>
<path d="M266.727 2.41406L207.61 2.41406C207.122 2.41406 206.73 2.01791 206.73 1.53427C206.73 1.05063 207.127 0.654446 207.61 0.654446L266.727 0.654446C267.216 0.654446 267.607 1.05063 267.607 1.53427C267.607 2.01791 267.211 2.41406 266.727 2.41406Z" fill="#11F8A5"/>
<path d="M128.39 43.0522C118.756 33.4182 118.756 17.7442 128.39 8.11025C138.024 -1.52373 153.697 -1.52373 163.331 8.11025C172.965 17.7442 172.965 33.4182 163.331 43.0522C153.697 52.6862 138.024 52.6862 128.39 43.0522ZM162.167 9.27467C153.175 0.282642 138.546 0.282642 129.556 9.27467C120.564 18.2667 120.564 32.8957 129.556 41.8854C138.548 50.8775 153.177 50.8775 162.167 41.8854C171.159 32.8934 171.159 18.2644 162.167 9.27467Z" fill="white"/>
<path d="M162.432 20.3403C162.345 20.2536 162.275 20.1435 162.235 20.0216C161.38 17.4913 159.983 15.2492 158.086 13.3514C156.19 11.456 153.946 10.0597 151.415 9.20216C151.08 9.08736 150.855 8.77576 150.855 8.42198V2.41714C150.855 2.16411 150.973 1.92513 151.172 1.76816C151.373 1.61118 151.633 1.5573 151.877 1.61822C156.202 2.70063 160.161 4.94512 163.324 8.11037C166.487 11.2756 168.732 15.2328 169.814 19.5578C169.875 19.8038 169.819 20.0638 169.664 20.2653C169.507 20.4668 169.268 20.5816 169.015 20.5816H163.01C162.785 20.5816 162.579 20.4902 162.427 20.3379L162.432 20.3403ZM159.25 12.187C161.185 14.1222 162.645 16.3902 163.596 18.9345H167.94C166.848 15.2984 164.864 11.9762 162.162 9.27479C159.461 6.57344 156.139 4.58901 152.505 3.49956V7.84329C155.049 8.79216 157.317 10.2518 159.252 12.1894L159.25 12.187Z" fill="white"/>
<path d="M128.387 43.0509C125.224 39.888 122.978 35.9285 121.895 31.6035C121.834 31.3575 121.891 31.0975 122.045 30.8983C122.202 30.6968 122.441 30.582 122.694 30.582H128.699C129.053 30.582 129.367 30.807 129.479 31.142C130.334 33.6723 131.731 35.9145 133.628 37.8122C135.524 39.7076 137.768 41.104 140.299 41.9615C140.634 42.0739 140.859 42.3879 140.859 42.7417V48.7465C140.859 48.9995 140.741 49.2385 140.542 49.3955C140.341 49.5525 140.081 49.6063 139.835 49.5454C135.51 48.463 131.553 46.2185 128.387 43.0556V43.0509ZM123.774 32.2267C124.866 35.8629 126.85 39.1851 129.552 41.8865C132.253 44.5879 135.575 46.5723 139.212 47.6641V43.3203C136.667 42.3715 134.399 40.9119 132.464 38.9766C130.529 37.0414 129.069 34.7735 128.118 32.2291H123.774V32.2267Z" fill="white"/>
<path d="M151.101 49.326C150.946 49.1713 150.859 48.9628 150.859 48.7426V42.7377C150.859 42.384 151.084 42.07 151.419 41.9576C153.95 41.1024 156.192 39.706 158.09 37.8083C159.987 35.9105 161.381 33.6684 162.239 31.1381C162.351 30.803 162.665 30.5781 163.019 30.5781H169.024C169.277 30.5781 169.516 30.6953 169.673 30.8944C169.83 31.0936 169.884 31.356 169.823 31.5996C168.738 35.9246 166.494 39.8818 163.331 43.047C160.168 46.2123 156.208 48.4568 151.883 49.5392C151.637 49.6001 151.377 49.5439 151.178 49.3892C151.152 49.3658 151.126 49.3447 151.103 49.3213L151.101 49.326ZM152.506 43.3188V47.6625C156.143 46.5707 159.465 44.5863 162.166 41.8849C164.868 39.1836 166.85 35.8613 167.944 32.2252H163.6C162.651 34.7696 161.192 37.0351 159.254 38.9727C157.319 40.9079 155.051 42.3699 152.506 43.3188Z" fill="white"/>
<path d="M122.111 20.3399C122.088 20.3165 122.064 20.2907 122.046 20.2649C121.889 20.0658 121.835 19.8034 121.896 19.5574C122.978 15.2324 125.222 11.2729 128.388 8.11001C131.553 4.9471 135.51 2.70027 139.835 1.61785C140.081 1.55693 140.341 1.61316 140.54 1.76779C140.739 1.92476 140.857 2.16374 140.857 2.41678V8.42162C140.857 8.77539 140.632 9.08934 140.297 9.2018C137.766 10.057 135.524 11.4533 133.626 13.3511C131.731 15.2465 130.335 17.491 129.477 20.0213C129.365 20.3563 129.051 20.5812 128.697 20.5812H122.692C122.472 20.5812 122.261 20.4946 122.109 20.3423L122.111 20.3399ZM139.21 3.49919C135.573 4.59098 132.251 6.57541 129.55 9.27677C126.848 11.9781 124.866 15.3004 123.772 18.9365H128.116C129.065 16.3921 130.524 14.1266 132.462 12.189C134.397 10.2538 136.665 8.79414 139.21 7.84292V3.49919Z" fill="white"/>
<path d="M159.254 12.186C151.869 4.80116 139.85 4.79882 132.465 12.186C125.078 19.5731 125.08 31.5898 132.465 38.9746C139.85 46.3594 151.867 46.3618 159.254 38.9746C166.641 31.5875 166.639 19.5708 159.254 12.186Z" fill="white"/>
<path d="M152.692 32.3423L139.085 32.4326C138.512 32.4364 138.05 32.9041 138.054 33.4773L138.057 33.9623C138.061 34.5355 138.529 34.9971 139.102 34.9933L152.709 34.903C153.282 34.8992 153.744 34.4315 153.74 33.8583L153.737 33.3733C153.733 32.8001 153.265 32.3385 152.692 32.3423Z" fill="#191D0A"/>
<path d="M140.941 24.1287C140.793 24.1287 140.643 24.0959 140.507 24.0303L139.446 23.5172C138.984 23.2923 138.773 22.7464 138.965 22.2708L139.453 21.0572C139.603 20.687 139.956 20.4457 140.355 20.4434C140.526 20.4434 140.694 20.4855 140.844 20.5722L142.11 21.2938C142.346 21.4274 142.517 21.6593 142.578 21.9264C142.639 22.1935 142.585 22.4747 142.431 22.6996L141.737 23.7047C141.557 23.9671 141.257 24.1264 140.938 24.1264L140.941 24.1287Z" fill="#191D0A"/>
<path d="M150.733 24.0635C150.414 24.0635 150.112 23.9112 149.93 23.6512L149.243 22.6835C149.084 22.461 149.028 22.1798 149.084 21.9127C149.14 21.6456 149.309 21.4114 149.545 21.2731L150.85 20.507C150.998 20.4203 151.167 20.3735 151.338 20.3711C151.736 20.3688 152.094 20.6054 152.249 20.9732L152.741 22.1517C152.938 22.625 152.734 23.1756 152.277 23.4052L151.167 23.9604C151.033 24.026 150.883 24.0635 150.735 24.0635H150.733Z" fill="#191D0A"/>
<path d="M139.87 31.5233C139.273 31.528 138.736 31.1531 138.532 30.5908L136.262 24.3423C136.117 24.4126 135.962 24.4665 135.805 24.5063C135.62 24.5532 135.433 24.5766 135.243 24.5766C135.133 24.5766 135.025 24.5719 134.92 24.5579C133.736 24.4079 132.839 23.3935 132.832 22.1986C132.823 20.8772 133.891 19.7948 135.212 19.7854C136.534 19.776 137.616 20.8444 137.623 22.1658C137.623 22.4704 137.572 22.7632 137.464 23.0373C137.405 23.1873 137.333 23.3302 137.248 23.4661L141.566 25.5559L144.87 20.7694C144.732 20.7108 144.598 20.6382 144.472 20.5515C144.233 20.3899 144.024 20.1884 143.855 19.9517C143.57 19.5488 143.415 19.0732 143.413 18.5811C143.403 17.2598 144.472 16.1773 145.793 16.168C145.852 16.168 145.912 16.168 145.971 16.1727C147.154 16.2523 148.11 17.2012 148.197 18.3843C148.237 18.9443 148.089 19.4808 147.77 19.9377C147.602 20.1767 147.396 20.3805 147.159 20.5421C147.035 20.6288 146.901 20.7015 146.763 20.76L150.125 25.4974L154.373 23.3724C154.293 23.2201 154.23 23.0608 154.183 22.8944C154.127 22.6929 154.096 22.4821 154.096 22.2689C154.096 22.1728 154.101 22.0768 154.11 21.983C154.246 20.7788 155.263 19.8651 156.474 19.858C157.796 19.8487 158.878 20.917 158.885 22.2384C158.894 23.4989 157.915 24.5579 156.657 24.6446L156.507 24.6492C156.263 24.6492 156.024 24.6164 155.792 24.5462C155.643 24.4993 155.497 24.4407 155.361 24.3658L153.229 30.4924C153.035 31.0571 152.501 31.4366 151.903 31.4413L139.87 31.5209V31.5233Z" fill="#191D0A"/>
<path d="M82.9516 49.8601C76.6745 49.8601 70.4027 47.4728 65.6229 42.693C56.0684 33.1385 56.0684 17.5952 65.6229 8.04071C70.2535 3.41011 76.407 0.863281 82.9516 0.863281C89.4961 0.863281 95.6497 3.41011 100.28 8.04071C109.835 17.5952 109.835 33.1385 100.28 42.693C95.5056 47.4676 89.2286 49.8601 82.9516 49.8601ZM66.9091 41.4067C75.7536 50.2511 90.1444 50.2511 98.9889 41.4067C107.833 32.5623 107.833 18.1714 98.9889 9.32698C94.703 5.04111 89.0074 2.68464 82.9464 2.68464C76.8855 2.68464 71.1899 5.04626 66.904 9.32698C58.0596 18.1714 58.0596 32.5623 66.904 41.4067H66.9091Z" fill="#DA7DB5"/>
<path d="M83.8583 20.209L79.3203 26.5683H82.0421V31.1063L86.58 24.7521H83.8583V20.209Z" fill="#DA7DB5"/>
<path d="M82.9492 16.6738C77.9791 16.6738 73.9453 20.7076 73.9453 25.6778C73.9453 30.6479 77.9791 34.6714 82.9492 34.6714C87.9194 34.6714 91.9532 30.6376 91.9532 25.6778C91.9532 20.7179 87.9194 16.6738 82.9492 16.6738ZM82.9492 33.5601C78.5862 33.5601 75.0464 30.0202 75.0464 25.6572C75.0464 21.2941 78.5862 17.7543 82.9492 17.7543C87.3123 17.7543 90.8521 21.2941 90.8521 25.6572C90.8521 30.0202 87.3123 33.5601 82.9492 33.5601Z" fill="#DA7DB5"/>
<path d="M96.8659 11.452C93.1511 7.73207 88.2066 5.68945 82.9483 5.68945C77.6901 5.68945 72.7508 7.73721 69.0309 11.452C61.3595 19.1233 61.3595 31.6105 69.0309 39.287C72.8691 43.1252 77.9061 45.0443 82.9483 45.0443C87.9905 45.0443 93.0276 43.1252 96.8659 39.287C104.537 31.6156 104.537 19.1285 96.8659 11.452ZM82.9483 37.8927C76.2186 37.8927 70.739 32.4131 70.739 25.6833C70.739 22.7094 71.8041 19.9826 73.574 17.8525L72.0819 16.3604C71.6549 15.9333 71.6549 15.2388 72.0819 14.8066C72.5089 14.3744 73.2035 14.3795 73.6357 14.8066L75.1278 16.2987C76.9801 14.75 79.3108 13.7313 81.8524 13.5152V12.5067H80.844C79.9539 12.5067 79.2181 11.771 79.2181 10.8809V10.0319C79.2181 9.13153 79.9539 8.40608 80.844 8.40608H85.063C85.9531 8.40608 86.6888 9.13153 86.6888 10.0319V10.8809C86.6888 11.771 85.9531 12.5067 85.063 12.5067H84.0546V13.5152C86.6014 13.7364 88.927 14.7551 90.7792 16.2987L92.2713 14.8066C92.6983 14.3795 93.3929 14.3795 93.8251 14.8066C94.2521 15.2336 94.2521 15.9282 93.8251 16.3604L92.333 17.8525C94.1029 19.9826 95.168 22.7043 95.168 25.6833C95.168 32.4131 89.6884 37.8927 82.9586 37.8927H82.9483Z" fill="#DA7DB5"/>
<path d="M24.4907 49.3915C10.9848 49.3915 0 38.4016 0 24.9008C0 11.4001 10.99 0.410156 24.4907 0.410156C37.9915 0.410156 48.9814 11.4001 48.9814 24.9008C48.9814 38.4016 37.9915 49.3915 24.4907 49.3915ZM24.4907 2.04114C11.8852 2.04114 1.63102 12.2953 1.63102 24.9008C1.63102 37.5063 11.8852 47.7605 24.4907 47.7605C37.0962 47.7605 47.3504 37.5063 47.3504 24.9008C47.3504 12.2953 37.0962 2.04114 24.4907 2.04114Z" fill="white"/>
<path d="M40.4686 7.42593L32.8867 15.0078L34.3784 16.4995L41.9602 8.91756L40.4686 7.42593Z" fill="white"/>
<path d="M14.3709 33.5256L6.78906 41.1074L8.28069 42.599L15.8626 35.0172L14.3709 33.5256Z" fill="white"/>
<path d="M34.6088 33.524L33.1172 35.0156L40.6991 42.5975L42.1907 41.1059L34.6088 33.524Z" fill="white"/>
<path d="M8.2846 7.19587L6.79297 8.6875L14.3712 16.2657L15.8628 14.7741L8.2846 7.19587Z" fill="white"/>
<path d="M30.4697 25.5615C30.9636 25.0675 30.9636 24.27 30.4697 23.7812L29.4201 22.7368C28.9261 22.2429 28.1287 22.2429 27.6399 22.7368L27.0739 23.3027L26.4205 22.6493C25.9266 22.1554 25.1291 22.1554 24.6403 22.6493L24.0743 23.2204L23.4209 22.5619C22.927 22.0679 22.1295 22.0679 21.6407 22.5619L18.1677 26.0348C18.142 26.0605 18.142 26.1017 18.1677 26.1326C18.6308 26.5956 19.3871 26.5956 19.8553 26.1326L22.0934 23.8944C22.3353 23.6526 22.7263 23.6526 22.9681 23.8944L23.1328 24.0591C23.1636 24.09 23.1636 24.1363 23.1328 24.1671L21.2651 26.0348C21.2394 26.0605 21.2394 26.1017 21.2651 26.1326C21.7282 26.5956 22.4845 26.5956 22.9527 26.1326L25.0982 23.9871C25.34 23.7452 25.7311 23.7452 25.9729 23.9871L26.1375 24.1517C26.1632 24.1774 26.1632 24.2186 26.1375 24.2494L24.3367 26.0502C24.311 26.076 24.311 26.1171 24.3367 26.148C24.7998 26.6111 25.5561 26.6111 26.0243 26.148L28.0978 24.0745C28.3396 23.8327 28.7306 23.8327 28.9724 24.0745L29.3275 24.4295C29.4664 24.5684 29.4664 24.8 29.3275 24.9389L29.2709 24.9955C29.132 25.1344 28.9004 25.1344 28.7615 24.9955L28.3036 24.5376C28.2779 24.5118 28.2367 24.5118 28.2058 24.5376L27.4135 25.3299C27.3878 25.3556 27.3878 25.3968 27.4135 25.4277L28.1287 26.1428C28.6226 26.6368 29.4201 26.6368 29.9089 26.1428L30.4748 25.5769L30.4697 25.5615Z" fill="white"/>
<path d="M24.4906 6.11719C14.118 6.11719 5.71094 14.5243 5.71094 24.8968C5.71094 35.2693 14.118 43.6764 24.4906 43.6764C34.8631 43.6764 43.2702 35.2693 43.2702 24.8968C43.2702 14.5243 34.8631 6.11719 24.4906 6.11719ZM25.2572 11.9157C28.2722 12.0906 31.0094 13.2946 33.1292 15.1777L30.4177 17.8892C29.0028 16.6904 27.2175 15.9135 25.2572 15.7488V11.9157ZM23.7291 11.9157V15.7488C21.7688 15.9083 19.9834 16.6904 18.5685 17.8892L15.8571 15.1777C17.9768 13.2946 20.714 12.0906 23.7291 11.9157ZM14.7766 16.2582L17.4881 18.9697C16.2892 20.3846 15.5123 22.1699 15.3477 24.1302H11.5146C11.6895 21.1152 12.8935 18.378 14.7766 16.2582ZM11.5146 25.6583H15.3477C15.5072 27.6186 16.2892 29.4039 17.4881 30.8188L14.7766 33.5303C12.8935 31.4105 11.6895 28.6733 11.5146 25.6583ZM23.7291 37.8728C20.714 37.6978 17.9768 36.4939 15.8571 34.6107L18.5685 31.8993C19.9834 33.0981 21.7688 33.875 23.7291 34.0396V37.8728ZM16.598 24.8917C16.598 20.5338 20.1327 16.9991 24.4906 16.9991C28.8485 16.9991 32.3831 20.5338 32.3831 24.8917C32.3831 29.2496 28.8485 32.7842 24.4906 32.7842C20.1327 32.7842 16.598 29.2496 16.598 24.8917ZM25.2572 37.8728V34.0396C27.2175 33.8801 29.0028 33.0981 30.4177 31.8993L33.1292 34.6107C31.0094 36.4939 28.2722 37.6978 25.2572 37.8728ZM34.2096 33.5303L31.4982 30.8188C32.697 29.4039 33.4739 27.6186 33.6385 25.6583H37.4716C37.2967 28.6733 36.0927 31.4105 34.2096 33.5303ZM33.6385 24.1302C33.479 22.1699 32.697 20.3846 31.4982 18.9697L34.2096 16.2582C36.0927 18.378 37.2967 21.1152 37.4716 24.1302H33.6385Z" fill="white"/>
</g>
</svg>
