<svg width="100" height="1335" viewBox="0 0 100 1335" fill="none" xmlns="http://www.w3.org/2000/svg">
<g opacity="0.2">
<path d="M49.7326 1334.22C37.0341 1334.22 24.3459 1329.39 14.6763 1319.72C-4.65252 1300.39 -4.65252 1268.95 14.6763 1249.62C24.0441 1240.25 36.4928 1235.1 49.7326 1235.1C62.9724 1235.1 75.4212 1240.25 84.7889 1249.62C104.118 1268.95 104.118 1300.39 84.7889 1319.72C75.1297 1329.38 62.4311 1334.22 49.7326 1334.22ZM17.2785 1317.12C35.1709 1335.01 64.2839 1335.01 82.1763 1317.12C100.069 1299.23 100.069 1270.11 82.1763 1252.22C73.506 1243.55 61.9836 1238.78 49.7222 1238.78C37.4609 1238.78 25.9384 1243.56 17.2681 1252.22C-0.624391 1270.11 -0.624391 1299.23 17.2681 1317.12H17.2785Z" fill="#EBF29D"/>
<path d="M49.077 1303.21C49.2539 1303.64 49.6703 1303.89 50.1074 1303.89C50.2532 1303.89 50.3989 1303.86 50.5446 1303.81C54.0419 1302.34 57.2269 1300.07 59.7458 1297.24C60.1518 1296.78 60.1101 1296.07 59.6521 1295.67C59.1942 1295.26 58.4864 1295.3 58.0804 1295.76C55.7801 1298.35 52.8761 1300.42 49.6806 1301.76C49.1186 1302 48.8479 1302.65 49.0873 1303.21H49.077Z" fill="#EBF29D"/>
<path d="M68.6226 1267.53L50.1369 1260.14C49.8663 1260.04 49.5748 1260.04 49.3042 1260.14L30.8185 1267.53C30.3917 1267.7 30.1211 1268.11 30.1211 1268.56V1281.8C30.1419 1294.02 37.8651 1305.07 49.3355 1309.27C49.4604 1309.31 49.5853 1309.33 49.7206 1309.33C49.8559 1309.33 49.9808 1309.31 50.1057 1309.27C61.576 1305.06 69.2992 1294.02 69.32 1281.8V1268.56C69.32 1268.11 69.0494 1267.7 68.6226 1267.53ZM67.0926 1281.8C67.0718 1292.92 60.0979 1303.05 49.7309 1307.03C39.3639 1303.05 32.3797 1292.92 32.3589 1281.8V1269.32L49.7309 1262.38L67.0926 1269.32V1281.8Z" fill="#EBF29D"/>
<path d="M42.0084 1269.27C41.7378 1269.16 41.4359 1269.16 41.1549 1269.27L36.752 1271.03C36.3253 1271.2 36.0547 1271.6 36.0547 1272.06V1276.75C36.0547 1277.37 36.5543 1277.87 37.1684 1277.87C37.7825 1277.87 38.2821 1277.37 38.2821 1276.75V1272.82L41.9772 1271.34C42.2582 1271.23 42.4664 1271.02 42.5913 1270.74C42.7058 1270.47 42.7058 1270.17 42.5913 1269.88C42.4768 1269.6 42.2686 1269.4 41.998 1269.27H42.0084Z" fill="#EBF29D"/>
<path d="M77.8877 1256.52C70.3727 1248.99 60.3699 1244.86 49.7323 1244.86C39.0947 1244.86 29.1024 1249 21.577 1256.52C6.05768 1272.04 6.05768 1297.3 21.577 1312.83C29.3418 1320.6 39.5318 1324.47 49.7323 1324.47C59.9328 1324.47 70.1229 1320.59 77.8877 1312.83C93.407 1297.31 93.407 1272.05 77.8877 1256.52ZM72.3815 1281.8C72.4127 1295.93 63.3884 1308.28 49.9301 1312.56C49.8052 1312.6 49.6698 1312.6 49.5345 1312.56C36.0762 1308.28 27.0519 1295.93 27.0832 1281.8V1266.18C27.0832 1265.92 27.2392 1265.68 27.4891 1265.58L49.4929 1256.78C49.5658 1256.75 49.649 1256.74 49.7323 1256.74C49.8156 1256.74 49.8989 1256.75 49.9717 1256.78L71.9756 1265.59C72.2254 1265.68 72.3815 1265.92 72.3815 1266.19V1281.81V1281.8Z" fill="#EBF29D"/>
<path d="M49.7326 1207.61C22.4099 1207.61 0.1875 1185.38 0.1875 1158.06C0.1875 1130.75 22.4203 1108.52 49.7326 1108.52C77.0448 1108.52 99.2777 1130.75 99.2777 1158.06C99.2777 1185.38 77.0448 1207.61 49.7326 1207.61ZM49.7326 1111.82C24.2314 1111.82 3.48702 1132.56 3.48702 1158.06C3.48702 1183.57 24.2314 1204.31 49.7326 1204.31C75.2337 1204.31 95.9782 1183.57 95.9782 1158.06C95.9782 1132.56 75.2337 1111.82 49.7326 1111.82Z" fill="#DA7DB5"/>
<path d="M82.0648 1122.71L66.7266 1138.05L69.7442 1141.07L85.0824 1125.73L82.0648 1122.71Z" fill="#DA7DB5"/>
<path d="M29.264 1175.51L13.9258 1190.85L16.9434 1193.87L32.2816 1178.53L29.264 1175.51Z" fill="#DA7DB5"/>
<path d="M70.1934 1175.52L67.1758 1178.54L82.514 1193.87L85.5316 1190.86L70.1934 1175.52Z" fill="#DA7DB5"/>
<path d="M16.9395 1122.26L13.9219 1125.27L29.2528 1140.61L32.2704 1137.59L16.9395 1122.26Z" fill="#DA7DB5"/>
<path d="M61.8167 1159.4C62.816 1158.4 62.816 1156.78 61.8167 1155.8L59.6933 1153.68C58.6941 1152.68 57.0808 1152.68 56.092 1153.68L54.947 1154.83L53.6251 1153.51C52.6259 1152.51 51.0126 1152.51 50.0237 1153.51L48.8788 1154.66L47.5569 1153.33C46.5577 1152.33 44.9443 1152.33 43.9555 1153.33L36.9297 1160.35C36.8776 1160.41 36.8776 1160.49 36.9297 1160.55C37.8664 1161.49 39.3965 1161.49 40.3437 1160.55L44.8715 1156.02C45.3607 1155.54 46.1517 1155.54 46.6409 1156.02L46.974 1156.36C47.0365 1156.42 47.0365 1156.51 46.974 1156.58L43.1957 1160.35C43.1436 1160.41 43.1436 1160.49 43.1957 1160.55C44.1325 1161.49 45.6625 1161.49 46.6097 1160.55L50.9501 1156.21C51.4393 1155.72 52.2304 1155.72 52.7196 1156.21L53.0526 1156.54C53.1047 1156.6 53.1047 1156.68 53.0526 1156.74L49.4096 1160.39C49.3576 1160.44 49.3576 1160.52 49.4096 1160.58C50.3464 1161.52 51.8765 1161.52 52.8237 1160.58L57.0183 1156.39C57.5075 1155.9 58.2986 1155.9 58.7878 1156.39L59.506 1157.11C59.787 1157.39 59.787 1157.86 59.506 1158.14L59.3915 1158.25C59.1105 1158.53 58.6421 1158.53 58.3611 1158.25L57.4347 1157.33C57.3826 1157.27 57.2994 1157.27 57.2369 1157.33L55.634 1158.93C55.582 1158.98 55.582 1159.06 55.634 1159.13L57.0808 1160.57C58.08 1161.57 59.6933 1161.57 60.6822 1160.57L61.8272 1159.43L61.8167 1159.4Z" fill="#DA7DB5"/>
<path d="M49.7337 1120.07C28.7499 1120.07 11.7422 1137.08 11.7422 1158.06C11.7422 1179.05 28.7499 1196.06 49.7337 1196.06C70.7175 1196.06 87.7252 1179.05 87.7252 1158.06C87.7252 1137.08 70.7175 1120.07 49.7337 1120.07ZM51.2846 1131.8C57.3841 1132.16 62.9215 1134.59 67.2098 1138.4L61.7245 1143.89C58.8621 1141.46 55.2503 1139.89 51.2846 1139.56V1131.8ZM48.1932 1131.8V1139.56C44.2276 1139.88 40.6158 1141.46 37.7534 1143.89L32.268 1138.4C36.5564 1134.59 42.0938 1132.16 48.1932 1131.8ZM30.0823 1140.59L35.5676 1146.07C33.1424 1148.94 31.5707 1152.55 31.2376 1156.51H23.4832C23.8371 1150.41 26.2727 1144.88 30.0823 1140.59ZM23.4832 1159.61H31.2376C31.5603 1163.57 33.1424 1167.18 35.5676 1170.05L30.0823 1175.53C26.2727 1171.24 23.8371 1165.7 23.4832 1159.61ZM48.1932 1184.32C42.0938 1183.96 36.5564 1181.53 32.268 1177.72L37.7534 1172.23C40.6158 1174.66 44.2276 1176.23 48.1932 1176.56V1184.32ZM33.7669 1158.05C33.7669 1149.24 40.9176 1142.09 49.7337 1142.09C58.5498 1142.09 65.7006 1149.24 65.7006 1158.05C65.7006 1166.87 58.5498 1174.02 49.7337 1174.02C40.9176 1174.02 33.7669 1166.87 33.7669 1158.05ZM51.2846 1184.32V1176.56C55.2503 1176.24 58.8621 1174.66 61.7245 1172.23L67.2098 1177.72C62.9215 1181.53 57.3841 1183.96 51.2846 1184.32ZM69.3956 1175.53L63.9103 1170.05C66.3355 1167.18 67.9072 1163.57 68.2403 1159.61H75.9947C75.6408 1165.7 73.2052 1171.24 69.3956 1175.53ZM68.2403 1156.51C67.9176 1152.55 66.3355 1148.94 63.9103 1146.07L69.3956 1140.59C73.2052 1144.88 75.6408 1150.41 75.9947 1156.51H68.2403Z" fill="#DA7DB5"/>
<path d="M49.8771 1084.15C22.5544 1084.15 0.332031 1061.92 0.332031 1034.61C0.332031 1007.3 22.5649 985.062 49.8771 985.062C77.1894 985.062 99.4223 1007.3 99.4223 1034.61C99.4223 1061.92 77.1894 1084.15 49.8771 1084.15ZM49.8771 988.362C24.376 988.362 3.63155 1009.11 3.63155 1034.61C3.63155 1060.11 24.376 1080.85 49.8771 1080.85C75.3783 1080.85 96.1227 1060.11 96.1227 1034.61C96.1227 1009.11 75.3783 988.362 49.8771 988.362Z" fill="#EBF29D"/>
<path d="M65.9516 1003.67C65.7018 1003.67 65.452 1003.62 65.223 1003.51C60.4246 1001.13 55.2619 999.926 49.8806 999.926C44.4994 999.926 39.3367 1001.13 34.5383 1003.51C33.9034 1003.82 33.1436 1003.69 32.6439 1003.19L24.1297 994.68C23.7654 994.316 23.5988 993.816 23.6613 993.306C23.7237 992.796 24.0152 992.349 24.4524 992.088C32.1235 987.488 40.9188 985.062 49.8911 985.062C58.8633 985.062 67.6586 987.498 75.3298 992.088C75.7669 992.349 76.0584 992.796 76.1208 993.306C76.1833 993.816 76.0063 994.316 75.6524 994.68L67.1382 1003.19C66.8155 1003.51 66.3992 1003.67 65.962 1003.67H65.9516ZM49.8806 996.626C55.366 996.626 60.6536 997.771 65.6081 1000.03L71.77 993.868C65.0669 990.256 57.5414 988.362 49.8806 988.362C42.2199 988.362 34.6945 990.256 27.9913 993.868L34.1532 1000.03C39.1077 997.771 44.3953 996.626 49.8806 996.626Z" fill="#EBF29D"/>
<path d="M49.8789 1084.15C40.9066 1084.15 32.1113 1081.72 24.4401 1077.13C24.003 1076.87 23.7115 1076.42 23.6491 1075.91C23.5866 1075.4 23.7636 1074.9 24.1175 1074.53L32.6317 1066.02C33.1314 1065.52 33.9016 1065.4 34.5261 1065.71C39.3245 1068.08 44.4872 1069.29 49.8684 1069.29C55.2497 1069.29 60.4124 1068.08 65.2108 1065.71C65.8458 1065.4 66.6055 1065.52 67.1051 1066.02L75.6195 1074.53C75.9838 1074.9 76.1503 1075.4 76.0878 1075.91C76.0253 1076.42 75.7339 1076.87 75.2967 1077.13C67.6256 1081.73 58.8303 1084.15 49.8581 1084.15H49.8789ZM27.9895 1075.35C34.6927 1078.96 42.2181 1080.85 49.8789 1080.85C57.5396 1080.85 65.0651 1078.96 71.7683 1075.35L65.6063 1069.18C60.6518 1071.44 55.3642 1072.59 49.8789 1072.59C44.3935 1072.59 39.1059 1071.44 34.1514 1069.18L27.9895 1075.35Z" fill="#EBF29D"/>
<path d="M90.9828 1060.85C90.5457 1060.85 90.1293 1060.68 89.8171 1060.37L81.3028 1051.85C80.8032 1051.36 80.6783 1050.58 80.9906 1049.96C83.3637 1045.16 84.5711 1040 84.5711 1034.62C84.5711 1029.24 83.3637 1024.07 80.9906 1019.28C80.6783 1018.64 80.8032 1017.87 81.3028 1017.38L89.8171 1008.87C90.1814 1008.5 90.681 1008.34 91.191 1008.4C91.701 1008.46 92.1486 1008.75 92.4088 1009.19C97.0094 1016.86 99.4346 1025.66 99.4346 1034.63C99.4346 1043.6 97.0094 1052.4 92.4088 1060.07C92.1486 1060.5 91.701 1060.8 91.191 1060.86C91.1181 1060.86 91.0557 1060.86 90.9828 1060.86V1060.85ZM84.4567 1050.33L90.6185 1056.5C94.2303 1049.79 96.1247 1042.27 96.1247 1034.61C96.1247 1026.95 94.2303 1019.42 90.6185 1012.72L84.4567 1018.88C86.7153 1023.83 87.8602 1029.12 87.8602 1034.61C87.8602 1040.09 86.7153 1045.38 84.4567 1050.33Z" fill="#EBF29D"/>
<path d="M8.77342 1060.85C8.70056 1060.85 8.6381 1060.85 8.57565 1060.84C8.06563 1060.77 7.61808 1060.48 7.35786 1060.05C2.75724 1052.37 0.332031 1043.58 0.332031 1034.61C0.332031 1025.64 2.75724 1016.84 7.35786 1009.17C7.61808 1008.73 8.06563 1008.44 8.57565 1008.38C9.08568 1008.32 9.5853 1008.49 9.9496 1008.85L18.4639 1017.36C18.9635 1017.86 19.0884 1018.63 18.7761 1019.25C16.4029 1024.05 15.1955 1029.22 15.1955 1034.6C15.1955 1039.98 16.4029 1045.14 18.7761 1049.94C19.0884 1050.57 18.9635 1051.34 18.4639 1051.83L9.9496 1060.35C9.63734 1060.66 9.221 1060.84 8.78384 1060.84L8.77342 1060.85ZM9.1377 1012.72C5.5259 1019.42 3.63155 1026.95 3.63155 1034.61C3.63155 1042.27 5.5259 1049.79 9.1377 1056.5L15.2997 1050.33C13.041 1045.38 11.896 1040.09 11.896 1034.61C11.896 1029.12 13.041 1023.83 15.2997 1018.88L9.1377 1012.72Z" fill="#EBF29D"/>
<path d="M49.8782 996.616C28.9361 996.616 11.8867 1013.66 11.8867 1034.61C11.8867 1055.56 28.9257 1072.6 49.8782 1072.6C70.8308 1072.6 87.8698 1055.56 87.8698 1034.61C87.8698 1013.66 70.8308 996.616 49.8782 996.616ZM71.2576 1022.13C73.0583 1025.21 74.1512 1028.57 74.5051 1032.14C74.5155 1032.29 74.453 1032.42 74.3281 1032.49C71.6115 1034.16 69.1759 1036.2 67.0733 1038.58C66.9796 1038.7 66.8235 1038.74 66.6882 1038.69L61.9939 1037.16C61.8586 1037.12 61.7649 1037 61.7441 1036.86C61.2133 1032.97 60.0059 1029.26 58.1531 1025.8C58.0907 1025.68 58.1011 1025.53 58.1844 1025.42L61.0884 1021.42C61.1612 1021.33 61.2757 1021.26 61.3902 1021.26C61.4214 1021.26 61.4422 1021.26 61.4735 1021.26C64.5752 1021.95 67.7603 1022.18 70.9245 1021.92C71.0703 1021.91 71.2055 1021.98 71.2784 1022.11L71.2576 1022.13ZM59.1836 1037.51C59.194 1037.62 59.1627 1037.72 59.1003 1037.79C56.6334 1040.63 53.49 1042.91 50.024 1044.37C49.9303 1044.41 49.8366 1044.41 49.7429 1044.37C46.2768 1042.9 43.1335 1040.62 40.6666 1037.79C40.6042 1037.72 40.5729 1037.62 40.5833 1037.51C41.0621 1033.74 42.2383 1030.14 44.0598 1026.81C44.1119 1026.72 44.1951 1026.66 44.2992 1026.63C46.1311 1026.25 48.0047 1026.05 49.8887 1026.05C51.7726 1026.05 53.6462 1026.25 55.4781 1026.63C55.5822 1026.66 55.6654 1026.72 55.7175 1026.81C57.539 1030.14 58.7048 1033.74 59.194 1037.51H59.1836ZM58.6215 1011.68C58.6215 1011.68 58.7464 1011.57 58.8713 1011.57C58.9129 1011.57 58.965 1011.57 59.017 1011.6C62.8474 1013.12 66.2718 1015.62 68.9364 1018.82C69.0718 1018.97 69.0197 1019.14 68.9885 1019.2C68.9677 1019.26 68.874 1019.42 68.6555 1019.42C66.2927 1019.45 63.9403 1019.18 61.6608 1018.64C61.5671 1018.62 61.4839 1018.56 61.4319 1018.47C60.2141 1016.47 59.2356 1014.3 58.5278 1012.05C58.4654 1011.85 58.5799 1011.72 58.6319 1011.68H58.6215ZM44.6219 1010.43C48.0671 1009.69 51.6997 1009.69 55.145 1010.43C55.2803 1010.46 55.3948 1010.56 55.4261 1010.7C56.1651 1013.79 57.362 1016.75 58.9754 1019.48C59.0482 1019.61 59.0379 1019.76 58.9546 1019.89L56.0714 1023.87C55.9881 1023.98 55.8424 1024.04 55.7071 1024.01C51.8975 1023.24 47.8694 1023.24 44.0598 1024.01C43.9245 1024.04 43.7788 1023.98 43.6955 1023.87L40.8124 1019.89C40.7291 1019.78 40.7187 1019.61 40.7915 1019.48C42.4049 1016.75 43.6018 1013.79 44.3408 1010.7C44.3721 1010.56 44.4866 1010.46 44.6219 1010.43ZM30.8304 1018.82C33.4951 1015.61 36.9195 1013.11 40.7499 1011.6C40.802 1011.58 40.8539 1011.57 40.8956 1011.57C41.0309 1011.57 41.1142 1011.65 41.1454 1011.68C41.1974 1011.73 41.312 1011.85 41.2495 1012.05C40.5417 1014.31 39.5633 1016.47 38.3455 1018.47C38.2934 1018.56 38.2102 1018.62 38.1165 1018.64C35.837 1019.18 33.4847 1019.45 31.1219 1019.42C30.9033 1019.42 30.8097 1019.26 30.7888 1019.2C30.7576 1019.14 30.7056 1018.97 30.8409 1018.82H30.8304ZM28.5093 1022.13C28.5718 1022.01 28.6967 1021.94 28.832 1021.94C28.832 1021.94 28.8528 1021.94 28.8632 1021.94C32.0378 1022.19 35.2229 1021.97 38.3143 1021.28C38.46 1021.25 38.6057 1021.31 38.689 1021.43L41.593 1025.43C41.6763 1025.54 41.6866 1025.7 41.6242 1025.81C39.7715 1029.27 38.564 1032.98 38.0332 1036.87C38.0124 1037 37.9187 1037.12 37.7834 1037.17L33.0891 1038.7C32.9538 1038.74 32.7977 1038.7 32.704 1038.59C30.6014 1036.21 28.1659 1034.17 25.4492 1032.51C25.3347 1032.43 25.2618 1032.3 25.2722 1032.15C25.6261 1028.58 26.7191 1025.21 28.5198 1022.14L28.5093 1022.13ZM29.6438 1047.77C29.5814 1047.97 29.4045 1048.01 29.3316 1048.02C29.2587 1048.02 29.0922 1048.02 28.9777 1047.86C26.7606 1044.37 25.4492 1040.33 25.189 1036.19C25.1786 1035.98 25.3139 1035.88 25.3763 1035.85C25.4388 1035.82 25.6053 1035.74 25.7719 1035.87C27.6975 1037.23 29.4461 1038.83 30.9762 1040.61C31.0386 1040.69 31.0698 1040.78 31.0594 1040.88C30.8721 1043.23 30.3933 1045.55 29.6334 1047.79L29.6438 1047.77ZM39.9276 1057.28C36.6801 1055.85 33.8177 1053.76 31.4237 1051.07C31.3301 1050.97 31.2988 1050.81 31.3509 1050.69C32.5687 1047.75 33.3389 1044.66 33.6408 1041.5C33.6512 1041.35 33.7553 1041.23 33.8906 1041.19L38.5329 1039.68C38.5329 1039.68 38.6057 1039.66 38.6473 1039.66C38.7514 1039.66 38.8451 1039.7 38.918 1039.78C41.5201 1042.7 44.778 1045.07 48.3482 1046.64C48.4835 1046.7 48.5667 1046.83 48.5667 1046.97V1051.85C48.5667 1052 48.4835 1052.14 48.3482 1052.19C45.4338 1053.45 42.7275 1055.14 40.3023 1057.22C40.1982 1057.31 40.0421 1057.33 39.9172 1057.27L39.9276 1057.28ZM56.3003 1058.31C56.2899 1058.38 56.2379 1058.55 56.0298 1058.6C52.012 1059.62 47.7653 1059.62 43.7475 1058.6C43.5498 1058.55 43.4874 1058.38 43.477 1058.31C43.4666 1058.24 43.4457 1058.07 43.6226 1057.93C45.517 1056.53 47.5779 1055.35 49.7533 1054.45C49.847 1054.4 49.9407 1054.4 50.0344 1054.45C52.1994 1055.35 54.2603 1056.53 56.1651 1057.93C56.3316 1058.06 56.3212 1058.24 56.3108 1058.31H56.3003ZM68.364 1051.08C65.97 1053.77 63.1076 1055.85 59.8601 1057.28C59.7248 1057.34 59.5791 1057.31 59.475 1057.23C57.0498 1055.15 54.3539 1053.46 51.4291 1052.2C51.2938 1052.14 51.2106 1052.01 51.2106 1051.87V1046.98C51.2106 1046.84 51.2938 1046.7 51.4291 1046.65C54.9993 1045.08 58.2676 1042.71 60.8593 1039.79C60.9322 1039.71 61.0259 1039.67 61.13 1039.67C61.1716 1039.67 61.2028 1039.67 61.2444 1039.69L65.8867 1041.2C66.022 1041.24 66.1261 1041.36 66.1365 1041.51C66.4384 1044.67 67.2086 1047.75 68.4264 1050.7C68.4785 1050.82 68.4576 1050.98 68.3536 1051.08H68.364ZM70.7996 1047.87C70.6851 1048.05 70.5082 1048.05 70.4457 1048.03C70.3728 1048.03 70.2063 1047.98 70.1335 1047.79C69.384 1045.55 68.9053 1043.23 68.7075 1040.88C68.7075 1040.79 68.7283 1040.69 68.7907 1040.61C70.3208 1038.83 72.0694 1037.24 73.995 1035.87C74.0679 1035.82 74.1408 1035.79 74.2032 1035.79C74.2865 1035.79 74.3489 1035.83 74.3906 1035.85C74.453 1035.88 74.5988 1035.98 74.578 1036.19C74.3178 1040.33 73.0063 1044.37 70.7892 1047.86L70.7996 1047.87Z" fill="#EBF29D"/>
<path d="M99.111 912.285C99.111 939.608 76.8782 961.841 49.5555 961.841C22.2328 961.841 0 939.608 0 912.285C0 884.962 22.2328 862.729 49.5555 862.729C76.8782 862.729 99.111 884.962 99.111 912.285ZM3.57015 912.285C3.57015 937.64 24.2001 958.27 49.5555 958.27C74.9109 958.27 95.5408 937.64 95.5408 912.285C95.5408 886.93 74.9109 866.3 49.5555 866.3C24.2001 866.3 3.57015 886.93 3.57015 912.285Z" fill="#11F8A5"/>
<path d="M99.1136 791.149C99.1136 792.138 98.3122 792.929 97.3338 792.929C96.3553 792.929 95.5539 792.128 95.5539 791.149C95.5539 765.794 74.924 745.164 49.5685 745.164C24.2131 745.164 3.58317 765.794 3.58317 791.149C3.58317 792.138 2.78169 792.929 1.80327 792.929C0.824862 792.929 0.0234375 792.128 0.0234375 791.149C0.0234375 763.827 22.2563 741.594 49.5789 741.594C76.9016 741.594 99.1344 763.827 99.1344 791.149H99.1136Z" fill="#11F8A5"/>
<path d="M40.0117 903.531C40.0117 905.353 41.2504 906.935 43.0198 907.372L46.3818 908.215V899.565H43.9878C41.802 899.565 40.0221 901.345 40.0221 903.531H40.0117Z" fill="#11F8A5"/>
<path d="M52.7291 925.004H55.1231C57.309 925.004 59.0888 923.224 59.0888 921.038C59.0888 919.217 57.8502 917.635 56.0807 917.198L52.7188 916.354V925.004H52.7291Z" fill="#11F8A5"/>
<path d="M49.5561 871.962C27.3233 871.962 9.22266 890.052 9.22266 912.295C9.22266 934.539 27.3129 952.629 49.5561 952.629C71.7994 952.629 89.8896 934.539 89.8896 912.295C89.8896 890.052 71.7994 871.962 49.5561 871.962ZM65.4605 905.925H59.1008V902.74C59.1008 900.992 57.6748 899.555 55.9158 899.555H52.7307V909.797L57.6332 911.026C62.2338 912.181 65.4501 916.292 65.4501 921.039C65.4501 926.732 60.8183 931.364 55.1248 931.364H52.7307V939.42H46.3711V931.364H43.186C37.9193 931.364 33.6413 927.086 33.6413 921.819V918.634H40.001V921.819C40.001 923.568 41.427 925.004 43.186 925.004H46.3711V914.762L41.4686 913.534C36.868 912.379 33.6518 908.267 33.6518 903.521C33.6518 897.827 38.2836 893.196 43.9771 893.196H46.3711V885.139H52.7307V893.196H55.9158C61.1825 893.196 65.4605 897.473 65.4605 902.74V905.925Z" fill="#11F8A5"/>
<path d="M99.173 790.389V909.984C99.173 910.973 98.3716 911.764 97.3932 911.764C96.4148 911.764 95.6133 910.963 95.6133 909.984V790.389C95.6133 789.4 96.4148 788.609 97.3932 788.609C98.3716 788.609 99.173 789.411 99.173 790.389Z" fill="#11F8A5"/>
<path d="M3.63786 790.129V909.725C3.63786 910.714 2.83637 911.505 1.85796 911.505C0.879549 911.505 0.078125 910.703 0.078125 909.725V790.129C0.078125 789.141 0.879549 788.35 1.85796 788.35C2.83637 788.35 3.63786 789.151 3.63786 790.129Z" fill="#11F8A5"/>
<path d="M49.7326 711C37.0341 711 24.3459 706.171 14.6763 696.501C-4.65252 677.172 -4.65252 645.728 14.6763 626.399C24.0441 617.031 36.4928 611.879 49.7326 611.879C62.9724 611.879 75.4212 617.031 84.7889 626.399C104.118 645.728 104.118 677.172 84.7889 696.501C75.1297 706.16 62.4311 711 49.7326 711ZM17.2785 693.899C35.1709 711.791 64.2839 711.791 82.1763 693.899C100.069 676.007 100.069 646.894 82.1763 629.001C73.506 620.331 61.9836 615.564 49.7222 615.564C37.4609 615.564 25.9384 620.341 17.2681 629.001C-0.624391 646.894 -0.624391 676.007 17.2681 693.899H17.2785Z" fill="#EBF29D"/>
<path d="M49.077 679.993C49.2539 680.42 49.6703 680.67 50.1074 680.67C50.2532 680.67 50.3989 680.639 50.5446 680.587C54.0419 679.119 57.2269 676.85 59.7458 674.019C60.1518 673.561 60.1101 672.853 59.6521 672.447C59.1942 672.041 58.4864 672.083 58.0804 672.541C55.7801 675.132 52.8761 677.204 49.6806 678.536C49.1186 678.776 48.8479 679.431 49.0873 679.993H49.077Z" fill="#EBF29D"/>
<path d="M68.6226 644.313L50.1369 636.923C49.8663 636.819 49.5748 636.819 49.3042 636.923L30.8185 644.313C30.3917 644.479 30.1211 644.885 30.1211 645.343V658.583C30.1419 670.803 37.8651 681.846 49.3355 686.052C49.4604 686.093 49.5853 686.114 49.7206 686.114C49.8559 686.114 49.9808 686.093 50.1057 686.052C61.576 681.836 69.2992 670.803 69.32 658.583V645.343C69.32 644.885 69.0494 644.479 68.6226 644.313ZM67.0926 658.583C67.0718 669.7 60.0979 679.827 49.7309 683.814C39.3639 679.827 32.3797 669.7 32.3589 658.583V646.103L49.7309 639.161L67.0926 646.103V658.583Z" fill="#EBF29D"/>
<path d="M42.0084 646.051C41.7378 645.936 41.4359 645.936 41.1549 646.051L36.752 647.81C36.3253 647.976 36.0547 648.382 36.0547 648.84V653.535C36.0547 654.149 36.5543 654.648 37.1684 654.648C37.7825 654.648 38.2821 654.149 38.2821 653.535V649.6L41.9772 648.122C42.2582 648.008 42.4664 647.799 42.5913 647.518C42.7058 647.248 42.7058 646.946 42.5913 646.665C42.4768 646.384 42.2686 646.176 41.998 646.051H42.0084Z" fill="#EBF29D"/>
<path d="M77.8877 633.3C70.3727 625.775 60.3699 621.643 49.7323 621.643C39.0947 621.643 29.1024 625.785 21.577 633.3C6.05768 648.82 6.05768 674.081 21.577 689.611C29.3418 697.376 39.5318 701.248 49.7323 701.248C59.9328 701.248 70.1229 697.365 77.8877 689.611C93.407 674.092 93.407 648.83 77.8877 633.3ZM72.3815 658.583C72.4127 672.707 63.3884 685.062 49.9301 689.34C49.8052 689.382 49.6698 689.382 49.5345 689.34C36.0762 685.062 27.0519 672.707 27.0832 658.583V642.959C27.0832 642.699 27.2392 642.46 27.4891 642.356L49.4929 633.56C49.5658 633.529 49.649 633.519 49.7323 633.519C49.8156 633.519 49.8989 633.529 49.9717 633.56L71.9756 642.366C72.2254 642.46 72.3815 642.699 72.3815 642.97V658.593V658.583Z" fill="#EBF29D"/>
<path d="M49.7326 584.389C22.4099 584.389 0.1875 562.156 0.1875 534.844C0.1875 507.532 22.4203 485.299 49.7326 485.299C77.0448 485.299 99.2777 507.532 99.2777 534.844C99.2777 562.156 77.0448 584.389 49.7326 584.389ZM49.7326 488.598C24.2314 488.598 3.48702 509.343 3.48702 534.844C3.48702 560.345 24.2314 581.089 49.7326 581.089C75.2337 581.089 95.9782 560.345 95.9782 534.844C95.9782 509.343 75.2337 488.598 49.7326 488.598Z" fill="#DA7DB5"/>
<path d="M82.0648 499.491L66.7266 514.829L69.7442 517.847L85.0824 502.508L82.0648 499.491Z" fill="#DA7DB5"/>
<path d="M29.264 552.29L13.9258 567.628L16.9434 570.646L32.2816 555.307L29.264 552.29Z" fill="#DA7DB5"/>
<path d="M70.1934 552.297L67.1758 555.314L82.514 570.653L85.5316 567.635L70.1934 552.297Z" fill="#DA7DB5"/>
<path d="M16.9395 499.036L13.9219 502.054L29.2528 517.385L32.2704 514.367L16.9395 499.036Z" fill="#DA7DB5"/>
<path d="M61.8167 536.176C62.816 535.177 62.816 533.563 61.8167 532.575L59.6933 530.462C58.6941 529.463 57.0808 529.463 56.092 530.462L54.947 531.607L53.6251 530.285C52.6259 529.286 51.0126 529.286 50.0237 530.285L48.8788 531.44L47.5569 530.108C46.5577 529.109 44.9443 529.109 43.9555 530.108L36.9297 537.134C36.8776 537.186 36.8776 537.269 36.9297 537.331C37.8664 538.268 39.3965 538.268 40.3437 537.331L44.8715 532.804C45.3607 532.314 46.1517 532.314 46.6409 532.804L46.974 533.137C47.0365 533.199 47.0365 533.293 46.974 533.355L43.1957 537.134C43.1436 537.186 43.1436 537.269 43.1957 537.331C44.1325 538.268 45.6625 538.268 46.6097 537.331L50.9501 532.991C51.4393 532.502 52.2304 532.502 52.7196 532.991L53.0526 533.324C53.1047 533.376 53.1047 533.459 53.0526 533.522L49.4096 537.165C49.3576 537.217 49.3576 537.3 49.4096 537.363C50.3464 538.299 51.8765 538.299 52.8237 537.363L57.0183 533.168C57.5075 532.679 58.2986 532.679 58.7878 533.168L59.506 533.886C59.787 534.167 59.787 534.636 59.506 534.917L59.3915 535.031C59.1105 535.312 58.6421 535.312 58.3611 535.031L57.4347 534.105C57.3826 534.053 57.2994 534.053 57.2369 534.105L55.634 535.708C55.582 535.76 55.582 535.843 55.634 535.905L57.0808 537.352C58.08 538.351 59.6933 538.351 60.6822 537.352L61.8272 536.207L61.8167 536.176Z" fill="#DA7DB5"/>
<path d="M49.7337 496.853C28.7499 496.853 11.7422 513.86 11.7422 534.844C11.7422 555.828 28.7499 572.836 49.7337 572.836C70.7175 572.836 87.7252 555.828 87.7252 534.844C87.7252 513.86 70.7175 496.853 49.7337 496.853ZM51.2846 508.583C57.3841 508.937 62.9215 511.373 67.2098 515.182L61.7245 520.668C58.8621 518.242 55.2503 516.671 51.2846 516.338V508.583ZM48.1932 508.583V516.338C44.2276 516.66 40.6158 518.242 37.7534 520.668L32.268 515.182C36.5564 511.373 42.0938 508.937 48.1932 508.583ZM30.0823 517.368L35.5676 522.853C33.1424 525.716 31.5707 529.327 31.2376 533.293H23.4832C23.8371 527.194 26.2727 521.656 30.0823 517.368ZM23.4832 536.385H31.2376C31.5603 540.35 33.1424 543.962 35.5676 546.824L30.0823 552.31C26.2727 548.021 23.8371 542.484 23.4832 536.385ZM48.1932 561.095C42.0938 560.741 36.5564 558.305 32.268 554.496L37.7534 549.01C40.6158 551.435 44.2276 553.007 48.1932 553.34V561.095ZM33.7669 534.834C33.7669 526.018 40.9176 518.867 49.7337 518.867C58.5498 518.867 65.7006 526.018 65.7006 534.834C65.7006 543.65 58.5498 550.801 49.7337 550.801C40.9176 550.801 33.7669 543.65 33.7669 534.834ZM51.2846 561.095V553.34C55.2503 553.018 58.8621 551.435 61.7245 549.01L67.2098 554.496C62.9215 558.305 57.3841 560.741 51.2846 561.095ZM69.3956 552.31L63.9103 546.824C66.3355 543.962 67.9072 540.35 68.2403 536.385H75.9947C75.6408 542.484 73.2052 548.021 69.3956 552.31ZM68.2403 533.293C67.9176 529.327 66.3355 525.716 63.9103 522.853L69.3956 517.368C73.2052 521.656 75.6408 527.194 75.9947 533.293H68.2403Z" fill="#DA7DB5"/>
<path d="M49.8771 460.933C22.5544 460.933 0.332031 438.7 0.332031 411.388C0.332031 384.076 22.5649 361.843 49.8771 361.843C77.1894 361.843 99.4223 384.076 99.4223 411.388C99.4223 438.7 77.1894 460.933 49.8771 460.933ZM49.8771 365.142C24.376 365.142 3.63155 385.887 3.63155 411.388C3.63155 436.889 24.376 457.633 49.8771 457.633C75.3783 457.633 96.1227 436.889 96.1227 411.388C96.1227 385.887 75.3783 365.142 49.8771 365.142Z" fill="#EBF29D"/>
<path d="M65.9516 380.453C65.7018 380.453 65.452 380.401 65.223 380.287C60.4246 377.914 55.2619 376.706 49.8806 376.706C44.4994 376.706 39.3367 377.914 34.5383 380.287C33.9034 380.599 33.1436 380.474 32.6439 379.975L24.1297 371.46C23.7654 371.096 23.5988 370.596 23.6613 370.086C23.7237 369.576 24.0152 369.129 24.4524 368.869C32.1235 364.268 40.9188 361.843 49.8911 361.843C58.8633 361.843 67.6586 364.278 75.3298 368.869C75.7669 369.129 76.0584 369.576 76.1208 370.086C76.1833 370.596 76.0063 371.096 75.6524 371.46L67.1382 379.975C66.8155 380.287 66.3992 380.453 65.962 380.453H65.9516ZM49.8806 373.407C55.366 373.407 60.6536 374.552 65.6081 376.81L71.77 370.648C65.0669 367.037 57.5414 365.142 49.8806 365.142C42.2199 365.142 34.6945 367.037 27.9913 370.648L34.1532 376.81C39.1077 374.552 44.3953 373.407 49.8806 373.407Z" fill="#EBF29D"/>
<path d="M49.8789 460.933C40.9066 460.933 32.1113 458.497 24.4401 453.907C24.003 453.647 23.7115 453.199 23.6491 452.689C23.5866 452.179 23.7636 451.679 24.1175 451.315L32.6317 442.801C33.1314 442.301 33.9016 442.176 34.5261 442.489C39.3245 444.862 44.4872 446.069 49.8684 446.069C55.2497 446.069 60.4124 444.862 65.2108 442.489C65.8458 442.176 66.6055 442.301 67.1051 442.801L75.6195 451.315C75.9838 451.679 76.1503 452.179 76.0878 452.689C76.0253 453.199 75.7339 453.647 75.2967 453.907C67.6256 458.507 58.8303 460.933 49.8581 460.933H49.8789ZM27.9895 452.127C34.6927 455.739 42.2181 457.633 49.8789 457.633C57.5396 457.633 65.0651 455.739 71.7683 452.127L65.6063 445.965C60.6518 448.224 55.3642 449.369 49.8789 449.369C44.3935 449.369 39.1059 448.224 34.1514 445.965L27.9895 452.127Z" fill="#EBF29D"/>
<path d="M90.9828 437.628C90.5457 437.628 90.1293 437.461 89.8171 437.149L81.3028 428.635C80.8032 428.135 80.6783 427.365 80.9906 426.741C83.3637 421.942 84.5711 416.779 84.5711 411.398C84.5711 406.017 83.3637 400.854 80.9906 396.056C80.6783 395.421 80.8032 394.651 81.3028 394.162L89.8171 385.647C90.1814 385.283 90.681 385.116 91.191 385.179C91.701 385.241 92.1486 385.533 92.4088 385.97C97.0094 393.641 99.4346 402.436 99.4346 411.409C99.4346 420.381 97.0094 429.176 92.4088 436.847C92.1486 437.285 91.701 437.576 91.191 437.638C91.1181 437.638 91.0557 437.638 90.9828 437.638V437.628ZM84.4567 427.115L90.6185 433.277C94.2303 426.574 96.1247 419.049 96.1247 411.388C96.1247 403.727 94.2303 396.202 90.6185 389.498L84.4567 395.66C86.7153 400.615 87.8602 405.902 87.8602 411.388C87.8602 416.873 86.7153 422.161 84.4567 427.115Z" fill="#EBF29D"/>
<path d="M8.77342 437.628C8.70056 437.628 8.6381 437.628 8.57565 437.617C8.06563 437.555 7.61808 437.264 7.35786 436.826C2.75724 429.155 0.332031 420.36 0.332031 411.388C0.332031 402.415 2.75724 393.62 7.35786 385.949C7.61808 385.512 8.06563 385.22 8.57565 385.158C9.08568 385.095 9.5853 385.272 9.9496 385.626L18.4639 394.141C18.9635 394.64 19.0884 395.41 18.7761 396.035C16.4029 400.833 15.1955 405.996 15.1955 411.377C15.1955 416.758 16.4029 421.921 18.7761 426.72C19.0884 427.354 18.9635 428.125 18.4639 428.614L9.9496 437.128C9.63734 437.44 9.221 437.617 8.78384 437.617L8.77342 437.628ZM9.1377 389.498C5.5259 396.201 3.63155 403.727 3.63155 411.388C3.63155 419.048 5.5259 426.574 9.1377 433.277L15.2997 427.115C13.041 422.161 11.896 416.873 11.896 411.388C11.896 405.902 13.041 400.615 15.2997 395.66L9.1377 389.498Z" fill="#EBF29D"/>
<path d="M49.8782 373.396C28.9361 373.396 11.8867 390.435 11.8867 411.388C11.8867 432.341 28.9257 449.38 49.8782 449.38C70.8308 449.38 87.8698 432.341 87.8698 411.388C87.8698 390.435 70.8308 373.396 49.8782 373.396ZM71.2576 398.908C73.0583 401.989 74.1512 405.351 74.5051 408.921C74.5155 409.067 74.453 409.202 74.3281 409.275C71.6115 410.94 69.1759 412.981 67.0733 415.364C66.9796 415.479 66.8235 415.52 66.6882 415.468L61.9939 413.938C61.8586 413.896 61.7649 413.782 61.7441 413.636C61.2133 409.754 60.0059 406.038 58.1531 402.582C58.0907 402.457 58.1011 402.312 58.1844 402.197L61.0884 398.2C61.1612 398.107 61.2757 398.044 61.3902 398.044C61.4214 398.044 61.4422 398.044 61.4735 398.044C64.5752 398.731 67.7603 398.96 70.9245 398.7C71.0703 398.689 71.2055 398.762 71.2784 398.887L71.2576 398.908ZM59.1836 414.292C59.194 414.396 59.1627 414.5 59.1003 414.573C56.6334 417.415 53.49 419.694 50.024 421.151C49.9303 421.193 49.8366 421.193 49.7429 421.151C46.2768 419.684 43.1335 417.404 40.6666 414.573C40.6042 414.5 40.5729 414.396 40.5833 414.292C41.0621 410.524 42.2383 406.923 44.0598 403.592C44.1119 403.498 44.1951 403.436 44.2992 403.415C46.1311 403.03 48.0047 402.832 49.8887 402.832C51.7726 402.832 53.6462 403.03 55.4781 403.415C55.5822 403.436 55.6654 403.498 55.7175 403.592C57.539 406.923 58.7048 410.524 59.194 414.292H59.1836ZM58.6215 388.458C58.6215 388.458 58.7464 388.354 58.8713 388.354C58.9129 388.354 58.965 388.354 59.017 388.385C62.8474 389.905 66.2718 392.403 68.9364 395.598C69.0718 395.754 69.0197 395.921 68.9885 395.983C68.9677 396.035 68.874 396.202 68.6555 396.202C66.2927 396.233 63.9403 395.962 61.6608 395.421C61.5671 395.4 61.4839 395.338 61.4319 395.255C60.2141 393.246 59.2356 391.081 58.5278 388.833C58.4654 388.635 58.5799 388.499 58.6319 388.458H58.6215ZM44.6219 387.209C48.0671 386.47 51.6997 386.47 55.145 387.209C55.2803 387.24 55.3948 387.344 55.4261 387.479C56.1651 390.571 57.362 393.527 58.9754 396.264C59.0482 396.389 59.0379 396.545 58.9546 396.67L56.0714 400.646C55.9881 400.761 55.8424 400.823 55.7071 400.792C51.8975 400.022 47.8694 400.022 44.0598 400.792C43.9245 400.823 43.7788 400.761 43.6955 400.646L40.8124 396.67C40.7291 396.556 40.7187 396.389 40.7915 396.264C42.4049 393.527 43.6018 390.571 44.3408 387.479C44.3721 387.344 44.4866 387.24 44.6219 387.209ZM30.8304 395.598C33.4951 392.392 36.9195 389.894 40.7499 388.385C40.802 388.364 40.8539 388.354 40.8956 388.354C41.0309 388.354 41.1142 388.427 41.1454 388.458C41.1974 388.51 41.312 388.635 41.2495 388.833C40.5417 391.091 39.5633 393.246 38.3455 395.255C38.2934 395.338 38.2102 395.4 38.1165 395.421C35.837 395.962 33.4847 396.233 31.1219 396.202C30.9033 396.202 30.8097 396.035 30.7888 395.983C30.7576 395.921 30.7056 395.754 30.8409 395.598H30.8304ZM28.5093 398.908C28.5718 398.794 28.6967 398.721 28.832 398.721C28.832 398.721 28.8528 398.721 28.8632 398.721C32.0378 398.971 35.2229 398.752 38.3143 398.065C38.46 398.034 38.6057 398.086 38.689 398.211L41.593 402.208C41.6763 402.322 41.6866 402.478 41.6242 402.593C39.7715 406.048 38.564 409.764 38.0332 413.647C38.0124 413.782 37.9187 413.897 37.7834 413.949L33.0891 415.479C32.9538 415.52 32.7977 415.479 32.704 415.375C30.6014 412.991 28.1659 410.951 25.4492 409.285C25.3347 409.213 25.2618 409.077 25.2722 408.932C25.6261 405.361 26.7191 401.989 28.5198 398.918L28.5093 398.908ZM29.6438 424.555C29.5814 424.753 29.4045 424.794 29.3316 424.805C29.2587 424.805 29.0922 424.805 28.9777 424.638C26.7606 421.151 25.4492 417.113 25.189 412.97C25.1786 412.762 25.3139 412.658 25.3763 412.627C25.4388 412.595 25.6053 412.523 25.7719 412.647C27.6975 414.011 29.4461 415.614 30.9762 417.394C31.0386 417.467 31.0698 417.56 31.0594 417.664C30.8721 420.006 30.3933 422.328 29.6334 424.565L29.6438 424.555ZM39.9276 434.058C36.6801 432.632 33.8177 430.54 31.4237 427.854C31.3301 427.75 31.2988 427.594 31.3509 427.469C32.5687 424.534 33.3389 421.443 33.6408 418.279C33.6512 418.133 33.7553 418.008 33.8906 417.966L38.5329 416.457C38.5329 416.457 38.6057 416.436 38.6473 416.436C38.7514 416.436 38.8451 416.478 38.918 416.561C41.5201 419.476 44.778 421.849 48.3482 423.42C48.4835 423.483 48.5667 423.608 48.5667 423.753V428.635C48.5667 428.781 48.4835 428.916 48.3482 428.968C45.4338 430.228 42.7275 431.924 40.3023 433.996C40.1982 434.089 40.0421 434.11 39.9172 434.048L39.9276 434.058ZM56.3003 435.088C56.2899 435.161 56.2379 435.328 56.0298 435.38C52.012 436.4 47.7653 436.4 43.7475 435.38C43.5498 435.328 43.4874 435.161 43.477 435.088C43.4666 435.016 43.4457 434.849 43.6226 434.714C45.517 433.309 47.5779 432.132 49.7533 431.227C49.847 431.185 49.9407 431.185 50.0344 431.227C52.1994 432.132 54.2603 433.309 56.1651 434.714C56.3316 434.839 56.3212 435.016 56.3108 435.088H56.3003ZM68.364 427.865C65.97 430.55 63.1076 432.632 59.8601 434.058C59.7248 434.12 59.5791 434.089 59.475 434.006C57.0498 431.935 54.3539 430.238 51.4291 428.979C51.2938 428.916 51.2106 428.791 51.2106 428.646V423.764C51.2106 423.618 51.2938 423.483 51.4291 423.431C54.9993 421.859 58.2676 419.486 60.8593 416.571C60.9322 416.488 61.0259 416.447 61.13 416.447C61.1716 416.447 61.2028 416.447 61.2444 416.467L65.8867 417.977C66.022 418.018 66.1261 418.143 66.1365 418.289C66.4384 421.453 67.2086 424.534 68.4264 427.48C68.4785 427.605 68.4576 427.761 68.3536 427.865H68.364ZM70.7996 424.649C70.6851 424.826 70.5082 424.826 70.4457 424.815C70.3728 424.815 70.2063 424.763 70.1335 424.565C69.384 422.328 68.9053 420.006 68.7075 417.664C68.7075 417.571 68.7283 417.467 68.7907 417.394C70.3208 415.614 72.0694 414.021 73.995 412.647C74.0679 412.595 74.1408 412.575 74.2032 412.575C74.2865 412.575 74.3489 412.606 74.3906 412.627C74.453 412.658 74.5988 412.762 74.578 412.97C74.3178 417.113 73.0063 421.151 70.7892 424.638L70.7996 424.649Z" fill="#EBF29D"/>
<path d="M99.111 289.065C99.111 316.388 76.8782 338.621 49.5555 338.621C22.2328 338.621 0 316.388 0 289.065C0 261.743 22.2328 239.51 49.5555 239.51C76.8782 239.51 99.111 261.743 99.111 289.065ZM3.57015 289.065C3.57015 314.421 24.2001 335.051 49.5555 335.051C74.9109 335.051 95.5408 314.421 95.5408 289.065C95.5408 263.71 74.9109 243.08 49.5555 243.08C24.2001 243.08 3.57015 263.71 3.57015 289.065Z" fill="#11F8A5"/>
<path d="M99.1136 167.93C99.1136 168.918 98.3122 169.709 97.3338 169.709C96.3553 169.709 95.5539 168.908 95.5539 167.93C95.5539 142.574 74.924 121.944 49.5685 121.944C24.2131 121.944 3.58317 142.574 3.58317 167.93C3.58317 168.918 2.78169 169.709 1.80327 169.709C0.824862 169.709 0.0234375 168.908 0.0234375 167.93C0.0234375 140.607 22.2563 118.374 49.5789 118.374C76.9016 118.374 99.1344 140.607 99.1344 167.93H99.1136Z" fill="#11F8A5"/>
<path d="M40.0117 280.311C40.0117 282.133 41.2504 283.715 43.0198 284.152L46.3818 284.995V276.346H43.9878C41.802 276.346 40.0221 278.126 40.0221 280.311H40.0117Z" fill="#11F8A5"/>
<path d="M52.7291 301.784H55.1231C57.309 301.784 59.0888 300.004 59.0888 297.819C59.0888 295.997 57.8502 294.415 56.0807 293.978L52.7188 293.135V301.784H52.7291Z" fill="#11F8A5"/>
<path d="M49.5561 248.742C27.3233 248.742 9.22266 266.832 9.22266 289.076C9.22266 311.319 27.3129 329.409 49.5561 329.409C71.7994 329.409 89.8896 311.319 89.8896 289.076C89.8896 266.832 71.7994 248.742 49.5561 248.742ZM65.4605 282.706H59.1008V279.521C59.1008 277.772 57.6748 276.335 55.9158 276.335H52.7307V286.578L57.6332 287.806C62.2338 288.961 65.4501 293.073 65.4501 297.819C65.4501 303.512 60.8183 308.144 55.1248 308.144H52.7307V316.201H46.3711V308.144H43.186C37.9193 308.144 33.6413 303.866 33.6413 298.6V295.415H40.001V298.6C40.001 300.348 41.427 301.785 43.186 301.785H46.3711V291.542L41.4686 290.314C36.868 289.159 33.6518 285.048 33.6518 280.301C33.6518 274.608 38.2836 269.976 43.9771 269.976H46.3711V261.92H52.7307V269.976H55.9158C61.1825 269.976 65.4605 274.254 65.4605 279.521V282.706Z" fill="#11F8A5"/>
<path d="M99.173 167.169V286.765C99.173 287.754 98.3716 288.545 97.3932 288.545C96.4148 288.545 95.6133 287.743 95.6133 286.765V167.169C95.6133 166.181 96.4148 165.39 97.3932 165.39C98.3716 165.39 99.173 166.191 99.173 167.169Z" fill="#11F8A5"/>
<path d="M3.63786 166.91V286.505C3.63786 287.494 2.83637 288.285 1.85796 288.285C0.879549 288.285 0.078125 287.483 0.078125 286.505V166.91C0.078125 165.921 0.879549 165.13 1.85796 165.13C2.83637 165.13 3.63786 165.931 3.63786 166.91Z" fill="#11F8A5"/>
<path d="M49.7326 99.1214C37.0341 99.1214 24.3459 94.2919 14.6763 84.6223C-4.65252 65.2934 -4.65252 33.8489 14.6763 14.5201C24.0441 5.15229 36.4928 0 49.7326 0C62.9724 0 75.4212 5.15229 84.7889 14.5201C104.118 33.8489 104.118 65.2934 84.7889 84.6223C75.1297 94.2815 62.4311 99.1214 49.7326 99.1214ZM17.2785 82.0201C35.1709 99.9126 64.2839 99.9126 82.1763 82.0201C100.069 64.1277 100.069 35.0147 82.1763 17.1222C73.506 8.45183 61.9836 3.6847 49.7222 3.6847C37.4609 3.6847 25.9384 8.46223 17.2681 17.1222C-0.624391 35.0147 -0.624391 64.1277 17.2681 82.0201H17.2785Z" fill="#EBF29D"/>
<path d="M49.077 68.1145C49.2539 68.5412 49.6703 68.7909 50.1074 68.7909C50.2532 68.7909 50.3989 68.7597 50.5446 68.7077C54.0419 67.2401 57.2269 64.9709 59.7458 62.1398C60.1518 61.6818 60.1101 60.9741 59.6521 60.5682C59.1942 60.1623 58.4864 60.2039 58.0804 60.6618C55.7801 63.2536 52.8761 65.3249 49.6806 66.6572C49.1186 66.8966 48.8479 67.5524 49.0873 68.1145H49.077Z" fill="#EBF29D"/>
<path d="M68.6226 32.4341L50.1369 25.0439C49.8663 24.9398 49.5748 24.9398 49.3042 25.0439L30.8185 32.4341C30.3917 32.6006 30.1211 33.0065 30.1211 33.4645V46.7043C30.1419 58.924 37.8651 69.9676 49.3355 74.1727C49.4604 74.2143 49.5853 74.2352 49.7206 74.2352C49.8559 74.2352 49.9808 74.2143 50.1057 74.1727C61.576 69.9572 69.2992 58.924 69.32 46.7043V33.4645C69.32 33.0065 69.0494 32.6006 68.6226 32.4341ZM67.0926 46.7043C67.0718 57.8207 60.0979 67.9483 49.7309 71.9348C39.3639 67.9483 32.3797 57.8207 32.3589 46.7043V34.2243L49.7309 27.2818L67.0926 34.2243V46.7043Z" fill="#EBF29D"/>
<path d="M42.0084 34.1718C41.7378 34.0573 41.4359 34.0573 41.1549 34.1718L36.752 35.9309C36.3253 36.0975 36.0547 36.5034 36.0547 36.9614V41.6557C36.0547 42.2698 36.5543 42.7694 37.1684 42.7694C37.7825 42.7694 38.2821 42.2698 38.2821 41.6557V37.7212L41.9772 36.2432C42.2582 36.1287 42.4664 35.9205 42.5913 35.6395C42.7058 35.3688 42.7058 35.067 42.5913 34.786C42.4768 34.505 42.2686 34.2967 41.998 34.1718H42.0084Z" fill="#EBF29D"/>
<path d="M77.8877 21.4214C70.3727 13.8959 60.3699 9.76367 49.7323 9.76367C39.0947 9.76367 29.1024 13.9063 21.577 21.4214C6.05768 36.9406 6.05768 62.2024 21.577 77.7321C29.3418 85.4969 39.5318 89.3689 49.7323 89.3689C59.9328 89.3689 70.1229 85.4865 77.8877 77.7321C93.407 62.2128 93.407 36.951 77.8877 21.4214ZM72.3815 46.7039C72.4127 60.8284 63.3884 73.1835 49.9301 77.4615C49.8052 77.5031 49.6698 77.5031 49.5345 77.4615C36.0762 73.1835 27.0519 60.8284 27.0832 46.7039V31.0805C27.0832 30.8203 27.2392 30.581 27.4891 30.4769L49.4929 21.6816C49.5658 21.6503 49.649 21.64 49.7323 21.64C49.8156 21.64 49.8989 21.6503 49.9717 21.6816L71.9756 30.4873C72.2254 30.581 72.3815 30.8203 72.3815 31.091V46.7143V46.7039Z" fill="#EBF29D"/>
</g>
</svg>
