<svg width="102" height="1212" viewBox="0 0 102 1212" fill="none" xmlns="http://www.w3.org/2000/svg">
<g opacity="0.6">
<path d="M1.33594 1040.65C1.33594 1013.33 23.5688 991.093 50.8915 991.093C78.2142 991.093 100.447 1013.33 100.447 1040.65C100.447 1067.97 78.2142 1090.2 50.8915 1090.2C23.5688 1090.2 1.33594 1067.97 1.33594 1040.65ZM96.8768 1040.65C96.8768 1015.29 76.2469 994.663 50.8915 994.663C25.5361 994.663 4.90616 1015.29 4.90616 1040.65C4.90616 1066 25.5361 1086.63 50.8915 1086.63C76.2469 1086.63 96.8768 1066 96.8768 1040.65Z" fill="#11F8A5"/>
<path d="M1.33327 1161.79C1.33327 1160.81 2.13476 1160.01 3.11317 1160.01C4.09159 1160.01 4.89307 1160.82 4.89307 1161.79C4.89307 1187.15 25.523 1207.78 50.8784 1207.78C76.2338 1207.78 96.8638 1187.15 96.8638 1161.79C96.8638 1160.81 97.6652 1160.01 98.6437 1160.01C99.6221 1160.01 100.423 1160.82 100.423 1161.79C100.423 1189.12 78.1907 1211.35 50.868 1211.35C23.5453 1211.35 1.3125 1189.12 1.3125 1161.79H1.33327Z" fill="#11F8A5"/>
<path d="M98.9324 1039.45H77.2305V1043.73H98.9324V1039.45Z" fill="#11F8A5"/>
<path d="M24.2099 1039.45H2.50781V1043.73H24.2099V1039.45Z" fill="#11F8A5"/>
<path d="M53.1998 1068.43H48.9219V1090.13H53.1998V1068.43Z" fill="#11F8A5"/>
<path d="M53.1998 993.05H48.9219V1014.75H53.1998V993.05Z" fill="#11F8A5"/>
<path d="M76.575 1014.44C61.7322 999.597 37.657 999.597 22.8039 1014.44C7.9612 1029.28 7.9612 1053.36 22.8039 1068.21C37.6466 1083.05 61.7218 1083.05 76.575 1068.21C91.4177 1053.37 91.4177 1029.29 76.575 1014.44ZM57.0379 1017.66C61.3679 1019 65.2503 1021.51 68.2688 1024.92L68.8517 1025.58L67.9982 1025.77C65.7396 1026.31 63.3248 1026.74 60.8267 1027.07L60.3791 1027.13L60.2542 1026.69C59.8379 1025.26 59.3486 1023.89 58.7866 1022.62C58.0892 1021.03 57.3086 1019.63 56.455 1018.46L55.5182 1017.18L57.0379 1017.65V1017.66ZM39.6659 1040.14L39.6867 1039.6C39.7908 1036.31 40.1551 1033.16 40.7796 1030.27L40.8733 1029.81L41.3417 1029.85C46.8166 1030.33 52.6663 1030.31 58.11 1029.8L58.5784 1029.76L58.6825 1030.22C59.3174 1033.14 59.6817 1036.3 59.7754 1039.6V1040.14H39.6763H39.6659ZM59.7754 1042.55V1043.09C59.6609 1046.39 59.2966 1049.55 58.6617 1052.47L58.5576 1052.93L58.0892 1052.89C52.6455 1052.38 46.7959 1052.37 41.3209 1052.84L40.8525 1052.88L40.7588 1052.42C40.1343 1049.53 39.77 1046.39 39.6659 1043.09L39.6451 1042.55H59.7546H59.7754ZM49.7207 1016.75C52.7496 1016.75 55.8305 1020.59 57.7561 1026.78L57.9539 1027.41L57.2981 1027.46C54.7376 1027.68 52.0938 1027.79 49.4396 1027.79C46.9728 1027.79 44.5163 1027.7 42.1223 1027.5L41.4666 1027.45L41.6644 1026.82C43.5899 1020.6 46.6814 1016.74 49.7207 1016.74V1016.75ZM31.0684 1025.04C34.1077 1021.57 38.0214 1019.02 42.4034 1017.67L43.9335 1017.2L42.9863 1018.49C42.1328 1019.65 41.3417 1021.06 40.6547 1022.64C40.1031 1023.89 39.6035 1025.29 39.1663 1026.78L39.0414 1027.21L38.5939 1027.16C36.075 1026.85 33.6393 1026.43 31.3494 1025.9L30.4855 1025.7L31.0684 1025.04ZM24.9898 1039.58C25.2812 1035.52 26.5823 1031.56 28.7577 1028.12L28.9659 1027.79L29.3406 1027.89C32.0052 1028.56 34.8779 1029.11 37.8964 1029.49L38.4585 1029.56L38.344 1030.13C37.7195 1033.14 37.3656 1036.34 37.2719 1039.63V1040.14H24.9585L25.0002 1039.58H24.9898ZM28.9659 1054.9L28.7577 1054.58C26.5823 1051.14 25.2812 1047.17 24.9898 1043.12L24.9481 1042.55H37.2511V1043.06C37.3552 1046.35 37.7195 1049.56 38.3336 1052.57L38.4481 1053.13L37.886 1053.2C34.8779 1053.59 31.9948 1054.13 29.3301 1054.8L28.9554 1054.9H28.9659ZM42.4034 1065.04C38.0214 1063.68 34.1077 1061.13 31.0684 1057.67L30.4855 1057L31.3494 1056.8C33.6393 1056.28 36.075 1055.86 38.5939 1055.54L39.0414 1055.49L39.1663 1055.92C39.6035 1057.42 40.1031 1058.81 40.6547 1060.06C41.3521 1061.65 42.1328 1063.05 42.9863 1064.22L43.9335 1065.51L42.4034 1065.05V1065.04ZM49.7207 1065.94C46.6814 1065.94 43.5899 1062.08 41.6644 1055.87L41.4666 1055.23L42.1223 1055.18C47.0873 1054.78 52.3749 1054.79 57.2981 1055.22L57.9539 1055.27L57.7561 1055.9C55.8201 1062.08 52.7392 1065.93 49.7207 1065.93V1065.94ZM68.2688 1057.77C65.2503 1061.18 61.3575 1063.69 57.0379 1065.04L55.5182 1065.5L56.455 1064.22C57.3086 1063.06 58.0892 1061.65 58.7866 1060.06C59.3382 1058.78 59.8379 1057.42 60.2542 1055.99L60.3791 1055.55L60.8267 1055.62C63.3248 1055.94 65.7396 1056.38 67.9982 1056.91L68.8517 1057.12L68.2688 1057.77ZM74.4412 1043.12C74.1498 1047.22 72.8279 1051.22 70.6004 1054.7L70.3922 1055.02L70.0175 1054.93C67.3841 1054.23 64.5217 1053.68 61.524 1053.27L60.962 1053.2L61.0765 1052.65C61.701 1049.63 62.0653 1046.41 62.159 1043.07V1042.56H74.4724L74.4308 1043.13L74.4412 1043.12ZM62.1798 1040.14V1039.63C62.0757 1036.29 61.7114 1033.06 61.0869 1030.05L60.9724 1029.5L61.5345 1029.43C64.5322 1029.02 67.3841 1028.47 70.0279 1027.77L70.4026 1027.68L70.6108 1028C72.8382 1031.48 74.1705 1035.48 74.4516 1039.59L74.4932 1040.15H62.1902L62.1798 1040.14Z" fill="#11F8A5"/>
<path d="M1.27344 1162.54V1042.95C1.27344 1041.96 2.07493 1041.17 3.05334 1041.17C4.03175 1041.17 4.83324 1041.97 4.83324 1042.95V1162.54C4.83324 1163.53 4.03175 1164.32 3.05334 1164.32C2.07493 1164.32 1.27344 1163.52 1.27344 1162.54Z" fill="#11F8A5"/>
<path d="M96.8242 1162.81V1043.22C96.8242 1042.23 97.6256 1041.44 98.6041 1041.44C99.5825 1041.44 100.384 1042.24 100.384 1043.22V1162.81C100.384 1163.8 99.5825 1164.59 98.6041 1164.59C97.6256 1164.59 96.8242 1163.79 96.8242 1162.81Z" fill="#11F8A5"/>
<path d="M16.4064 953.638C-3.08337 934.149 -3.08337 902.44 16.4064 882.95C35.8961 863.461 67.6048 863.461 87.0945 882.95C106.584 902.44 106.584 934.149 87.0945 953.638C67.6048 973.128 35.8961 973.128 16.4064 953.638ZM84.7389 885.306C66.5478 867.115 36.953 867.115 18.7667 885.306C0.575685 903.497 0.575685 933.092 18.7667 951.278C36.9578 969.469 66.5526 969.469 84.7389 951.278C102.93 933.087 102.93 903.492 84.7389 885.306Z" fill="white"/>
<path d="M85.2783 907.692C85.103 907.517 84.9608 907.294 84.8802 907.048C83.1502 901.929 80.3253 897.393 76.4861 893.554C72.6517 889.719 68.1111 886.894 62.9922 885.16C62.3144 884.927 61.8594 884.297 61.8594 883.581V871.433C61.8594 870.921 62.0963 870.438 62.4992 870.12C62.9068 869.803 63.433 869.694 63.9259 869.817C72.6754 872.007 80.6855 876.547 87.0841 882.951C93.4828 889.354 98.0235 897.36 100.213 906.109C100.336 906.607 100.223 907.133 99.9099 907.54C99.5923 907.948 99.1088 908.18 98.5969 908.18H86.449C85.994 908.18 85.5769 907.996 85.2689 907.687L85.2783 907.692ZM78.8418 891.198C82.7568 895.113 85.7096 899.701 87.634 904.848H96.4214C94.2127 897.492 90.1982 890.771 84.7333 885.306C79.2684 879.842 72.5475 875.827 65.1962 873.623V882.411C70.3435 884.33 74.9315 887.283 78.8465 891.203L78.8418 891.198Z" fill="white"/>
<path d="M16.4052 953.639C10.0066 947.24 5.46115 939.23 3.2714 930.481C3.14817 929.983 3.26193 929.457 3.57475 929.054C3.89231 928.646 4.37575 928.414 4.88764 928.414H17.0355C17.7512 928.414 18.3864 928.869 18.6139 929.547C20.3439 934.666 23.1687 939.202 27.0079 943.041C30.8423 946.875 35.383 949.7 40.5019 951.435C41.1797 951.662 41.6347 952.298 41.6347 953.013V965.161C41.6347 965.673 41.3977 966.156 40.9948 966.474C40.5872 966.792 40.0611 966.901 39.5634 966.777C30.8139 964.588 22.8085 960.047 16.4052 953.648V953.639ZM7.07267 931.741C9.28138 939.097 13.2959 945.818 18.7608 951.283C24.2257 956.748 30.9466 960.763 38.3027 962.971V954.184C33.1553 952.264 28.5673 949.311 24.6523 945.396C20.7373 941.481 17.7844 936.893 15.8601 931.746H7.07267V931.741Z" fill="white"/>
<path d="M62.3554 966.332C62.0426 966.019 61.8672 965.597 61.8672 965.151V953.003C61.8672 952.288 62.3222 951.653 63 951.425C68.1189 949.695 72.6548 946.87 76.494 943.031C80.3331 939.192 83.1532 934.656 84.888 929.537C85.1155 928.859 85.7506 928.404 86.4663 928.404H98.6142C99.1261 928.404 99.6096 928.641 99.9271 929.044C100.245 929.447 100.354 929.978 100.23 930.471C98.036 939.22 93.4953 947.226 87.0967 953.629C80.6981 960.032 72.688 964.573 63.9384 966.763C63.4408 966.886 62.9147 966.772 62.5118 966.459C62.4596 966.412 62.4075 966.369 62.3601 966.322L62.3554 966.332ZM65.1992 954.179V962.966C72.5553 960.758 79.2762 956.743 84.7411 951.278C90.206 945.813 94.2158 939.092 96.4292 931.736H87.6418C85.7222 936.884 82.7693 941.467 78.8496 945.387C74.9346 949.302 70.3466 952.259 65.1992 954.179Z" fill="white"/>
<path d="M3.70819 907.692C3.6608 907.645 3.61342 907.593 3.5755 907.541C3.25794 907.138 3.14892 906.607 3.27215 906.109C5.4619 897.36 10.0026 889.35 16.4059 882.951C22.8093 876.552 30.8146 872.007 39.5642 869.817C40.0618 869.694 40.5879 869.808 40.9908 870.121C41.3937 870.438 41.6307 870.922 41.6307 871.434V883.581C41.6307 884.297 41.1757 884.932 40.4979 885.16C35.379 886.89 30.8431 889.715 27.0039 893.554C23.1695 897.388 20.3446 901.929 18.6099 907.048C18.3824 907.726 17.7473 908.181 17.0316 908.181H4.88366C4.43813 908.181 4.01153 908.005 3.70345 907.697L3.70819 907.692ZM38.2987 873.623C30.9426 875.832 24.2217 879.847 18.7568 885.311C13.2919 890.776 9.28212 897.497 7.06867 904.853H15.8561C17.7757 899.706 20.7285 895.123 24.6483 891.203C28.5633 887.288 33.1513 884.335 38.2987 882.411V873.623Z" fill="white"/>
<path d="M78.8457 891.198C63.9061 876.258 39.5914 876.253 24.6518 891.198C9.70745 906.142 9.71219 930.452 24.6518 945.392C39.5914 960.331 63.9014 960.336 78.8457 945.392C93.79 930.447 93.7853 906.137 78.8457 891.198Z" fill="white"/>
<path d="M65.5726 931.971L38.045 932.154C36.8854 932.162 35.9515 933.108 35.9592 934.268L35.9657 935.249C35.9734 936.408 36.9197 937.342 38.0793 937.334L65.607 937.152C66.7666 937.144 67.7004 936.198 67.6928 935.038L67.6862 934.057C67.6786 932.898 66.7323 931.964 65.5726 931.971Z" fill="#191D0A"/>
<path d="M41.7953 915.356C41.4967 915.356 41.1934 915.29 40.9185 915.157L38.7714 914.119C37.8376 913.664 37.411 912.56 37.7997 911.597L38.7856 909.142C39.0889 908.393 39.8046 907.905 40.6104 907.9C40.9564 907.9 41.2976 907.986 41.601 908.161L44.1604 909.621C44.6391 909.891 44.9851 910.36 45.1084 910.901C45.2316 911.441 45.1226 912.01 44.8098 912.465L43.4068 914.498C43.0419 915.029 42.4352 915.351 41.7906 915.351L41.7953 915.356Z" fill="#191D0A"/>
<path d="M61.6102 915.223C60.9656 915.223 60.3542 914.915 59.9845 914.389L58.5957 912.431C58.2734 911.981 58.1597 911.412 58.2734 910.872C58.3872 910.331 58.7284 909.857 59.2071 909.578L61.8471 908.028C62.1457 907.852 62.487 907.758 62.833 907.753C63.6388 907.748 64.364 908.227 64.6768 908.971L65.6721 911.355C66.0703 912.313 65.6579 913.426 64.7337 913.891L62.487 915.014C62.2169 915.147 61.9135 915.223 61.6149 915.223H61.6102Z" fill="#191D0A"/>
<path d="M39.6327 930.314C38.4241 930.324 37.3387 929.565 36.9264 928.428L32.3336 915.787C32.0397 915.929 31.7269 916.038 31.4093 916.119C31.0349 916.213 30.6557 916.261 30.2718 916.261C30.049 916.261 29.831 916.251 29.6177 916.223C27.2241 915.92 25.4089 913.867 25.3947 911.45C25.3757 908.777 27.537 906.587 30.2102 906.568C32.8834 906.549 35.0731 908.71 35.0874 911.384C35.0874 912 34.9831 912.592 34.765 913.147C34.6465 913.45 34.4996 913.739 34.329 914.014L43.0643 918.242L49.7473 908.559C49.4677 908.44 49.1975 908.293 48.9415 908.118C48.4581 907.791 48.0363 907.383 47.695 906.905C47.1168 906.089 46.8039 905.127 46.7992 904.132C46.7802 901.459 48.9416 899.269 51.6148 899.25C51.7332 899.25 51.8565 899.25 51.975 899.259C54.3685 899.421 56.3023 901.34 56.4777 903.734C56.5583 904.867 56.2597 905.952 55.6151 906.876C55.2738 907.36 54.8567 907.772 54.378 908.099C54.1268 908.274 53.8566 908.421 53.577 908.54L60.3785 918.124L68.9716 913.825C68.8105 913.517 68.6825 913.194 68.5877 912.858C68.474 912.45 68.4123 912.024 68.4123 911.592C68.4123 911.398 68.4218 911.204 68.4408 911.014C68.7157 908.578 70.7727 906.729 73.2231 906.715C75.8963 906.696 78.0861 908.857 78.1003 911.531C78.1193 914.081 76.1381 916.223 73.5928 916.398L73.2895 916.408C72.7965 916.408 72.3131 916.341 71.8439 916.199C71.5406 916.104 71.2467 915.986 70.9717 915.834L66.6586 928.229C66.2652 929.371 65.1845 930.139 63.9759 930.148L39.6327 930.309V930.314Z" fill="#191D0A"/>
<path d="M51.342 840.594C38.6434 840.594 25.9553 835.764 16.2857 826.095C-3.04315 806.766 -3.04315 775.322 16.2857 755.993C25.6535 746.625 38.1022 741.473 51.342 741.473C64.5818 741.473 77.0305 746.625 86.3982 755.993C105.727 775.322 105.727 806.766 86.3982 826.095C76.739 835.754 64.0405 840.594 51.342 840.594ZM18.8878 823.493C36.7803 841.385 65.8932 841.385 83.7857 823.493C101.678 805.6 101.678 776.487 83.7857 758.595C75.1153 749.924 63.5929 745.157 51.3316 745.157C39.0702 745.157 27.5478 749.935 18.8774 758.595C0.984984 776.487 0.984984 805.6 18.8774 823.493H18.8878Z" fill="#DA7DB5"/>
<path d="M53.1765 780.609L43.9961 793.474H49.5022V802.655L58.6827 789.8H53.1765V780.609Z" fill="#DA7DB5"/>
<path d="M51.3323 773.459C41.2776 773.459 33.1172 781.619 33.1172 791.674C33.1172 801.729 41.2776 809.868 51.3323 809.868C61.387 809.868 69.5474 801.708 69.5474 791.674C69.5474 781.64 61.387 773.459 51.3323 773.459ZM51.3323 807.62C42.5058 807.62 35.3447 800.459 35.3447 791.632C35.3447 782.806 42.5058 775.645 51.3323 775.645C60.1588 775.645 67.32 782.806 67.32 791.632C67.32 800.459 60.1588 807.62 51.3323 807.62Z" fill="#DA7DB5"/>
<path d="M79.4893 762.894C71.9742 755.369 61.9715 751.236 51.3339 751.236C40.6962 751.236 30.704 755.379 23.1785 762.894C7.65924 778.413 7.65924 803.675 23.1785 819.205C30.9434 826.97 41.1334 830.852 51.3339 830.852C61.5343 830.852 71.7244 826.97 79.4893 819.205C95.0086 803.685 95.0086 778.424 79.4893 762.894ZM51.3339 816.384C37.7194 816.384 26.6342 805.299 26.6342 791.684C26.6342 785.668 28.7888 780.152 32.3694 775.842L29.3508 772.824C28.4869 771.96 28.4869 770.555 29.3508 769.68C30.2147 768.806 31.6199 768.817 32.4943 769.68L35.5128 772.699C39.2599 769.566 43.975 767.505 49.1168 767.068V765.028H47.0768C45.2761 765.028 43.7876 763.539 43.7876 761.739V760.021C43.7876 758.2 45.2761 756.732 47.0768 756.732H55.6119C57.4126 756.732 58.901 758.2 58.901 760.021V761.739C58.901 763.539 57.4126 765.028 55.6119 765.028H53.5717V767.068C58.724 767.515 63.4287 769.576 67.1758 772.699L70.1943 769.68C71.0582 768.817 72.4634 768.817 73.3377 769.68C74.2016 770.544 74.2016 771.95 73.3377 772.824L70.3192 775.842C73.8998 780.152 76.0544 785.658 76.0544 791.684C76.0544 805.299 64.9692 816.384 51.3547 816.384H51.3339Z" fill="#DA7DB5"/>
<path d="M50.3342 722.31C23.0115 722.31 0.789062 700.077 0.789062 672.765C0.789062 645.453 23.0219 623.22 50.3342 623.22C77.6465 623.22 99.8793 645.453 99.8793 672.765C99.8793 700.077 77.6465 722.31 50.3342 722.31ZM50.3342 626.519C24.833 626.519 4.08865 647.264 4.08865 672.765C4.08865 698.266 24.833 719.01 50.3342 719.01C75.8354 719.01 96.5798 698.266 96.5798 672.765C96.5798 647.264 75.8354 626.519 50.3342 626.519Z" fill="white"/>
<path d="M82.6625 637.41L67.3242 652.748L70.3418 655.766L85.6801 640.427L82.6625 637.41Z" fill="white"/>
<path d="M29.8656 690.209L14.5273 705.547L17.5449 708.564L32.8832 693.226L29.8656 690.209Z" fill="white"/>
<path d="M70.8067 690.206L67.7891 693.224L83.1273 708.562L86.1449 705.544L70.8067 690.206Z" fill="white"/>
<path d="M17.5567 636.945L14.5391 639.963L29.87 655.294L32.8876 652.276L17.5567 636.945Z" fill="white"/>
<path d="M62.43 674.097C63.4293 673.098 63.4293 671.484 62.43 670.496L60.3066 668.383C59.3074 667.383 57.6941 667.383 56.7053 668.383L55.5603 669.528L54.2384 668.206C53.2392 667.206 51.6258 667.206 50.637 668.206L49.4921 669.361L48.1702 668.029C47.1709 667.029 45.5576 667.029 44.5688 668.029L37.5429 675.055C37.4909 675.107 37.4909 675.19 37.5429 675.252C38.4797 676.189 40.0098 676.189 40.957 675.252L45.4847 670.725C45.9739 670.235 46.765 670.235 47.2542 670.725L47.5873 671.058C47.6497 671.12 47.6497 671.214 47.5873 671.276L43.809 675.055C43.7569 675.107 43.7569 675.19 43.809 675.252C44.7457 676.189 46.2758 676.189 47.223 675.252L51.5634 670.912C52.0526 670.423 52.8437 670.423 53.3329 670.912L53.6659 671.245C53.7179 671.297 53.7179 671.38 53.6659 671.443L50.0229 675.086C49.9708 675.138 49.9708 675.221 50.0229 675.284C50.9597 676.22 52.4898 676.22 53.4369 675.284L57.6316 671.089C58.1208 670.6 58.9119 670.6 59.4011 671.089L60.1193 671.807C60.4003 672.088 60.4003 672.556 60.1193 672.838L60.0048 672.952C59.7238 673.233 59.2554 673.233 58.9743 672.952L58.048 672.026C57.9959 671.974 57.9126 671.974 57.8502 672.026L56.2473 673.629C56.1952 673.681 56.1952 673.764 56.2473 673.826L57.6941 675.273C58.6933 676.272 60.3066 676.272 61.2955 675.273L62.4404 674.128L62.43 674.097Z" fill="white"/>
<path d="M50.3353 634.763C29.3515 634.763 12.3438 651.77 12.3438 672.754C12.3438 693.738 29.3515 710.746 50.3353 710.746C71.3191 710.746 88.3268 693.738 88.3268 672.754C88.3268 651.77 71.3191 634.763 50.3353 634.763ZM51.8861 646.493C57.9856 646.847 63.523 649.283 67.8113 653.092L62.326 658.578C59.4636 656.152 55.8518 654.581 51.8861 654.248V646.493ZM48.7947 646.493V654.248C44.8291 654.57 41.2173 656.152 38.3549 658.578L32.8695 653.092C37.1579 649.283 42.6953 646.847 48.7947 646.493ZM30.6838 655.278L36.1691 660.763C33.7439 663.626 32.1722 667.238 31.8391 671.203H24.0847C24.4386 665.104 26.8742 659.566 30.6838 655.278ZM24.0847 674.295H31.8391C32.1618 678.26 33.7439 681.872 36.1691 684.735L30.6838 690.22C26.8742 685.932 24.4386 680.394 24.0847 674.295ZM48.7947 699.005C42.6953 698.651 37.1579 696.215 32.8695 692.406L38.3549 686.92C41.2173 689.346 44.8291 690.917 48.7947 691.25V699.005ZM34.3684 672.744C34.3684 663.928 41.5192 656.777 50.3353 656.777C59.1514 656.777 66.3021 663.928 66.3021 672.744C66.3021 681.56 59.1514 688.711 50.3353 688.711C41.5192 688.711 34.3684 681.56 34.3684 672.744ZM51.8861 699.005V691.25C55.8518 690.928 59.4636 689.346 62.326 686.92L67.8113 692.406C63.523 696.215 57.9856 698.651 51.8861 699.005ZM69.9971 690.22L64.5118 684.735C66.937 681.872 68.5087 678.26 68.8418 674.295H76.5962C76.2423 680.394 73.8067 685.932 69.9971 690.22ZM68.8418 671.203C68.5191 667.238 66.937 663.626 64.5118 660.763L69.9971 655.278C73.8067 659.566 76.2423 665.104 76.5962 671.203H68.8418Z" fill="white"/>
<path d="M1.33594 417.428C1.33594 390.105 23.5688 367.872 50.8915 367.872C78.2142 367.872 100.447 390.105 100.447 417.428C100.447 444.75 78.2142 466.983 50.8915 466.983C23.5688 466.983 1.33594 444.75 1.33594 417.428ZM96.8768 417.428C96.8768 392.072 76.2469 371.442 50.8915 371.442C25.5361 371.442 4.90616 392.072 4.90616 417.428C4.90616 442.783 25.5361 463.413 50.8915 463.413C76.2469 463.413 96.8768 442.783 96.8768 417.428Z" fill="#11F8A5"/>
<path d="M1.33327 538.574C1.33327 537.585 2.13476 536.794 3.11317 536.794C4.09159 536.794 4.89307 537.595 4.89307 538.574C4.89307 563.929 25.523 584.559 50.8784 584.559C76.2338 584.559 96.8638 563.929 96.8638 538.574C96.8638 537.585 97.6652 536.794 98.6437 536.794C99.6221 536.794 100.423 537.595 100.423 538.574C100.423 565.897 78.1907 588.129 50.868 588.129C23.5453 588.129 1.3125 565.897 1.3125 538.574H1.33327Z" fill="#11F8A5"/>
<path d="M98.9324 416.23H77.2305V420.508H98.9324V416.23Z" fill="#11F8A5"/>
<path d="M24.2099 416.23H2.50781V420.508H24.2099V416.23Z" fill="#11F8A5"/>
<path d="M53.1998 445.208H48.9219V466.91H53.1998V445.208Z" fill="#11F8A5"/>
<path d="M53.1998 369.829H48.9219V391.531H53.1998V369.829Z" fill="#11F8A5"/>
<path d="M76.575 391.219C61.7322 376.376 37.657 376.376 22.8039 391.219C7.9612 406.062 7.9612 430.137 22.8039 444.99C37.6466 459.833 61.7218 459.833 76.575 444.99C91.4177 430.147 91.4177 406.072 76.575 391.219ZM57.0379 394.435C61.3679 395.778 65.2503 398.286 68.2688 401.7L68.8517 402.356L67.9982 402.554C65.7396 403.085 63.3248 403.522 60.8267 403.845L60.3791 403.907L60.2542 403.47C59.8379 402.044 59.3486 400.67 58.7866 399.4C58.0892 397.808 57.3086 396.413 56.455 395.237L55.5182 393.956L57.0379 394.425V394.435ZM39.6659 416.918L39.6867 416.377C39.7908 413.087 40.1551 409.944 40.7796 407.051L40.8733 406.593L41.3417 406.634C46.8166 407.113 52.6663 407.092 58.11 406.582L58.5784 406.54L58.6825 406.998C59.3174 409.923 59.6817 413.077 59.7754 416.377V416.918H39.6763H39.6659ZM59.7754 419.333V419.874C59.6609 423.173 59.2966 426.327 58.6617 429.252L58.5576 429.71L58.0892 429.668C52.6455 429.158 46.7959 429.148 41.3209 429.616L40.8525 429.658L40.7588 429.2C40.1343 426.306 39.77 423.173 39.6659 419.874L39.6451 419.333H59.7546H59.7754ZM49.7207 393.53C52.7496 393.53 55.8305 397.37 57.7561 403.564L57.9539 404.188L57.2981 404.24C54.7376 404.459 52.0938 404.573 49.4396 404.573C46.9728 404.573 44.5163 404.48 42.1223 404.282L41.4666 404.23L41.6644 403.595C43.5899 397.381 46.6814 393.519 49.7207 393.519V393.53ZM31.0684 401.815C34.1077 398.349 38.0214 395.799 42.4034 394.446L43.9335 393.977L42.9863 395.268C42.1328 396.434 41.3417 397.839 40.6547 399.421C40.1031 400.67 39.6035 402.065 39.1663 403.564L39.0414 403.99L38.5939 403.938C36.075 403.626 33.6393 403.21 31.3494 402.679L30.4855 402.481L31.0684 401.815ZM24.9898 416.356C25.2812 412.296 26.5823 408.341 28.7577 404.896L28.9659 404.573L29.3406 404.667C32.0052 405.343 34.8779 405.885 37.8964 406.27L38.4585 406.343L38.344 406.905C37.7195 409.923 37.3656 413.119 37.2719 416.408V416.918H24.9585L25.0002 416.356H24.9898ZM28.9659 431.677L28.7577 431.355C26.5823 427.92 25.2812 423.954 24.9898 419.895L24.9481 419.333H37.2511V419.843C37.3552 423.132 37.7195 426.338 38.3336 429.346L38.4481 429.908L37.886 429.981C34.8779 430.366 31.9948 430.907 29.3301 431.584L28.9554 431.677H28.9659ZM42.4034 441.815C38.0214 440.462 34.1077 437.912 31.0684 434.446L30.4855 433.78L31.3494 433.582C33.6393 433.062 36.075 432.635 38.5939 432.323L39.0414 432.271L39.1663 432.697C39.6035 434.196 40.1031 435.591 40.6547 436.84C41.3521 438.433 42.1328 439.827 42.9863 441.003L43.9335 442.294L42.4034 441.826V441.815ZM49.7207 442.721C46.6814 442.721 43.5899 438.859 41.6644 432.645L41.4666 432.01L42.1223 431.958C47.0873 431.563 52.3749 431.573 57.2981 432L57.9539 432.052L57.7561 432.677C55.8201 438.859 52.7392 442.71 49.7207 442.71V442.721ZM68.2688 434.55C65.2503 437.964 61.3575 440.473 57.0379 441.815L55.5182 442.284L56.455 441.003C57.3086 439.838 58.0892 438.433 58.7866 436.84C59.3382 435.56 59.8379 434.196 60.2542 432.77L60.3791 432.333L60.8267 432.396C63.3248 432.718 65.7396 433.155 67.9982 433.686L68.8517 433.894L68.2688 434.55ZM74.4412 419.895C74.1498 423.996 72.8279 428.003 70.6004 431.48L70.3922 431.802L70.0175 431.709C67.3841 431.011 64.5217 430.459 61.524 430.054L60.962 429.981L61.0765 429.429C61.701 426.411 62.0653 423.194 62.159 419.853V419.343H74.4724L74.4308 419.905L74.4412 419.895ZM62.1798 416.918V416.408C62.0757 413.067 61.7114 409.84 61.0869 406.832L60.9724 406.28L61.5345 406.207C64.5322 405.801 67.3841 405.25 70.0279 404.552L70.4026 404.459L70.6108 404.781C72.8382 408.258 74.1705 412.255 74.4516 416.366L74.4932 416.928H62.1902L62.1798 416.918Z" fill="#11F8A5"/>
<path d="M1.27344 539.323V419.728C1.27344 418.739 2.07493 417.948 3.05334 417.948C4.03175 417.948 4.83324 418.75 4.83324 419.728V539.323C4.83324 540.312 4.03175 541.103 3.05334 541.103C2.07493 541.103 1.27344 540.302 1.27344 539.323Z" fill="#11F8A5"/>
<path d="M96.8242 539.594V419.999C96.8242 419.01 97.6256 418.219 98.6041 418.219C99.5825 418.219 100.384 419.02 100.384 419.999V539.594C100.384 540.583 99.5825 541.374 98.6041 541.374C97.6256 541.374 96.8242 540.572 96.8242 539.594Z" fill="#11F8A5"/>
<path d="M14.6173 330.419C-4.87243 310.929 -4.87243 279.22 14.6173 259.731C34.107 240.241 65.8157 240.241 85.3054 259.731C104.795 279.22 104.795 310.929 85.3054 330.419C65.8157 349.908 34.107 349.908 14.6173 330.419ZM82.9498 262.086C64.7588 243.895 35.164 243.895 16.9777 262.086C-1.21338 280.277 -1.21338 309.872 16.9777 328.058C35.1687 346.249 64.7635 346.249 82.9498 328.058C101.141 309.867 101.141 280.273 82.9498 262.086Z" fill="white"/>
<path d="M83.4893 284.472C83.3139 284.297 83.1717 284.074 83.0912 283.828C81.3612 278.709 78.5363 274.173 74.6971 270.334C70.8626 266.499 66.322 263.675 61.2031 261.94C60.5253 261.708 60.0703 261.077 60.0703 260.361V248.214C60.0703 247.702 60.3073 247.218 60.7102 246.901C61.1178 246.583 61.6439 246.474 62.1368 246.597C70.8863 248.787 78.8965 253.328 85.2951 259.731C91.6937 266.134 96.2344 274.14 98.4241 282.889C98.5474 283.387 98.4336 283.913 98.1208 284.321C97.8032 284.728 97.3198 284.961 96.8079 284.961H84.66C84.205 284.961 83.7879 284.776 83.4798 284.468L83.4893 284.472ZM77.0527 267.978C80.9677 271.893 83.9206 276.481 85.8449 281.629H94.6324C92.4237 274.273 88.4091 267.552 82.9442 262.087C77.4793 256.622 70.7584 252.607 63.4071 250.403V259.191C68.5544 261.11 73.1424 264.063 77.0574 267.983L77.0527 267.978Z" fill="white"/>
<path d="M14.6161 330.419C8.21749 324.021 3.67209 316.01 1.48234 307.261C1.35911 306.763 1.47287 306.237 1.78569 305.834C2.10325 305.427 2.58668 305.194 3.09857 305.194H15.2465C15.9622 305.194 16.5973 305.649 16.8248 306.327C18.5548 311.446 21.3797 315.982 25.2188 319.821C29.0533 323.656 33.594 326.48 38.7129 328.215C39.3906 328.443 39.8456 329.078 39.8456 329.793V341.941C39.8456 342.453 39.6086 342.937 39.2057 343.254C38.7981 343.572 38.272 343.681 37.7743 343.558C29.0248 341.368 21.0195 336.827 14.6161 330.429V330.419ZM5.28361 308.522C7.49231 315.878 11.5068 322.599 16.9717 328.063C22.4366 333.528 29.1576 337.543 36.5136 339.752V330.964C31.3663 329.045 26.7782 326.092 22.8632 322.177C18.9482 318.262 15.9954 313.674 14.071 308.526H5.28361V308.522Z" fill="white"/>
<path d="M60.5663 343.112C60.2535 342.799 60.0781 342.377 60.0781 341.932V329.784C60.0781 329.068 60.5331 328.433 61.2109 328.205C66.3298 326.475 70.8657 323.651 74.7049 319.811C78.5441 315.972 81.3642 311.436 83.0989 306.317C83.3264 305.64 83.9616 305.185 84.6773 305.185H96.8252C97.3371 305.185 97.8205 305.422 98.1381 305.824C98.4556 306.227 98.5647 306.758 98.4414 307.251C96.2469 316.001 91.7063 324.006 85.3076 330.409C78.909 336.813 70.8989 341.353 62.1494 343.543C61.6517 343.666 61.1256 343.553 60.7227 343.24C60.6706 343.192 60.6185 343.15 60.5711 343.102L60.5663 343.112ZM63.4102 330.959V339.747C70.7662 337.538 77.4871 333.523 82.952 328.058C88.4169 322.594 92.4267 315.873 94.6402 308.517H85.8527C83.9331 313.664 80.9803 318.247 77.0605 322.167C73.1455 326.082 68.5575 329.04 63.4102 330.959Z" fill="white"/>
<path d="M1.91913 284.473C1.87173 284.425 1.82435 284.373 1.78643 284.321C1.46887 283.918 1.35985 283.387 1.48309 282.89C3.67284 274.14 8.2135 266.13 14.6169 259.731C21.0202 253.333 29.0256 248.787 37.7751 246.598C38.2728 246.474 38.7989 246.588 39.2017 246.901C39.6046 247.218 39.8417 247.702 39.8417 248.214V260.362C39.8417 261.077 39.3866 261.713 38.7089 261.94C33.59 263.67 29.054 266.495 25.2148 270.334C21.3804 274.169 18.5555 278.709 16.8208 283.828C16.5933 284.506 15.9582 284.961 15.2425 284.961H3.0946C2.64907 284.961 2.22247 284.785 1.91439 284.477L1.91913 284.473ZM36.5096 250.404C29.1536 252.612 22.4326 256.627 16.9677 262.092C11.5028 267.557 7.49305 274.278 5.27961 281.634H14.067C15.9866 276.486 18.9395 271.903 22.8592 267.983C26.7742 264.068 31.3623 261.115 36.5096 259.191V250.404Z" fill="white"/>
<path d="M77.0566 267.978C62.1171 253.038 37.8023 253.034 22.8627 267.978C7.91839 282.922 7.92313 307.232 22.8627 322.172C37.8023 337.111 62.1123 337.116 77.0566 322.172C92.001 307.228 91.9962 282.918 77.0566 267.978Z" fill="white"/>
<path d="M63.7836 308.752L36.2559 308.934C35.0963 308.942 34.1625 309.888 34.1702 311.048L34.1767 312.029C34.1844 313.189 35.1307 314.122 36.2903 314.115L63.8179 313.932C64.9775 313.924 65.9114 312.978 65.9037 311.819L65.8972 310.837C65.8895 309.678 64.9432 308.744 63.7836 308.752Z" fill="#191D0A"/>
<path d="M40.0062 292.136C39.7076 292.136 39.4043 292.07 39.1294 291.937L36.9823 290.899C36.0486 290.444 35.622 289.34 36.0106 288.378L36.9965 285.922C37.2999 285.174 38.0156 284.685 38.8213 284.681C39.1673 284.681 39.5086 284.766 39.8119 284.941L42.3714 286.401C42.8501 286.671 43.1961 287.141 43.3193 287.681C43.4425 288.221 43.3335 288.79 43.0207 289.245L41.6178 291.278C41.2528 291.809 40.6461 292.132 40.0015 292.132L40.0062 292.136Z" fill="#191D0A"/>
<path d="M59.8211 292.003C59.1765 292.003 58.5651 291.695 58.1954 291.169L56.8066 289.211C56.4843 288.761 56.3706 288.192 56.4844 287.652C56.5981 287.112 56.9394 286.638 57.4181 286.358L60.0581 284.808C60.3567 284.633 60.698 284.538 61.044 284.533C61.8497 284.528 62.5749 285.007 62.8877 285.751L63.8831 288.135C64.2812 289.093 63.8689 290.207 62.9446 290.671L60.698 291.794C60.4278 291.927 60.1244 292.003 59.8258 292.003H59.8211Z" fill="#191D0A"/>
<path d="M37.8437 307.094C36.635 307.104 35.5497 306.346 35.1373 305.208L30.5445 292.567C30.2507 292.709 29.9378 292.818 29.6203 292.899C29.2458 292.994 28.8666 293.041 28.4827 293.041C28.26 293.041 28.0419 293.032 27.8286 293.003C25.4351 292.7 23.6198 290.648 23.6056 288.23C23.5866 285.557 25.7479 283.367 28.4211 283.348C31.0943 283.329 33.2841 285.491 33.2983 288.164C33.2983 288.78 33.194 289.373 32.976 289.927C32.8575 290.23 32.7106 290.52 32.54 290.794L41.2752 295.022L47.9583 285.339C47.6786 285.221 47.4084 285.074 47.1525 284.898C46.669 284.571 46.2472 284.164 45.9059 283.685C45.3277 282.87 45.0149 281.908 45.0101 280.912C44.9912 278.239 47.1525 276.049 49.8257 276.03C49.9442 276.03 50.0674 276.03 50.1859 276.04C52.5795 276.201 54.5133 278.12 54.6886 280.514C54.7692 281.647 54.4706 282.732 53.826 283.656C53.4848 284.14 53.0676 284.552 52.5889 284.879C52.3377 285.055 52.0676 285.202 51.7879 285.32L58.5894 294.904L67.1825 290.605C67.0214 290.297 66.8934 289.975 66.7987 289.638C66.6849 289.23 66.6233 288.804 66.6233 288.372C66.6233 288.178 66.6327 287.984 66.6517 287.794C66.9266 285.358 68.9836 283.51 71.4341 283.495C74.1073 283.476 76.297 285.638 76.3112 288.311C76.3302 290.861 74.349 293.003 71.8038 293.179L71.5004 293.188C71.0075 293.188 70.5241 293.122 70.0548 292.979C69.7515 292.885 69.4576 292.766 69.1827 292.615L64.8696 305.009C64.4762 306.151 63.3955 306.919 62.1869 306.928L37.8437 307.09V307.094Z" fill="#191D0A"/>
<path d="M50.4045 217.374C37.7059 217.374 25.0178 212.545 15.3482 202.875C-3.98065 183.546 -3.98065 152.102 15.3482 132.773C24.716 123.405 37.1647 118.253 50.4045 118.253C63.6443 118.253 76.093 123.405 85.4607 132.773C104.79 152.102 104.79 183.546 85.4607 202.875C75.8015 212.534 63.103 217.374 50.4045 217.374ZM17.9503 200.273C35.8428 218.165 64.9557 218.165 82.8482 200.273C100.741 182.381 100.741 153.268 82.8482 135.375C74.1778 126.705 62.6554 121.938 50.3941 121.938C38.1327 121.938 26.6103 126.715 17.9399 135.375C0.0474844 153.268 0.0474844 182.381 17.9399 200.273H17.9503Z" fill="#DA7DB5"/>
<path d="M52.239 157.39L43.0586 170.255H48.5647V179.435L57.7452 166.58H52.239V157.39Z" fill="#DA7DB5"/>
<path d="M50.3948 150.239C40.3401 150.239 32.1797 158.4 32.1797 168.454C32.1797 178.509 40.3401 186.649 50.3948 186.649C60.4495 186.649 68.6099 178.488 68.6099 168.454C68.6099 158.42 60.4495 150.239 50.3948 150.239ZM50.3948 184.4C41.5683 184.4 34.4072 177.239 34.4072 168.413C34.4072 159.586 41.5683 152.425 50.3948 152.425C59.2213 152.425 66.3825 159.586 66.3825 168.413C66.3825 177.239 59.2213 184.4 50.3948 184.4Z" fill="#DA7DB5"/>
<path d="M78.5518 139.674C71.0367 132.149 61.034 128.017 50.3964 128.017C39.7587 128.017 29.7665 132.159 22.241 139.674C6.72174 155.194 6.72174 180.455 22.241 195.985C30.0059 203.75 40.1959 207.632 50.3964 207.632C60.5968 207.632 70.7869 203.75 78.5518 195.985C94.0711 180.466 94.0711 155.204 78.5518 139.674ZM50.3964 193.164C36.7819 193.164 25.6967 182.079 25.6967 168.465C25.6967 162.448 27.8513 156.932 31.4319 152.623L28.4133 149.604C27.5494 148.74 27.5494 147.335 28.4133 146.461C29.2772 145.586 30.6824 145.597 31.5568 146.461L34.5753 149.479C38.3224 146.346 43.0375 144.285 48.1793 143.848V141.808H46.1393C44.3386 141.808 42.8501 140.32 42.8501 138.519V136.801C42.8501 134.98 44.3386 133.512 46.1393 133.512H54.6744C56.4751 133.512 57.9635 134.98 57.9635 136.801V138.519C57.9635 140.32 56.4751 141.808 54.6744 141.808H52.6342V143.848C57.7865 144.296 62.4912 146.357 66.2383 149.479L69.2568 146.461C70.1207 145.597 71.5259 145.597 72.4002 146.461C73.2641 147.325 73.2641 148.73 72.4002 149.604L69.3817 152.623C72.9623 156.932 75.1169 162.438 75.1169 168.465C75.1169 182.079 64.0317 193.164 50.4172 193.164H50.3964Z" fill="#DA7DB5"/>
<path d="M51.3342 99.0902C24.0115 99.0902 1.78906 76.8574 1.78906 49.5451C1.78906 22.2329 24.0219 0 51.3342 0C78.6465 0 100.879 22.2329 100.879 49.5451C100.879 76.8574 78.6465 99.0902 51.3342 99.0902ZM51.3342 3.29952C25.833 3.29952 5.08865 24.044 5.08865 49.5451C5.08865 75.0463 25.833 95.7906 51.3342 95.7906C76.8354 95.7906 97.5798 75.0463 97.5798 49.5451C97.5798 24.044 76.8354 3.29952 51.3342 3.29952Z" fill="white"/>
<path d="M83.6625 14.191L68.3242 29.5293L71.3418 32.5469L86.6801 17.2086L83.6625 14.191Z" fill="white"/>
<path d="M30.8656 66.9889L15.5273 82.3271L18.5449 85.3447L33.8832 70.0065L30.8656 66.9889Z" fill="white"/>
<path d="M71.8067 66.9863L68.7891 70.0039L84.1273 85.3422L87.1449 82.3246L71.8067 66.9863Z" fill="white"/>
<path d="M18.5567 13.7256L15.5391 16.7432L30.87 32.0741L33.8876 29.0565L18.5567 13.7256Z" fill="white"/>
<path d="M63.43 50.8772C64.4293 49.878 64.4293 48.2647 63.43 47.2758L61.3066 45.1629C60.3074 44.1637 58.6941 44.1637 57.7053 45.1629L56.5603 46.3078L55.2384 44.986C54.2392 43.9867 52.6258 43.9867 51.637 44.986L50.4921 46.1413L49.1702 44.809C48.1709 43.8098 46.5576 43.8098 45.5688 44.809L38.5429 51.8348C38.4909 51.8869 38.4909 51.9701 38.5429 52.0326C39.4797 52.9694 41.0098 52.9694 41.957 52.0326L46.4847 47.5048C46.9739 47.0156 47.765 47.0156 48.2542 47.5048L48.5873 47.8379C48.6497 47.9004 48.6497 47.994 48.5873 48.0565L44.809 51.8348C44.7569 51.8869 44.7569 51.9701 44.809 52.0326C45.7457 52.9694 47.2758 52.9694 48.223 52.0326L52.5634 47.6922C53.0526 47.203 53.8437 47.203 54.3329 47.6922L54.6659 48.0253C54.7179 48.0773 54.7179 48.1606 54.6659 48.223L51.0229 51.866C50.9708 51.9181 50.9708 52.0014 51.0229 52.0638C51.9597 53.0006 53.4898 53.0006 54.4369 52.0638L58.6316 47.8691C59.1208 47.3799 59.9119 47.3799 60.4011 47.8691L61.1193 48.5873C61.4003 48.8684 61.4003 49.3367 61.1193 49.6178L61.0048 49.7323C60.7238 50.0133 60.2554 50.0133 59.9743 49.7323L59.048 48.8059C58.9959 48.7539 58.9126 48.7539 58.8502 48.8059L57.2473 50.4088C57.1952 50.4609 57.1952 50.5442 57.2473 50.6066L58.6941 52.0534C59.6933 53.0526 61.3066 53.0526 62.2955 52.0534L63.4404 50.9085L63.43 50.8772Z" fill="white"/>
<path d="M51.3353 11.543C30.3515 11.543 13.3438 28.5507 13.3438 49.5345C13.3438 70.5183 30.3515 87.526 51.3353 87.526C72.3191 87.526 89.3268 70.5183 89.3268 49.5345C89.3268 28.5507 72.3191 11.543 51.3353 11.543ZM52.8861 23.2735C58.9856 23.6274 64.523 26.063 68.8113 29.8726L63.326 35.3579C60.4636 32.9327 56.8518 31.361 52.8861 31.0279V23.2735ZM49.7947 23.2735V31.0279C45.8291 31.3506 42.2173 32.9327 39.3549 35.3579L33.8695 29.8726C38.1579 26.063 43.6953 23.6274 49.7947 23.2735ZM31.6838 32.0584L37.1691 37.5438C34.7439 40.4061 33.1722 44.0179 32.8391 47.9836H25.0847C25.4386 41.8841 27.8742 36.3467 31.6838 32.0584ZM25.0847 51.075H32.8391C33.1618 55.0407 34.7439 58.6525 37.1691 61.5148L31.6838 67.0002C27.8742 62.7118 25.4386 57.1744 25.0847 51.075ZM49.7947 75.7851C43.6953 75.4312 38.1579 72.9955 33.8695 69.186L39.3549 63.7006C42.2173 66.1258 45.8291 67.6975 49.7947 68.0306V75.7851ZM35.3684 49.5241C35.3684 40.708 42.5192 33.5572 51.3353 33.5572C60.1514 33.5572 67.3021 40.708 67.3021 49.5241C67.3021 58.3402 60.1514 65.4909 51.3353 65.4909C42.5192 65.4909 35.3684 58.3402 35.3684 49.5241ZM52.8861 75.7851V68.0306C56.8518 67.708 60.4636 66.1258 63.326 63.7006L68.8113 69.186C64.523 72.9955 58.9856 75.4312 52.8861 75.7851ZM70.9971 67.0002L65.5118 61.5148C67.937 58.6525 69.5087 55.0407 69.8418 51.075H77.5962C77.2423 57.1744 74.8067 62.7118 70.9971 67.0002ZM69.8418 47.9836C69.5191 44.0179 67.937 40.4061 65.5118 37.5438L70.9971 32.0584C74.8067 36.3467 77.2423 41.8841 77.5962 47.9836H69.8418Z" fill="white"/>
</g>
</svg>
